<?xml version="1.0" standalone="no"?>
<!DOCTYPE svg PUBLIC "-//W3C//DTD SVG 20010904//EN"
 "http://www.w3.org/TR/2001/REC-SVG-20010904/DTD/svg10.dtd">
<svg version="1.0" xmlns="http://www.w3.org/2000/svg"
 width="4768.000000pt" height="4768.000000pt" viewBox="0 0 4768.000000 4768.000000"
 preserveAspectRatio="xMidYMid meet">
<metadata>
Created by potrace 1.14, written by Peter Selinger 2001-2017
</metadata>
<g transform="translate(0.000000,4768.000000) scale(0.100000,-0.100000)"
fill="#000000" stroke="none">
<path d="M32467 28344 c-1 -2 -29 -5 -62 -9 -79 -8 -94 -10 -130 -20 -74 -18
-138 -42 -215 -78 -31 -15 -143 -80 -150 -87 -3 -3 -27 -23 -55 -45 -142 -114
-236 -247 -289 -408 -23 -70 -28 -89 -43 -172 -9 -50 -9 -337 0 -390 13 -79
18 -98 28 -117 5 -10 7 -18 4 -18 -7 0 43 -130 56 -147 6 -7 8 -13 4 -13 -5 0
0 -9 10 -20 10 -11 15 -20 11 -20 -10 0 87 -129 132 -175 63 -65 151 -135 171
-135 5 0 11 -4 13 -9 3 -8 142 -82 153 -81 3 0 19 -7 35 -15 17 -9 30 -13 30
-10 0 3 8 1 18 -4 11 -6 30 -12 43 -15 13 -3 43 -10 67 -16 23 -6 66 -12 95
-14 29 -3 52 -5 52 -6 0 -8 142 -3 147 5 5 6 8 5 8 -3 0 -7 4 -11 10 -7 8 5
88 15 138 18 6 0 12 4 12 9 0 5 4 6 10 3 5 -3 35 2 67 12 32 9 60 18 63 18 16
5 54 22 125 56 138 67 274 181 359 304 49 68 103 170 110 205 1 3 4 10 7 15 9
14 37 129 46 190 13 82 9 334 -7 410 -17 85 -17 84 -20 90 -1 3 -3 9 -4 14 0
5 -4 13 -8 17 -5 4 -8 16 -8 26 0 22 -68 161 -81 166 -5 2 -9 8 -9 14 0 44
-252 280 -342 320 -16 7 -28 16 -28 20 0 5 -9 8 -20 8 -11 0 -20 4 -20 9 0 5
-8 11 -17 14 -10 3 -49 17 -88 31 -38 14 -81 27 -95 30 -14 3 -36 7 -50 11
-56 12 -275 27 -283 19z"/>
<path d="M2906 27683 c-1 -1 -38 -5 -82 -8 -43 -3 -101 -8 -129 -11 -27 -4
-61 -8 -75 -9 -58 -6 -130 -16 -210 -31 -47 -9 -96 -18 -110 -21 -24 -4 -88
-19 -122 -28 -24 -7 -59 -15 -83 -20 -11 -3 -72 -21 -135 -41 -63 -20 -121
-36 -127 -37 -7 0 -13 -4 -13 -9 0 -4 -3 -7 -7 -6 -5 0 -17 -2 -28 -6 -174
-66 -188 -72 -320 -139 -55 -27 -102 -54 -103 -58 -2 -5 -8 -7 -13 -3 -5 3 -9
0 -9 -5 0 -6 -5 -11 -11 -11 -6 0 -31 -13 -56 -30 -24 -16 -48 -30 -53 -30 -4
0 -10 -4 -12 -8 -1 -5 -30 -27 -63 -49 -33 -23 -70 -50 -82 -62 -12 -12 -24
-21 -27 -21 -7 0 -106 -92 -170 -158 -34 -35 -73 -76 -88 -92 -16 -16 -28 -33
-28 -39 0 -6 -4 -11 -8 -11 -10 0 -115 -144 -169 -230 -57 -94 -143 -270 -185
-380 -31 -82 -42 -116 -64 -200 -54 -207 -78 -398 -77 -635 0 -129 8 -310 13
-310 1 0 4 -20 6 -45 4 -47 37 -212 53 -267 5 -17 7 -34 3 -37 -3 -3 0 -6 7
-6 7 0 11 -7 8 -15 -4 -8 -2 -17 2 -19 7 -5 16 -34 22 -74 0 -4 7 -18 14 -32
7 -14 17 -36 23 -50 23 -57 78 -165 85 -168 4 -2 7 -10 7 -18 0 -8 4 -14 8
-14 4 0 13 -12 19 -27 12 -27 33 -63 43 -73 3 -3 23 -32 45 -65 22 -33 42 -62
45 -65 3 -3 24 -27 45 -55 87 -109 214 -237 314 -315 18 -14 40 -32 50 -40 38
-33 251 -179 281 -193 8 -4 29 -16 45 -27 17 -11 46 -26 65 -35 19 -9 42 -23
52 -32 10 -9 18 -13 18 -9 0 4 12 -1 27 -11 16 -11 57 -32 93 -47 36 -16 85
-37 110 -48 25 -11 59 -26 77 -34 17 -8 34 -14 37 -14 3 0 30 -11 60 -25 30
-14 58 -25 61 -25 4 0 21 -7 38 -15 38 -17 298 -117 312 -119 6 -1 15 -4 20
-7 11 -7 87 -33 97 -34 3 0 10 -3 14 -7 4 -5 16 -8 26 -8 10 0 18 -5 18 -11 0
-5 4 -7 10 -4 5 3 24 -1 42 -9 18 -8 51 -19 73 -26 22 -6 49 -15 60 -20 60
-25 186 -70 200 -70 8 0 15 -4 15 -9 0 -5 12 -12 28 -16 74 -18 396 -166 602
-276 116 -63 310 -217 370 -294 40 -51 79 -113 74 -117 -2 -3 2 -11 11 -18 8
-7 15 -21 15 -31 0 -11 4 -19 8 -19 5 0 9 -6 10 -12 1 -16 6 -36 15 -63 22
-70 31 -255 16 -346 -13 -76 -30 -142 -42 -156 -5 -7 -7 -13 -3 -13 8 0 -28
-70 -63 -125 -30 -46 -100 -118 -151 -155 -44 -32 -180 -103 -180 -94 0 3 -6
2 -13 -4 -16 -14 -212 -78 -262 -86 -22 -4 -55 -9 -74 -12 -18 -3 -42 -7 -52
-9 -63 -12 -250 -19 -489 -18 -309 1 -436 7 -605 27 -27 3 -72 8 -100 11 -27
3 -61 7 -75 10 -14 3 -41 7 -60 10 -35 4 -73 11 -120 20 -14 3 -36 8 -50 10
-62 12 -197 44 -220 52 -16 7 -31 11 -57 17 -10 3 -18 5 -18 5 0 3 -262 93
-272 93 -7 1 -13 5 -13 10 0 4 -6 8 -14 8 -8 0 -27 5 -43 12 -15 6 -30 12 -33
13 -3 1 -16 6 -30 12 -14 6 -54 23 -90 38 -36 15 -70 31 -76 36 -6 5 -14 6
-17 2 -4 -3 -7 0 -7 7 0 7 -3 11 -6 8 -3 -4 -52 18 -108 46 l-103 53 -19 -51
c-10 -28 -19 -53 -19 -56 0 -3 -3 -9 -6 -15 -7 -12 -21 -68 -19 -74 1 -2 -2
-7 -7 -10 -4 -3 -26 -58 -47 -121 -21 -63 -44 -126 -49 -140 -6 -14 -11 -29
-13 -35 -1 -5 -21 -62 -44 -125 -23 -63 -56 -158 -75 -210 -18 -52 -52 -147
-75 -210 -22 -63 -42 -119 -43 -125 -1 -5 -5 -14 -8 -20 -4 -5 -10 -23 -14
-40 -10 -36 -10 -36 -18 -55 -27 -62 -46 -134 -37 -145 5 -6 67 -40 137 -76
70 -35 130 -66 133 -69 3 -3 10 -6 17 -7 6 -1 40 -15 75 -31 34 -16 79 -34 98
-42 19 -7 39 -17 45 -22 5 -4 17 -8 27 -8 10 0 37 -9 61 -19 45 -20 156 -58
196 -67 14 -3 28 -7 33 -10 4 -3 16 -7 25 -9 10 -2 50 -13 88 -25 39 -11 82
-23 97 -25 15 -3 39 -10 54 -15 15 -6 29 -8 32 -6 2 3 12 1 21 -3 14 -8 45
-15 106 -25 11 -2 34 -6 50 -10 91 -20 148 -30 180 -30 17 -1 32 -4 35 -8 3
-3 23 -7 45 -9 22 -1 44 -5 49 -7 5 -3 27 -7 50 -9 22 -2 54 -5 71 -8 248 -38
430 -54 646 -60 70 -1 131 -5 135 -7 5 -3 18 -2 29 2 11 4 29 4 40 0 11 -4 29
-4 40 0 11 4 29 4 41 0 11 -5 27 -5 34 0 7 5 23 5 34 1 24 -8 58 -7 74 3 6 3
13 2 17 -4 4 -6 11 -7 17 -4 6 4 61 8 122 10 150 3 331 17 506 39 30 4 71 8
90 10 19 2 35 4 35 5 0 2 45 10 85 15 19 2 35 4 35 5 0 1 14 4 30 6 17 3 62
11 100 20 39 8 79 16 90 18 11 2 58 14 105 26 47 13 91 23 98 23 6 0 12 4 12
9 0 5 4 7 8 4 4 -3 51 10 103 28 51 18 99 34 104 35 6 2 21 8 35 14 14 5 30
11 35 13 39 10 319 145 323 156 2 4 9 8 16 8 17 0 244 156 313 215 93 81 194
184 264 270 73 90 149 199 149 212 0 5 9 19 20 31 12 12 17 22 13 22 -4 0 -3
4 2 8 11 8 60 105 56 111 -1 2 1 7 6 10 13 9 64 131 55 131 -4 0 -2 4 3 8 12
8 65 168 89 267 26 103 50 265 61 399 3 38 8 73 11 77 2 4 0 10 -6 14 -7 4 -6
13 1 27 9 16 8 19 -3 12 -10 -6 -11 -5 -2 7 13 18 7 309 -10 464 -14 127 -17
151 -21 165 -2 8 -7 35 -10 60 -3 25 -17 88 -30 140 -14 52 -27 106 -31 120
-3 14 -9 34 -13 45 -5 11 -23 58 -41 105 -38 97 -73 171 -119 250 -17 30 -37
65 -43 78 -6 12 -15 22 -20 22 -4 0 -8 7 -8 15 0 8 -4 15 -10 15 -5 0 -10 6
-10 13 0 6 -14 26 -30 44 -17 18 -30 35 -30 38 0 14 -240 261 -311 320 -38 31
-125 98 -149 115 -12 8 -28 20 -34 25 -6 6 -23 16 -38 24 -16 8 -28 18 -28 23
0 4 -5 8 -11 8 -6 0 -30 14 -54 30 -24 17 -48 30 -53 30 -6 0 -12 3 -14 8 -1
4 -21 16 -43 27 -22 11 -57 30 -77 42 -21 13 -44 23 -53 23 -8 0 -15 4 -15 9
0 5 -17 15 -37 22 -21 6 -49 19 -63 28 -14 9 -36 22 -50 28 -14 6 -54 25 -90
41 -83 38 -176 80 -217 98 -85 36 -101 43 -147 64 -27 12 -56 23 -66 25 -10 2
-26 8 -36 14 -37 22 -163 69 -168 63 -3 -3 -6 0 -6 7 0 7 -4 10 -9 6 -5 -3
-12 -1 -15 4 -3 5 -17 12 -30 15 -14 3 -38 11 -53 18 -15 6 -30 12 -33 13 -3
1 -13 5 -22 8 -10 4 -26 10 -35 14 -10 3 -20 7 -23 8 -3 1 -12 5 -20 8 -8 4
-69 25 -135 47 -66 23 -127 44 -135 48 -8 3 -19 6 -25 7 -5 1 -21 7 -35 13
-14 6 -79 30 -145 54 -66 23 -122 45 -125 48 -3 3 -12 6 -20 8 -24 5 -264 124
-271 134 -3 6 -10 10 -15 10 -27 -1 -160 87 -238 158 -56 50 -59 53 -97 100
-18 23 -42 51 -51 62 -41 48 -89 172 -104 268 -7 47 -4 195 5 250 19 116 81
239 158 316 69 69 190 139 309 178 50 16 63 20 139 36 22 5 51 12 65 15 14 3
48 8 75 11 28 3 61 7 75 10 95 18 486 22 670 8 58 -4 120 -8 138 -8 17 -1 32
-3 32 -6 0 -3 12 -5 28 -6 85 -3 359 -60 445 -93 14 -5 28 -7 31 -4 3 4 6 1 6
-5 0 -7 7 -12 14 -12 8 0 52 -12 98 -27 46 -15 85 -27 88 -28 3 -1 14 -5 25
-9 61 -23 75 -28 82 -28 4 0 19 -6 33 -13 14 -7 52 -24 85 -36 33 -13 64 -27
70 -31 5 -4 17 -8 27 -8 10 0 18 -5 18 -11 0 -5 4 -7 10 -4 6 3 10 1 10 -4 0
-6 4 -10 8 -9 9 3 133 -53 142 -63 3 -3 15 -8 27 -11 19 -5 24 1 39 46 9 28
20 56 24 61 4 6 11 26 15 45 4 19 11 40 14 45 4 6 18 39 30 75 12 36 25 72 28
80 4 8 7 17 8 20 2 6 11 30 28 75 7 17 12 32 13 35 0 3 6 19 13 35 7 17 22 57
33 90 11 33 23 64 26 70 4 5 7 15 8 20 1 6 21 62 44 125 23 63 57 157 76 207
18 51 38 101 44 112 5 11 9 24 8 28 -1 8 2 16 33 88 7 17 12 33 11 37 -1 4 7
26 18 50 27 59 26 66 -20 85 -22 10 -40 21 -40 25 0 5 -6 8 -12 8 -7 0 -43 16
-80 35 -38 18 -68 32 -68 30 0 -2 -27 10 -60 26 -33 16 -65 29 -70 29 -6 0
-29 9 -53 19 -42 19 -76 32 -89 36 -5 2 -9 3 -10 5 -2 1 -10 3 -18 5 -8 2 -66
22 -127 44 -62 22 -113 37 -113 33 0 -4 -4 -1 -8 6 -5 7 -22 15 -38 18 -16 3
-58 14 -94 25 -80 25 -249 70 -272 72 -10 1 -18 4 -18 7 0 3 -13 6 -28 7 -27
2 -49 6 -102 18 -14 3 -38 7 -55 10 -48 7 -102 15 -142 21 -21 3 -58 7 -83 9
-25 2 -58 6 -75 9 -34 7 -186 18 -257 20 -27 0 -48 3 -48 6 0 5 -629 8 -634 3z"/>
<path d="M9779 25745 c-2 -2 -56 -6 -119 -9 -111 -7 -143 -9 -240 -20 -39 -5
-89 -13 -125 -21 -5 -2 -28 -6 -50 -10 -22 -3 -44 -8 -50 -9 -5 -2 -28 -7 -50
-11 -55 -12 -54 -12 -60 -15 -3 -1 -8 -3 -12 -4 -58 -13 -120 -30 -128 -35 -5
-3 -14 -6 -20 -7 -74 -15 -372 -137 -387 -159 -4 -5 -8 -6 -8 -2 0 4 -26 -7
-57 -24 -32 -18 -78 -43 -103 -57 -25 -14 -79 -48 -120 -76 -41 -28 -77 -51
-80 -51 -3 0 -14 -8 -25 -17 -11 -9 -56 -45 -100 -79 -164 -129 -334 -300
-470 -474 -40 -51 -185 -263 -185 -271 0 -3 -9 -18 -19 -32 -10 -15 -33 -54
-50 -87 -18 -33 -36 -67 -41 -75 -20 -30 -160 -341 -160 -354 0 -2 -5 -17 -12
-33 -6 -15 -13 -35 -14 -43 -1 -8 -9 -33 -18 -55 -15 -38 -63 -206 -71 -250
-10 -53 -16 -81 -21 -95 -4 -8 -8 -28 -9 -45 -2 -16 -6 -41 -9 -55 -6 -29 -15
-91 -22 -140 -2 -19 -7 -53 -10 -75 -37 -253 -36 -794 1 -1095 14 -109 51
-320 65 -369 5 -18 9 -36 8 -40 0 -3 1 -8 2 -11 1 -3 3 -12 5 -20 6 -22 16
-64 19 -75 3 -14 34 -121 48 -170 6 -22 14 -44 18 -50 3 -5 17 -43 30 -82 13
-40 28 -73 32 -73 4 0 8 -7 8 -15 0 -37 186 -391 227 -433 7 -8 11 -18 8 -23
-4 -5 -3 -9 2 -9 4 0 26 -27 48 -60 22 -33 43 -60 48 -60 4 0 7 -6 7 -14 0 -8
4 -16 8 -18 4 -1 23 -23 42 -48 19 -24 44 -54 55 -66 11 -11 36 -39 56 -60 60
-65 164 -160 245 -224 87 -69 119 -92 203 -147 53 -34 101 -66 106 -70 44 -35
360 -187 475 -230 36 -13 74 -28 85 -33 22 -9 115 -40 127 -41 4 0 22 -5 40
-10 55 -18 171 -48 177 -47 3 1 13 -2 21 -5 8 -4 29 -8 45 -11 17 -2 31 -5 33
-6 3 -4 13 -5 72 -14 30 -4 62 -9 70 -11 121 -23 370 -47 507 -49 51 0 93 -3
93 -6 0 -7 55 -4 68 4 6 3 13 2 17 -3 3 -7 15 -7 29 -1 13 5 26 6 29 3 9 -9
68 -10 73 -1 3 4 13 4 23 -2 10 -5 21 -7 24 -4 3 3 59 7 124 9 154 5 300 16
408 30 17 2 71 9 120 15 50 6 104 13 120 17 17 3 48 7 70 8 22 2 40 4 40 5 0
2 20 5 85 16 25 4 50 9 55 10 20 6 51 12 95 19 25 4 54 9 65 11 11 3 35 7 54
10 18 3 43 8 55 11 11 2 30 6 41 8 11 2 31 7 45 10 25 6 49 11 93 19 12 3 67
18 122 34 54 17 102 29 106 26 4 -2 9 1 11 7 2 6 13 12 23 13 11 2 28 5 38 9
37 15 52 20 57 21 35 7 181 76 176 84 -2 4 -7 30 -10 57 -4 28 -9 59 -12 70
-2 11 -6 36 -9 55 -2 19 -11 78 -20 130 -9 52 -18 107 -20 122 -2 15 -6 35 -9
45 -2 10 -7 38 -10 63 -3 25 -9 56 -12 70 -3 14 -6 39 -8 55 -2 17 -6 39 -9
50 -3 11 -8 40 -11 65 -3 25 -11 72 -17 105 -6 33 -12 74 -14 90 -2 17 -4 30
-5 30 -1 0 -3 16 -6 35 -5 41 -12 75 -14 75 -1 0 -3 11 -5 25 -2 14 -6 43 -9
65 -9 55 -15 94 -20 134 -3 18 -7 35 -9 37 -2 2 -39 -10 -83 -27 -69 -27 -189
-67 -219 -74 -5 -1 -37 -10 -70 -20 -33 -11 -62 -19 -65 -20 -3 -1 -18 -4 -35
-8 -16 -4 -41 -9 -54 -12 -13 -2 -38 -9 -55 -14 -32 -10 -209 -45 -281 -56
-22 -3 -56 -8 -75 -11 -19 -3 -51 -7 -70 -8 -19 -2 -57 -6 -85 -10 -189 -22
-286 -28 -525 -29 -192 -1 -378 7 -420 18 -8 2 -37 7 -65 11 -95 13 -147 22
-190 34 -16 5 -57 17 -90 26 -131 37 -355 137 -377 168 -4 6 -8 7 -8 3 0 -7
-82 45 -100 63 -3 3 -21 17 -40 31 -128 96 -270 276 -338 429 -34 76 -85 246
-81 267 1 4 -1 16 -6 26 -4 10 -5 21 -2 24 4 3 2 14 -4 24 -7 14 -6 19 3 20 7
1 882 2 1945 3 1062 0 1934 4 1938 8 4 3 8 37 11 75 2 37 7 91 9 118 23 241
23 691 0 920 -3 28 -7 73 -10 100 -3 28 -7 61 -9 75 -2 14 -7 50 -11 80 -14
114 -19 146 -29 178 -3 9 -8 33 -10 52 -8 53 -14 82 -42 183 -14 50 -27 102
-30 114 -2 13 -25 80 -50 150 -25 71 -46 133 -47 139 -2 7 -9 19 -16 28 -7 9
-10 16 -7 16 4 0 0 12 -8 28 -8 15 -29 59 -48 97 -18 39 -36 72 -40 73 -5 2
-8 12 -8 23 0 10 -4 19 -10 19 -5 0 -10 6 -10 13 0 16 -155 254 -187 286 -12
13 -23 27 -23 31 0 21 -364 390 -385 390 -2 0 -40 27 -83 60 -44 33 -85 60
-91 60 -6 0 -11 4 -11 8 0 5 -12 15 -27 22 -16 8 -35 20 -43 27 -24 19 -291
153 -306 153 -8 0 -14 5 -14 12 0 6 -3 8 -7 5 -3 -4 -12 -2 -20 4 -7 6 -13 8
-13 5 0 -4 -10 -1 -22 6 -13 6 -27 13 -33 14 -5 1 -47 16 -92 32 -46 17 -83
29 -83 27 0 -2 -21 4 -47 12 -40 12 -98 26 -193 47 -8 2 -35 7 -60 11 -25 4
-54 9 -65 12 -11 2 -40 6 -65 8 -25 2 -45 5 -45 5 0 3 -55 9 -115 14 -30 3
-55 5 -55 6 0 1 -51 3 -114 5 -63 2 -120 6 -126 9 -7 2 -18 0 -25 -4 -7 -5
-23 -4 -36 0 -12 5 -24 7 -25 5z m186 -1429 c78 -7 98 -10 170 -28 28 -7 53
-11 58 -10 4 1 7 -3 7 -9 0 -5 5 -7 10 -4 17 10 220 -98 298 -160 45 -34 145
-140 189 -200 84 -111 161 -288 190 -435 2 -14 7 -32 10 -40 4 -8 6 -18 5 -21
0 -3 4 -23 9 -45 5 -21 12 -70 15 -109 3 -38 7 -75 9 -82 3 -9 -260 -12 -1131
-12 l-1136 0 7 42 c11 72 12 80 30 152 9 39 18 77 20 85 2 8 4 15 5 15 2 0 7
20 15 60 3 16 11 35 17 42 6 7 7 13 2 13 -4 0 -3 5 4 12 7 7 12 18 12 26 0 17
89 196 121 242 49 72 85 116 130 160 58 57 119 110 127 110 3 0 13 6 21 14 38
33 242 130 294 140 15 2 30 7 35 10 5 3 22 8 38 10 16 3 40 8 54 12 14 3 60 7
104 9 43 2 80 6 82 8 4 4 87 1 179 -7z"/>
<path d="M22778 25745 c-2 -2 -80 -6 -173 -9 -94 -3 -186 -8 -205 -11 -19 -3
-55 -8 -80 -11 -60 -7 -95 -12 -95 -14 0 -1 -12 -3 -28 -5 -15 -2 -53 -9 -85
-16 -31 -7 -61 -13 -67 -14 -5 -1 -12 -3 -15 -4 -9 -4 -40 -12 -72 -18 -18 -3
-39 -10 -46 -16 -7 -5 -15 -7 -19 -4 -3 3 -18 0 -34 -9 -16 -8 -30 -14 -31
-13 -8 6 -225 -74 -318 -117 -228 -105 -454 -249 -624 -396 -27 -24 -58 -51
-70 -61 -77 -67 -209 -204 -276 -287 -25 -30 -47 -57 -50 -60 -3 -3 -22 -27
-41 -55 -18 -27 -37 -52 -40 -55 -11 -10 -121 -185 -176 -280 -65 -113 -173
-340 -173 -364 0 -9 -5 -16 -12 -16 -6 0 -8 -3 -5 -7 4 -3 3 -11 -2 -17 -11
-15 -81 -223 -88 -261 -3 -16 -8 -32 -11 -35 -4 -3 -8 -9 -9 -15 0 -5 -13 -64
-28 -129 -14 -66 -28 -133 -31 -150 -2 -17 -6 -42 -9 -56 -3 -14 -7 -43 -10
-65 -3 -22 -8 -56 -11 -75 -2 -19 -7 -53 -9 -75 -2 -22 -6 -60 -9 -85 -24
-229 -24 -643 0 -845 2 -22 6 -62 9 -90 3 -27 7 -68 10 -90 3 -22 7 -53 9 -70
2 -16 6 -41 9 -55 8 -30 18 -86 22 -120 1 -14 8 -43 13 -65 6 -22 13 -51 16
-65 3 -14 12 -52 21 -85 17 -60 24 -89 29 -112 1 -7 5 -16 9 -19 4 -4 7 -14 7
-21 0 -8 18 -62 41 -121 22 -59 42 -114 44 -122 23 -91 320 -602 339 -583 3 4
6 0 6 -8 0 -8 13 -28 28 -46 15 -17 38 -46 52 -64 59 -78 294 -301 356 -339
13 -8 24 -18 24 -22 0 -5 5 -8 10 -8 6 0 23 -12 38 -26 15 -14 41 -32 57 -41
17 -9 32 -19 35 -22 5 -7 123 -79 202 -125 82 -46 247 -126 262 -126 7 0 19
-7 26 -15 7 -9 15 -13 18 -11 2 3 19 -2 36 -11 17 -9 36 -18 41 -19 6 -1 47
-16 93 -33 45 -17 82 -28 82 -25 0 2 14 -2 30 -11 17 -9 30 -13 30 -11 0 3 19
-1 42 -10 48 -17 241 -63 288 -69 8 -1 42 -7 75 -13 33 -7 76 -14 95 -16 19
-3 51 -7 70 -10 19 -3 60 -7 90 -10 30 -3 82 -8 115 -12 33 -3 105 -7 160 -9
55 -2 100 -4 100 -5 0 -7 47 -5 51 2 3 4 10 5 17 1 16 -10 57 -10 57 0 0 4 6
5 13 0 16 -10 37 -10 65 -1 13 4 21 5 18 0 -2 -4 12 -6 32 -5 21 2 89 5 152 8
191 9 339 20 390 30 8 2 49 6 90 10 41 4 84 9 95 11 11 2 40 7 65 10 25 3 56
8 70 10 14 3 39 7 55 9 44 7 87 14 115 20 54 11 193 37 218 40 15 2 27 4 27 5
0 1 27 6 75 13 8 2 21 6 28 10 6 5 12 6 12 3 0 -2 15 0 33 5 17 5 43 12 57 14
43 7 66 13 113 29 25 8 56 17 69 20 21 4 72 20 108 33 8 3 20 7 25 8 24 6 176
69 205 84 16 9 17 28 6 96 -3 22 -8 55 -11 73 -2 17 -7 44 -10 60 -8 37 -15
81 -20 117 -2 17 -6 46 -10 65 -4 19 -8 44 -10 55 -5 39 -17 120 -20 142 -2
13 -6 26 -8 30 -3 5 -7 31 -11 58 -3 28 -8 61 -11 75 -6 25 -12 66 -20 125 -2
17 -8 55 -14 85 -9 49 -14 79 -26 155 -30 185 -43 256 -48 262 -2 2 -25 -5
-50 -16 -103 -44 -393 -133 -507 -155 -23 -5 -41 -9 -90 -21 -43 -11 -124 -26
-165 -31 -11 -1 -33 -5 -49 -9 -15 -3 -47 -8 -70 -10 -22 -2 -50 -6 -61 -8
-11 -3 -51 -8 -90 -11 -38 -4 -88 -9 -110 -12 -22 -2 -84 -6 -138 -9 -53 -2
-101 -6 -105 -8 -9 -5 -435 0 -492 6 -118 13 -161 19 -240 33 -47 9 -90 17
-97 18 -7 1 -15 5 -19 8 -3 4 -12 4 -20 1 -8 -3 -14 0 -14 7 0 6 -5 8 -11 4
-6 -3 -21 -2 -32 4 -12 5 -42 16 -67 23 -25 7 -49 15 -55 19 -5 4 -29 12 -52
20 -24 7 -43 16 -43 19 0 4 -8 7 -17 8 -22 2 -181 89 -220 121 -15 12 -31 22
-37 22 -5 0 -19 11 -32 25 -13 14 -26 25 -30 25 -15 0 -149 139 -202 209 -68
91 -142 233 -166 321 -10 36 -22 76 -27 90 -15 45 -29 154 -20 160 5 3 880 5
1945 5 1065 0 1937 2 1937 5 4 16 9 65 13 140 2 47 5 85 6 85 17 0 16 854 -1
895 -1 3 -3 19 -4 35 -1 17 -5 53 -8 80 -4 28 -9 73 -12 100 -3 28 -8 61 -11
75 -2 14 -6 36 -8 50 -3 14 -10 52 -15 85 -6 33 -14 71 -17 85 -3 14 -7 34 -9
45 -3 23 -22 95 -36 142 -6 18 -12 40 -14 50 -2 10 -8 32 -15 48 -6 17 -11 30
-10 30 4 0 -22 90 -28 100 -4 6 -7 12 -8 15 -1 6 -5 16 -47 125 -29 77 -144
315 -156 325 -6 5 -23 34 -62 105 -12 22 -25 42 -29 45 -4 3 -24 30 -45 60
-76 110 -204 252 -321 358 -89 81 -105 95 -154 132 -25 19 -46 38 -48 42 -2 5
-9 8 -16 8 -7 0 -21 9 -31 20 -10 11 -24 20 -32 20 -7 0 -13 4 -13 9 0 5 -13
14 -30 21 -16 7 -30 16 -30 21 0 5 -6 9 -14 9 -8 0 -16 3 -18 8 -6 13 -258
141 -323 163 -22 8 -42 16 -45 19 -5 6 -234 83 -255 86 -5 1 -30 7 -55 14 -25
7 -54 14 -65 16 -11 2 -65 13 -120 24 -94 19 -154 28 -235 35 -19 2 -35 4 -35
5 0 3 -80 9 -165 13 -41 2 -80 6 -86 9 -5 4 -16 3 -24 -2 -8 -5 -21 -5 -31 0
-9 5 -18 7 -21 5z m-105 -1428 c10 16 228 2 352 -22 51 -10 148 -46 193 -71
23 -14 42 -22 42 -19 0 3 6 1 13 -5 6 -6 35 -25 63 -43 64 -41 128 -93 168
-136 17 -19 38 -42 46 -51 107 -114 201 -316 250 -535 7 -27 14 -59 16 -70 6
-26 16 -120 18 -165 l1 -35 -1132 -2 c-623 -2 -1133 -1 -1133 2 0 2 4 26 10
52 5 26 12 62 15 78 3 17 7 35 9 40 1 6 6 28 11 50 4 22 12 46 18 53 5 6 7 12
4 12 -3 0 -1 15 4 33 6 17 12 39 14 47 13 60 117 281 140 300 8 7 15 17 15 22
0 9 34 59 60 88 47 53 102 109 136 138 35 30 194 132 207 132 2 0 25 9 51 20
25 12 49 21 53 21 5 0 13 5 20 11 7 5 22 11 35 13 13 2 50 10 83 18 33 8 87
18 120 22 33 4 62 8 64 11 2 2 10 -1 17 -7 7 -5 14 -6 17 -2z"/>
<path d="M44539 25746 c-2 -2 -80 -6 -174 -10 -156 -6 -206 -9 -290 -21 -16
-2 -46 -6 -65 -8 -33 -5 -71 -11 -130 -22 -25 -4 -55 -10 -100 -20 -14 -4 -35
-8 -47 -11 -12 -2 -33 -8 -45 -13 -13 -5 -27 -9 -33 -10 -53 -8 -254 -75 -355
-118 -105 -45 -290 -138 -290 -145 0 -4 -6 -8 -13 -8 -17 0 -268 -161 -305
-195 -15 -14 -32 -25 -39 -25 -7 0 -13 -4 -13 -8 0 -4 -21 -24 -47 -44 -27
-20 -68 -56 -93 -79 -93 -86 -160 -151 -160 -153 0 -2 -19 -24 -42 -49 -24
-25 -54 -59 -68 -77 -14 -17 -35 -44 -48 -58 -12 -15 -34 -45 -49 -67 -15 -22
-32 -45 -37 -50 -6 -6 -16 -19 -23 -30 -7 -11 -41 -65 -75 -120 -35 -55 -61
-102 -60 -104 2 -2 0 -7 -6 -10 -20 -13 -135 -258 -222 -476 -5 -11 -18 -51
-30 -90 -12 -38 -24 -77 -27 -85 -8 -20 -8 -19 -28 -105 -19 -83 -54 -246 -59
-275 -3 -19 -8 -46 -10 -60 -6 -33 -15 -102 -22 -170 -3 -30 -8 -68 -11 -85
-7 -38 -7 -692 0 -765 3 -30 8 -73 11 -95 3 -22 8 -65 12 -95 12 -101 35 -227
60 -330 9 -36 18 -76 21 -89 2 -13 9 -34 15 -45 6 -12 10 -23 9 -26 -3 -6 18
-89 29 -115 5 -11 15 -40 21 -65 7 -25 16 -50 21 -56 5 -7 11 -22 13 -33 5
-25 135 -324 144 -331 3 -3 14 -23 24 -45 17 -36 120 -215 140 -240 4 -5 24
-35 44 -65 20 -30 40 -59 45 -65 4 -5 38 -48 76 -95 124 -157 215 -250 382
-391 175 -147 445 -310 670 -404 36 -15 74 -31 85 -36 62 -26 95 -37 95 -33 0
3 10 -1 23 -8 12 -7 27 -12 32 -13 6 0 30 -7 55 -14 25 -7 46 -13 47 -12 2 0
21 -6 43 -14 22 -8 40 -12 40 -8 0 3 6 0 13 -6 8 -6 17 -8 20 -5 3 3 12 2 19
-2 7 -5 20 -9 28 -9 8 -1 29 -4 45 -8 52 -13 79 -18 105 -21 40 -5 123 -17
150 -22 40 -7 189 -18 252 -18 32 -1 58 -4 58 -8 0 -4 10 -4 23 1 12 5 31 5
42 1 11 -4 32 -4 48 1 15 4 27 5 27 1 0 -4 18 -7 40 -7 22 0 40 2 40 5 0 3 35
5 78 6 83 1 247 12 272 19 8 2 35 6 60 9 47 6 89 13 130 21 14 3 36 8 50 10
27 5 69 15 85 19 6 2 27 6 48 11 20 4 40 11 43 16 3 5 9 7 14 4 5 -3 51 9 102
26 51 17 98 32 103 33 6 2 23 8 38 14 15 7 39 15 52 18 14 3 25 10 25 15 0 5
6 9 14 9 7 0 35 10 62 22 27 12 55 23 62 24 8 1 21 9 30 17 10 7 33 20 52 27
19 8 55 27 79 42 25 15 49 28 53 28 5 0 21 8 36 19 15 10 61 40 102 67 41 26
87 57 101 68 15 12 39 30 54 41 16 11 33 25 39 30 6 6 39 33 73 60 140 111
330 325 464 520 51 74 139 224 188 320 30 59 121 263 119 268 0 1 6 18 14 37
8 19 23 60 32 90 10 30 20 62 23 70 8 19 8 20 33 110 12 41 23 84 25 95 2 11
6 29 9 40 21 92 28 123 32 145 2 14 9 48 14 75 6 28 12 66 14 85 3 19 5 35 6
35 1 0 3 16 6 35 2 19 6 53 9 75 4 41 12 128 20 245 8 104 7 445 0 560 -4 58
-9 123 -10 145 -2 22 -4 40 -5 40 -1 0 -4 23 -6 50 -2 28 -11 91 -20 140 -9
50 -18 104 -20 120 -3 17 -9 46 -14 65 -5 19 -12 50 -15 69 -3 19 -11 43 -17
55 -6 11 -10 22 -9 24 6 6 -38 169 -59 217 -5 11 -16 40 -24 65 -21 67 -76
203 -87 216 -5 6 -6 14 -2 17 3 4 1 7 -5 7 -7 0 -11 3 -10 8 1 4 -4 21 -11 37
-7 17 -12 32 -11 34 1 2 -2 7 -7 10 -4 3 -17 24 -28 46 -58 120 -216 375 -237
383 -4 2 -8 9 -8 16 0 6 -12 25 -27 42 -16 17 -44 51 -63 75 -94 120 -267 292
-394 391 -34 27 -70 55 -81 64 -44 35 -165 114 -174 114 -5 0 -11 4 -13 8 -3
9 -72 49 -185 108 -34 17 -67 36 -75 40 -7 5 -18 9 -24 10 -6 1 -39 16 -75 34
-35 17 -65 31 -67 31 -1 -1 -18 6 -38 14 -20 8 -42 15 -50 15 -7 0 -16 5 -19
10 -3 6 -17 10 -30 10 -13 0 -26 4 -29 9 -3 4 -20 12 -38 16 -36 8 -45 11 -53
15 -3 1 -8 3 -12 5 -5 1 -20 5 -34 9 -14 4 -32 9 -40 10 -8 2 -21 6 -29 9 -15
5 -90 23 -140 32 -41 8 -144 27 -165 30 -66 12 -207 25 -303 29 -40 2 -75 6
-78 9 -3 3 -16 2 -29 -3 -13 -5 -26 -5 -32 1 -5 5 -11 8 -14 5z m131 -1491
c30 -3 62 -8 70 -12 8 -3 24 -7 35 -9 55 -8 105 -25 190 -64 28 -13 52 -24 55
-25 12 -2 108 -62 135 -85 197 -164 352 -399 440 -665 15 -46 55 -187 60 -215
4 -22 17 -107 21 -135 1 -11 3 -20 4 -20 2 0 4 -16 5 -35 2 -19 6 -51 10 -70
14 -77 21 -459 10 -600 -15 -198 -33 -317 -71 -460 -14 -52 -27 -100 -28 -107
-1 -7 -5 -16 -9 -19 -4 -4 -7 -14 -7 -21 0 -28 -112 -290 -129 -303 -4 -3 -18
-26 -31 -52 -14 -27 -28 -48 -32 -48 -5 0 -8 -5 -8 -11 0 -16 -152 -199 -165
-199 -3 0 -16 -11 -28 -23 -40 -43 -168 -123 -257 -160 -34 -15 -113 -41 -117
-39 -2 0 -26 -6 -55 -14 -79 -21 -160 -28 -288 -27 -131 1 -189 7 -266 27 -30
8 -54 12 -54 9 0 -3 -6 -1 -13 5 -7 6 -24 13 -38 15 -26 5 -111 40 -139 57 -8
5 -33 19 -55 30 -74 40 -209 155 -265 226 -66 84 -80 103 -80 108 0 4 -5 12
-11 19 -11 13 -52 79 -54 87 -1 3 -17 37 -36 75 -20 39 -41 86 -48 105 -7 19
-17 44 -21 55 -45 107 -120 442 -115 513 1 12 -1 22 -4 22 -4 0 -7 15 -7 33
-1 17 -4 82 -7 142 -6 104 -10 234 -8 245 2 6 13 251 15 302 1 21 5 38 9 38 5
0 6 3 4 8 -5 7 6 83 28 207 12 63 68 251 96 319 16 39 29 76 29 83 0 6 3 13 8
15 4 2 18 26 32 53 31 63 137 225 161 246 11 9 19 19 19 23 0 15 133 132 211
185 111 76 230 124 384 157 11 2 49 7 85 10 36 4 66 7 67 8 5 4 210 -3 263 -9z"/>
<path d="M37237 25714 c-1 -2 -56 -5 -122 -9 -190 -10 -348 -21 -435 -31 -30
-4 -66 -8 -80 -9 -74 -7 -167 -18 -185 -21 -11 -2 -40 -7 -65 -10 -25 -3 -56
-8 -70 -10 -14 -2 -43 -6 -65 -9 -22 -3 -51 -7 -65 -10 -14 -3 -38 -7 -55 -10
-76 -11 -102 -15 -130 -21 -16 -3 -46 -7 -65 -9 -19 -2 -35 -4 -35 -5 0 -3
-27 -7 -144 -26 -18 -3 -43 -8 -55 -10 -11 -3 -32 -7 -46 -10 -14 -2 -36 -7
-50 -9 -14 -3 -38 -8 -55 -11 -16 -3 -65 -14 -110 -24 -45 -10 -92 -21 -105
-24 -53 -11 -236 -57 -250 -63 -8 -3 -19 -7 -25 -7 -7 -1 -10 -985 -11 -2929
-1 -1610 1 -2925 4 -2923 2 3 13 1 23 -4 11 -7 20 -7 24 0 4 6 15 6 30 0 15
-6 25 -6 25 0 0 5 12 5 30 0 17 -5 30 -6 30 -2 0 4 14 7 30 7 17 0 30 -2 30
-5 0 -3 16 -5 35 -5 19 0 35 3 35 7 0 4 11 3 25 -2 15 -6 25 -6 25 0 0 5 12 5
30 0 19 -5 30 -5 30 1 0 6 5 7 10 4 15 -9 104 -10 117 -2 7 4 14 3 18 -3 4 -6
12 -7 24 -1 10 6 23 6 31 1 8 -5 21 -5 30 0 9 5 23 4 32 -1 10 -6 19 -6 23 0
3 6 15 7 29 1 12 -4 29 -4 36 0 8 5 18 6 23 3 15 -9 50 -10 75 -1 12 4 22 3
22 -2 0 -5 12 -5 30 0 18 5 30 5 30 0 0 -6 10 -6 25 0 16 6 25 6 25 0 0 -6 9
-6 25 0 15 6 25 6 25 0 0 -5 12 -5 30 0 18 5 30 5 30 0 0 -6 10 -6 25 0 15 6
26 6 30 0 4 -6 13 -7 24 -1 10 6 23 6 31 1 8 -5 21 -5 31 1 11 6 20 5 24 -1 4
-7 12 -7 25 0 13 7 21 7 25 0 4 -6 13 -7 24 -1 10 6 23 6 31 1 8 -5 21 -5 31
1 11 6 20 5 24 -1 4 -7 12 -7 24 0 10 5 21 7 23 5 9 -9 98 -11 98 -2 0 4 4 5
10 2 9 -6 65 -9 117 -6 l23 1 0 2332 c0 1319 4 2336 9 2341 5 5 28 10 52 13
24 2 62 6 84 8 65 8 236 20 287 20 27 1 48 3 48 6 0 8 34 9 245 10 99 1 198
-1 220 -4 82 -10 198 -33 225 -43 8 -4 17 -7 20 -7 3 -1 37 -14 75 -30 98 -41
194 -111 265 -192 37 -42 106 -162 115 -199 2 -5 13 -35 25 -65 13 -30 27 -72
31 -92 5 -21 14 -57 19 -80 6 -24 13 -59 16 -78 3 -19 8 -42 11 -50 3 -8 7
-28 8 -45 1 -16 5 -43 8 -60 6 -28 9 -63 24 -250 3 -38 7 -844 8 -1790 2 -946
4 -1725 4 -1731 1 -14 49 -25 57 -13 2 5 16 4 29 -1 16 -6 25 -6 25 0 0 6 9 6
25 0 15 -6 27 -6 30 0 3 6 15 6 30 0 15 -6 25 -6 25 0 0 5 12 5 29 0 15 -4 34
-4 42 0 7 5 21 4 30 -1 11 -6 20 -5 24 1 4 6 13 7 23 1 11 -6 24 -6 34 0 11 6
19 6 23 -1 4 -6 13 -7 24 -1 9 5 23 6 30 1 8 -4 27 -4 42 0 17 5 29 5 29 0 0
-6 10 -6 25 0 15 6 27 6 30 0 3 -6 15 -6 30 0 16 6 25 6 25 0 0 -6 9 -6 24 0
13 5 27 6 30 3 9 -9 176 -9 176 0 0 5 4 5 10 2 13 -8 108 -11 116 -3 3 4 17 3
30 -2 14 -6 24 -6 24 0 0 5 12 5 30 0 18 -5 30 -5 30 0 0 6 10 6 25 0 15 -6
25 -6 25 0 0 5 12 5 29 0 15 -4 34 -4 42 0 7 5 21 4 30 -1 11 -6 20 -5 24 1 4
6 13 7 23 1 11 -6 24 -6 34 0 11 6 19 6 23 -1 4 -6 13 -7 24 -1 9 5 23 6 31 1
7 -4 24 -4 36 0 14 6 26 5 29 0 4 -6 13 -7 24 -1 10 6 23 6 31 1 8 -5 21 -5
31 1 11 6 20 5 24 -1 3 -6 15 -6 30 0 15 6 27 6 30 0 4 -6 13 -5 23 1 16 10
17 122 17 1752 -1 958 -4 1747 -8 1754 -4 6 -4 14 1 16 4 3 6 23 5 44 -1 21
-5 94 -8 163 -3 69 -8 136 -10 150 -3 13 -7 56 -10 95 -4 38 -8 84 -11 100 -2
17 -6 46 -9 65 -2 19 -6 49 -9 65 -3 17 -8 48 -12 70 -3 22 -7 45 -9 50 -1 6
-5 28 -9 50 -5 22 -14 65 -21 95 -8 30 -16 66 -19 80 -3 14 -13 50 -22 80 -9
30 -22 75 -29 100 -7 25 -19 59 -26 75 -7 17 -13 32 -14 35 -1 3 -8 19 -15 35
-7 17 -14 36 -16 43 -5 24 -126 257 -150 290 -14 17 -22 32 -19 32 5 0 -3 12
-32 45 -7 7 -13 16 -13 20 0 10 -143 185 -188 230 -61 62 -113 108 -162 145
-25 19 -47 37 -50 40 -16 16 -100 70 -109 70 -6 0 -11 3 -11 8 0 9 0 9 -181
98 -186 93 -427 181 -569 208 -14 3 -36 8 -50 11 -14 3 -36 8 -50 11 -14 2
-36 7 -50 9 -36 8 -69 13 -124 20 -27 3 -52 8 -55 10 -3 1 -44 6 -91 10 -47 3
-105 8 -130 11 -44 5 -719 12 -723 8z"/>
<path d="M29025 25702 c-2 -2 -56 -5 -122 -8 -140 -5 -177 -8 -363 -30 -30 -4
-68 -8 -85 -10 -41 -4 -109 -14 -175 -24 -30 -6 -73 -12 -95 -16 -22 -3 -42
-7 -45 -9 -3 -2 -26 -6 -50 -10 -25 -4 -74 -14 -110 -22 -36 -9 -74 -17 -85
-19 -11 -2 -38 -8 -60 -13 -22 -5 -51 -12 -65 -15 -14 -3 -45 -10 -70 -17 -25
-6 -52 -12 -60 -14 -8 -2 -51 -13 -95 -25 -44 -11 -89 -23 -100 -24 -11 -2
-20 -4 -20 -5 0 -2 -7 -4 -15 -6 -8 -1 -80 -22 -160 -45 -80 -23 -163 -46
-184 -51 -22 -6 -44 -13 -50 -17 -6 -3 -15 -7 -21 -8 -16 -3 -139 -46 -157
-55 -14 -7 -16 -26 -14 -126 1 -65 -2 -124 -7 -130 -5 -7 -6 -13 -1 -13 11 0
11 -210 1 -227 -5 -7 -5 -13 0 -13 10 0 10 -291 0 -307 -5 -7 -5 -13 0 -13 10
0 10 -211 0 -227 -5 -7 -5 -13 0 -13 10 0 10 -211 0 -227 -5 -7 -5 -13 0 -13
10 0 10 -211 0 -227 -5 -7 -5 -13 0 -13 10 0 10 -531 -1 -548 -4 -6 -4 -12 1
-12 10 0 10 -211 0 -227 -5 -7 -5 -13 0 -13 10 0 10 -211 0 -227 -5 -7 -5 -13
0 -13 10 0 10 -211 0 -227 -5 -7 -5 -13 0 -13 10 0 10 -211 0 -227 -5 -7 -5
-13 0 -13 10 0 10 -211 0 -227 -5 -7 -5 -13 0 -13 10 0 10 -211 0 -227 -5 -7
-5 -13 0 -13 10 0 10 -211 0 -227 -5 -7 -5 -13 0 -13 10 0 10 -211 0 -227 -5
-7 -5 -13 0 -13 10 0 10 -211 0 -227 -5 -7 -5 -13 0 -13 10 0 10 -211 0 -227
-5 -7 -5 -13 0 -13 10 0 10 -211 0 -227 -5 -7 -5 -13 0 -13 10 0 10 -211 0
-227 -5 -7 -5 -13 0 -13 10 0 10 -211 0 -227 -5 -7 -5 -13 0 -13 10 0 10 -211
0 -227 -5 -7 -5 -13 0 -13 4 0 7 -61 7 -135 -1 -74 2 -133 5 -130 4 2 13 0 20
-5 8 -4 27 -4 42 0 16 5 29 6 29 2 0 -4 16 -7 35 -7 19 0 35 3 35 7 0 4 11 3
25 -2 15 -6 25 -6 25 0 0 5 12 5 30 0 19 -5 30 -5 30 1 0 6 5 7 10 4 15 -9
104 -10 117 -2 7 4 14 3 18 -3 4 -6 12 -7 24 -1 10 6 23 6 31 1 8 -5 21 -5 30
0 9 5 23 4 32 -1 10 -6 19 -6 23 0 3 6 15 7 28 2 12 -5 32 -5 44 0 13 5 25 4
28 -1 4 -7 13 -6 25 0 12 6 21 7 25 0 3 -6 15 -6 30 0 15 6 27 6 30 0 4 -7 13
-7 24 0 10 5 21 6 25 3 8 -8 212 -7 225 2 6 3 11 3 11 -2 0 -4 16 -8 35 -8 19
0 35 3 35 7 0 4 11 3 25 -2 15 -6 25 -6 25 0 0 5 12 5 30 0 19 -5 30 -5 30 1
0 6 5 7 10 4 14 -9 108 -10 116 -2 4 3 15 2 25 -3 11 -7 20 -7 24 0 3 6 15 6
30 0 15 -6 27 -6 30 0 4 6 13 7 23 1 10 -5 24 -6 33 -1 8 5 21 5 28 0 8 -4 27
-4 42 0 17 5 29 5 29 0 0 -6 9 -6 23 -1 14 5 30 5 40 -1 12 -6 19 -5 22 4 3 7
6 1052 8 2322 l2 2310 27 7 c15 4 45 10 65 13 21 3 52 8 68 12 17 3 46 7 65 9
19 2 35 4 35 5 0 1 16 3 35 5 19 1 52 6 74 9 21 3 64 9 95 12 31 3 74 8 96 10
22 3 49 4 60 4 11 -1 25 -1 30 -1 85 6 147 5 151 -1 3 -4 13 -4 23 2 10 5 20
7 23 5 3 -3 45 -7 94 -10 142 -8 264 -24 434 -59 14 -2 39 -7 55 -9 17 -3 64
-12 105 -21 41 -8 86 -17 100 -20 14 -2 32 -7 40 -10 8 -3 31 -8 50 -11 64
-11 115 -22 115 -26 0 -1 9 -3 20 -4 11 -2 33 -6 48 -10 24 -6 28 -5 26 11 -1
11 1 26 4 34 4 8 23 96 43 195 47 238 43 219 60 300 8 38 17 85 20 104 2 18 7
37 10 42 3 5 7 25 10 44 2 19 11 67 20 107 8 40 17 84 20 98 2 14 9 45 14 70
13 55 19 85 26 129 5 32 7 42 19 94 3 12 7 33 10 47 3 14 7 34 9 45 17 74 17
82 4 92 -19 15 -120 49 -173 58 -11 2 -22 4 -25 6 -3 1 -9 3 -15 4 -5 1 -23 4
-40 8 -16 4 -40 10 -52 12 -13 3 -33 7 -45 10 -13 2 -34 7 -48 10 -14 3 -36 8
-50 11 -54 11 -66 14 -105 19 -22 4 -58 8 -80 10 -22 2 -40 4 -40 5 0 1 -9 3
-20 5 -19 4 -43 8 -135 20 -19 2 -51 7 -70 10 -19 3 -66 8 -105 11 -38 2 -86
7 -105 9 -118 13 -219 18 -403 19 -115 1 -210 0 -212 -2z"/>
<path d="M13230 25575 c0 -3 9 -35 21 -71 11 -35 22 -70 23 -77 8 -38 20 -74
29 -84 5 -7 7 -13 3 -13 -3 0 -1 -12 5 -27 6 -16 12 -35 14 -44 2 -9 16 -54
30 -100 15 -46 29 -94 30 -106 2 -12 7 -28 11 -35 5 -7 9 -15 10 -18 3 -20 29
-104 45 -148 10 -28 19 -54 19 -57 0 -3 0 -6 1 -7 0 -2 2 -10 4 -18 2 -8 9
-31 16 -50 17 -50 22 -64 24 -70 0 -3 12 -39 25 -80 13 -41 24 -78 26 -82 1
-5 2 -9 4 -10 1 -2 3 -10 5 -18 3 -17 92 -286 102 -310 3 -8 7 -21 9 -28 3
-16 64 -199 75 -227 7 -18 18 -53 25 -80 2 -5 21 -59 43 -120 22 -60 41 -118
41 -127 0 -10 5 -18 12 -18 6 0 9 -3 6 -6 -5 -4 30 -111 88 -269 8 -22 16 -44
18 -50 2 -5 6 -19 10 -30 5 -11 12 -33 18 -50 5 -16 14 -39 18 -50 5 -11 19
-49 31 -85 12 -36 25 -69 30 -74 5 -6 9 -18 9 -28 0 -10 4 -26 9 -36 9 -16 50
-125 55 -147 2 -5 8 -23 15 -40 7 -16 42 -109 78 -205 36 -96 71 -188 78 -205
17 -39 27 -67 30 -80 2 -6 12 -31 23 -55 10 -25 32 -76 46 -115 15 -38 36 -89
47 -112 10 -24 19 -47 19 -53 0 -6 4 -18 9 -28 11 -20 22 -46 86 -202 26 -63
56 -134 66 -157 10 -24 19 -45 19 -48 0 -2 14 -34 30 -70 17 -36 30 -67 30
-69 0 -2 8 -21 17 -42 9 -22 17 -41 18 -44 1 -3 14 -32 29 -65 16 -33 29 -66
29 -72 0 -7 4 -13 9 -13 4 0 8 -6 8 -14 0 -8 13 -43 29 -78 16 -35 30 -67 31
-73 1 -5 8 -21 15 -35 8 -14 24 -47 36 -75 21 -49 55 -124 107 -235 14 -30 26
-57 27 -60 8 -21 72 -160 126 -274 11 -22 19 -45 19 -52 0 -7 4 -14 8 -16 9
-3 72 -134 72 -148 0 -6 5 -10 10 -10 6 0 10 -7 10 -15 0 -8 9 -30 20 -50 11
-19 17 -35 14 -35 -2 0 0 -6 6 -12 6 -7 48 -87 93 -178 70 -141 86 -165 109
-171 16 -4 30 -3 34 2 3 5 13 5 24 -1 12 -6 21 -7 25 0 3 6 15 6 30 0 15 -6
27 -6 30 0 3 6 15 6 30 0 16 -6 25 -6 25 0 0 6 9 6 23 1 12 -5 32 -5 45 0 13
5 22 5 22 -1 0 -6 9 -6 25 0 15 6 27 6 30 0 3 -6 15 -6 30 0 16 6 25 6 25 0 0
-6 9 -6 24 0 13 5 27 6 30 3 8 -8 176 -9 176 -1 0 3 12 3 27 -1 15 -4 46 -4
70 -1 24 4 43 3 43 -1 0 -5 11 -4 25 1 15 6 27 6 30 0 3 -6 15 -6 30 0 16 6
25 6 25 0 0 -6 9 -6 24 0 13 5 27 6 30 3 9 -9 176 -9 176 0 0 5 5 5 10 2 14
-9 118 -10 126 -2 4 3 15 2 25 -3 11 -7 20 -7 24 0 3 6 15 6 30 0 15 -6 27 -6
30 0 4 7 13 6 26 0 21 -12 11 -29 147 248 29 59 69 139 88 177 19 39 34 76 34
83 0 6 5 12 10 12 6 0 10 4 10 9 0 5 20 51 44 103 24 51 44 95 44 98 0 3 22
48 48 100 25 52 47 100 48 105 1 6 17 42 35 80 18 39 40 88 49 110 8 22 18 42
21 45 4 3 17 32 30 65 13 33 37 86 52 118 15 31 25 57 23 57 -3 0 2 12 10 28
16 29 71 153 81 182 1 3 8 19 15 35 7 17 14 32 14 35 2 6 123 296 136 325 5
11 23 56 41 100 17 44 34 85 39 90 5 6 8 12 9 15 0 5 4 19 16 55 3 11 5 20 3
20 -1 0 7 16 19 35 12 19 21 37 21 40 -2 8 24 84 32 95 5 8 42 100 46 115 0 3
6 19 13 35 7 17 14 35 15 40 1 6 4 15 8 20 3 6 40 100 82 210 42 110 81 209
86 220 6 11 19 45 29 75 25 70 69 190 78 210 3 8 7 17 8 20 8 31 29 87 36 94
5 6 9 16 9 24 0 8 6 28 14 45 15 36 51 137 126 352 29 83 54 157 57 165 30 80
64 178 68 190 27 91 161 476 167 478 5 2 6 7 3 12 -3 5 0 21 7 37 6 15 12 30
13 33 13 50 39 132 48 155 6 17 12 32 13 35 1 7 17 58 59 190 20 63 38 120 39
125 4 19 49 160 57 180 4 11 17 54 29 95 12 41 24 82 27 90 3 8 7 20 8 25 2 6
12 42 25 80 12 39 23 77 25 85 2 8 8 27 14 43 6 15 8 27 5 27 -4 0 -2 6 3 13
6 6 13 27 16 45 l7 32 -878 0 c-482 0 -882 -4 -888 -8 -6 -4 -29 -79 -53 -167
-43 -164 -49 -189 -56 -215 -2 -8 -4 -15 -5 -15 -1 0 -3 -7 -5 -16 -1 -9 -11
-43 -20 -75 -9 -33 -19 -66 -21 -74 -4 -18 -101 -341 -115 -385 -16 -47 -21
-69 -22 -87 -1 -10 -4 -18 -7 -18 -4 0 -7 -6 -7 -12 0 -7 -15 -62 -33 -123
-18 -60 -33 -114 -35 -120 -1 -5 -7 -23 -13 -38 -7 -16 -12 -33 -12 -38 0 -6
-13 -52 -29 -102 -33 -104 -96 -307 -118 -382 -8 -27 -19 -59 -23 -70 -8 -20
-67 -212 -76 -250 -3 -11 -9 -29 -14 -40 -4 -11 -27 -81 -50 -155 -22 -74 -44
-142 -47 -150 -6 -15 -11 -30 -16 -52 -3 -12 -91 -283 -104 -318 -19 -54 -165
-477 -167 -485 -2 -5 -5 -17 -8 -25 -3 -8 -13 -37 -23 -65 -17 -50 -62 -176
-72 -205 -3 -8 -7 -19 -9 -25 -1 -5 -19 -55 -39 -110 -21 -55 -38 -107 -39
-115 -1 -8 -7 -23 -13 -34 -9 -16 -18 1 -57 105 -26 68 -51 133 -56 144 -5 11
-12 31 -16 44 -3 13 -13 40 -22 60 -9 20 -17 41 -18 46 -3 14 -93 267 -101
285 -3 8 -7 17 -8 20 0 3 -28 88 -62 190 -34 102 -98 300 -143 440 -73 228
-100 312 -118 360 -3 8 -6 20 -7 26 -2 5 -22 68 -45 140 -23 71 -44 138 -46
149 -2 11 -8 31 -13 45 -11 26 -50 160 -51 172 -1 4 -7 23 -16 43 -8 19 -14
37 -14 40 0 3 0 6 -1 8 0 1 -2 9 -4 17 -2 8 -15 53 -30 100 -15 47 -33 108
-41 135 -21 70 -20 68 -26 85 -5 13 -50 157 -53 170 -13 49 -19 67 -27 77 -5
6 -8 17 -6 25 1 7 -3 27 -9 43 -11 27 -60 197 -68 235 -2 8 -4 15 -6 15 -1 0
-3 10 -4 22 -1 12 -6 30 -10 40 -4 10 -10 25 -11 33 -2 8 -18 65 -34 125 -17
61 -33 123 -36 138 -3 16 -12 46 -19 68 -8 21 -12 39 -8 39 3 0 0 6 -6 14 -6
8 -11 18 -10 22 1 5 0 11 -1 14 -1 3 -3 12 -5 20 -1 8 -8 35 -15 60 -7 25 -14
52 -15 60 -2 8 -4 16 -5 18 -2 1 -3 5 -4 10 -1 4 -6 22 -10 40 l-8 32 -909 0
c-500 0 -909 -2 -909 -5z"/>
<path d="M31687 25573 c-2 -5 -4 -47 -3 -96 1 -48 -3 -87 -8 -87 -5 0 -5 -5 0
-12 5 -7 8 -71 7 -143 -3 -160 -3 -143 0 -245 1 -47 -1 -91 -6 -97 -5 -7 -6
-13 -1 -13 5 0 8 -80 6 -177 -1 -98 -2 -184 -2 -190 0 -18 0 -280 0 -295 0 -7
1 -95 2 -196 2 -100 -1 -182 -6 -182 -5 0 -4 -6 1 -12 5 -7 7 -65 6 -128 -3
-140 -3 -99 -3 -325 0 -104 0 -197 0 -205 0 -8 1 -53 3 -100 1 -47 -1 -91 -6
-97 -5 -7 -6 -13 -1 -13 11 0 11 -411 0 -428 -4 -7 -3 -12 1 -12 10 0 9 -102
-1 -118 -4 -7 -4 -12 1 -12 4 0 8 -43 8 -95 0 -52 -4 -95 -9 -95 -5 0 -4 -6 1
-12 10 -16 10 -188 0 -206 -5 -6 -5 -12 0 -12 4 0 8 -79 8 -175 0 -96 -4 -175
-8 -175 -4 0 -4 -8 0 -17 5 -10 7 -92 6 -183 -3 -197 -3 -167 0 -270 1 -47 -1
-91 -6 -97 -5 -7 -6 -13 -1 -13 5 0 8 -80 6 -177 -1 -98 -2 -184 -2 -190 0
-18 0 -280 0 -295 0 -7 1 -95 2 -196 2 -100 -1 -182 -6 -182 -5 0 -4 -6 1 -12
5 -7 7 -80 6 -163 -4 -183 -4 -158 0 -235 2 -55 5 -65 20 -64 9 1 17 -1 17 -5
0 -3 16 -6 35 -6 19 0 35 3 35 7 0 4 11 3 25 -2 16 -6 25 -6 25 0 0 6 9 6 25
0 15 -6 27 -6 30 0 3 6 15 6 30 0 16 -6 25 -6 25 0 0 6 9 6 23 1 12 -5 32 -5
44 0 13 5 25 4 28 -1 4 -6 13 -7 24 -1 10 6 23 6 31 1 8 -5 21 -5 31 1 11 6
20 5 24 -1 4 -7 12 -7 24 0 10 5 21 6 25 3 7 -8 106 -7 113 1 3 3 16 1 29 -4
14 -6 26 -6 29 0 3 6 15 6 30 0 16 -6 25 -6 25 0 0 6 9 6 23 1 12 -5 32 -5 44
0 13 5 25 4 28 -1 4 -6 13 -7 24 -1 10 6 23 6 31 1 8 -5 21 -5 31 1 11 6 20 5
24 -1 4 -7 12 -7 24 0 10 5 21 6 25 3 8 -8 102 -7 116 2 6 3 10 2 10 -4 0 -6
11 -6 30 -1 18 5 30 5 30 0 0 -6 10 -6 24 0 13 5 27 6 30 3 9 -9 66 -9 66 -1
0 4 7 5 15 2 21 -8 205 -10 205 -2 0 4 14 3 30 -2 19 -5 30 -5 30 1 0 6 4 7
10 4 5 -3 34 -7 62 -8 l53 -1 0 40 c1 22 4 44 8 50 3 6 4 14 1 17 -9 9 -10
107 -1 107 4 0 5 5 2 10 -5 8 -6 48 -4 200 0 8 0 40 -1 70 0 30 0 79 0 108 1
29 -2 62 -5 72 -4 12 -2 20 5 20 6 0 8 5 5 10 -5 8 -6 48 -4 200 0 8 0 40 -1
70 0 30 0 79 0 108 1 29 -2 62 -5 72 -4 12 -2 20 5 20 6 0 8 5 5 10 -5 8 -6
48 -4 200 0 8 0 40 -1 70 0 30 0 79 0 108 1 29 -2 62 -5 72 -4 12 -2 20 5 20
6 0 8 5 5 10 -5 8 -6 48 -4 200 0 8 0 40 -1 70 0 30 0 79 0 108 1 29 -2 62 -5
72 -4 12 -2 20 5 20 6 0 8 5 5 10 -5 8 -6 48 -4 200 0 8 0 40 -1 70 0 30 0 79
0 108 1 29 -2 62 -5 72 -4 12 -2 20 5 20 6 0 8 5 5 10 -5 8 -6 48 -4 200 0 8
0 40 -1 70 0 30 0 79 0 108 1 29 -2 62 -5 72 -4 12 -2 20 5 20 6 0 8 5 5 10
-5 8 -6 48 -4 200 0 8 0 40 -1 70 0 30 0 79 0 108 1 29 -2 62 -5 72 -4 12 -2
20 5 20 6 0 8 5 5 10 -5 8 -6 48 -4 200 0 8 0 40 -1 70 0 30 0 79 0 108 1 29
-2 62 -5 72 -4 12 -2 20 5 20 6 0 8 5 5 10 -5 8 -6 48 -4 200 0 8 0 40 -1 70
0 30 0 79 0 108 1 29 -2 62 -5 72 -4 12 -2 20 5 20 6 0 8 5 5 10 -5 8 -6 48
-4 200 0 8 0 40 -1 70 0 30 0 79 0 108 1 29 -2 62 -5 72 -4 12 -2 20 5 20 6 0
8 4 5 10 -6 9 -10 125 -5 145 1 6 2 12 1 15 -7 18 -7 70 -1 70 4 0 5 15 1 33
-5 18 -5 41 -1 52 4 11 6 23 4 26 -10 18 -11 59 -1 59 8 0 8 3 0 11 -7 7 -8
21 -3 39 5 16 6 31 3 34 -9 9 -11 66 -3 66 4 0 5 15 1 33 -5 18 -5 41 -1 52 4
11 6 23 4 26 -10 18 -11 59 -1 59 8 0 8 3 0 11 -7 7 -8 21 -3 39 5 16 6 31 3
34 -9 9 -11 66 -3 66 4 0 5 15 0 33 -4 18 -3 43 1 55 5 12 5 22 0 22 -4 0 -6
14 -3 30 l4 30 -855 0 c-471 0 -858 -3 -860 -7z"/>
</g>
</svg>
