<svg width="149" height="29" viewBox="0 0 149 29" fill="none" xmlns="http://www.w3.org/2000/svg">
<path d="M8.684 23.716C9.476 23.716 10.124 23.656 10.628 23.536C11.156 23.392 11.576 23.212 11.888 22.996C12.2 22.756 12.416 22.48 12.536 22.168C12.656 21.856 12.716 21.508 12.716 21.124C12.716 20.308 12.332 19.636 11.564 19.108C10.796 18.556 9.476 17.968 7.604 17.344C6.788 17.056 5.972 16.732 5.156 16.372C4.34 15.988 3.608 15.52 2.96 14.968C2.312 14.392 1.784 13.708 1.376 12.916C0.968 12.1 0.764 11.116 0.764 9.964C0.764 8.812 0.98 7.78 1.412 6.868C1.844 5.932 2.456 5.14 3.248 4.492C4.04 3.844 5 3.352 6.128 3.016C7.256 2.656 8.528 2.476 9.944 2.476C11.624 2.476 13.076 2.656 14.3 3.016C15.524 3.376 16.532 3.772 17.324 4.204L15.704 8.632C15.008 8.272 14.228 7.96 13.364 7.696C12.524 7.408 11.504 7.264 10.304 7.264C8.96 7.264 7.988 7.456 7.388 7.84C6.812 8.2 6.524 8.764 6.524 9.532C6.524 9.988 6.632 10.372 6.848 10.684C7.064 10.996 7.364 11.284 7.748 11.548C8.156 11.788 8.612 12.016 9.116 12.232C9.644 12.424 10.22 12.628 10.844 12.844C12.14 13.324 13.268 13.804 14.228 14.284C15.188 14.74 15.98 15.28 16.604 15.904C17.252 16.528 17.732 17.26 18.044 18.1C18.356 18.94 18.512 19.96 18.512 21.16C18.512 23.488 17.696 25.3 16.064 26.596C14.432 27.868 11.972 28.504 8.684 28.504C7.58 28.504 6.584 28.432 5.696 28.288C4.808 28.168 4.016 28.012 3.32 27.82C2.648 27.628 2.06 27.424 1.556 27.208C1.076 26.992 0.668 26.788 0.332 26.596L1.916 22.132C2.66 22.54 3.572 22.912 4.652 23.248C5.756 23.56 7.1 23.716 8.684 23.716ZM21.5731 18.676C21.5731 16.996 21.8251 15.532 22.3291 14.284C22.8571 13.012 23.5411 11.956 24.3811 11.116C25.2211 10.276 26.1811 9.64 27.2611 9.208C28.3651 8.776 29.4931 8.56 30.6451 8.56C33.3331 8.56 35.4571 9.388 37.0171 11.044C38.5771 12.676 39.3571 15.088 39.3571 18.28C39.3571 18.592 39.3451 18.94 39.3211 19.324C39.2971 19.684 39.2731 20.008 39.2491 20.296L27.0811 20.296C27.2011 21.4 27.7171 22.276 28.6291 22.924C29.5411 23.572 30.7651 23.896 32.3011 23.896C33.2851 23.896 34.2451 23.812 35.1811 23.644C36.1411 23.452 36.9211 23.224 37.5211 22.96L38.2411 27.316C37.9531 27.46 37.5691 27.604 37.0891 27.748C36.6091 27.892 36.0691 28.012 35.4691 28.108C34.8931 28.228 34.2691 28.324 33.5971 28.396C32.9251 28.468 32.2531 28.504 31.5811 28.504C29.8771 28.504 28.3891 28.252 27.1171 27.748C25.8691 27.244 24.8251 26.56 23.9851 25.696C23.1691 24.808 22.5571 23.764 22.1491 22.564C21.7651 21.364 21.5731 20.068 21.5731 18.676ZM34.1731 16.624C34.1491 16.168 34.0651 15.724 33.9211 15.292C33.8011 14.86 33.5971 14.476 33.3091 14.14C33.0451 13.804 32.6971 13.528 32.2651 13.312C31.8571 13.096 31.3411 12.988 30.7171 12.988C30.1171 12.988 29.6011 13.096 29.1691 13.312C28.7371 13.504 28.3771 13.768 28.0891 14.104C27.8011 14.44 27.5731 14.836 27.4051 15.292C27.2611 15.724 27.1531 16.168 27.0811 16.624L34.1731 16.624ZM48.6446 28C47.4206 25.6 46.1726 22.792 44.9006 19.576C43.6526 16.36 42.4646 12.856 41.3366 9.064L47.0246 9.064C47.2646 10 47.5406 11.02 47.8526 12.124C48.1886 13.204 48.5246 14.308 48.8606 15.436C49.2206 16.54 49.5686 17.62 49.9046 18.676C50.2646 19.732 50.6126 20.692 50.9486 21.556C51.2606 20.692 51.5966 19.732 51.9566 18.676C52.3166 17.62 52.6646 16.54 53.0006 15.436C53.3606 14.308 53.6966 13.204 54.0086 12.124C54.3446 11.02 54.6326 10 54.8726 9.064H60.4166C59.2886 12.856 58.0886 16.36 56.8166 19.576C55.5686 22.792 54.3326 25.6 53.1086 28H48.6446ZM61.8973 18.676C61.8973 16.996 62.1493 15.532 62.6533 14.284C63.1813 13.012 63.8653 11.956 64.7053 11.116C65.5453 10.276 66.5053 9.64 67.5853 9.208C68.6893 8.776 69.8173 8.56 70.9693 8.56C73.6573 8.56 75.7813 9.388 77.3413 11.044C78.9013 12.676 79.6813 15.088 79.6813 18.28C79.6813 18.592 79.6693 18.94 79.6453 19.324C79.6213 19.684 79.5973 20.008 79.5733 20.296L67.4053 20.296C67.5253 21.4 68.0413 22.276 68.9533 22.924C69.8653 23.572 71.0893 23.896 72.6253 23.896C73.6093 23.896 74.5693 23.812 75.5053 23.644C76.4653 23.452 77.2453 23.224 77.8453 22.96L78.5653 27.316C78.2773 27.46 77.8933 27.604 77.4133 27.748C76.9333 27.892 76.3933 28.012 75.7933 28.108C75.2173 28.228 74.5933 28.324 73.9213 28.396C73.2493 28.468 72.5773 28.504 71.9053 28.504C70.2013 28.504 68.7133 28.252 67.4413 27.748C66.1933 27.244 65.1493 26.56 64.3093 25.696C63.4933 24.808 62.8813 23.764 62.4733 22.564C62.0893 21.364 61.8973 20.068 61.8973 18.676ZM74.4973 16.624C74.4733 16.168 74.3893 15.724 74.2453 15.292C74.1253 14.86 73.9213 14.476 73.6333 14.14C73.3693 13.804 73.0213 13.528 72.5893 13.312C72.1813 13.096 71.6653 12.988 71.0413 12.988C70.4413 12.988 69.9253 13.096 69.4933 13.312C69.0613 13.504 68.7013 13.768 68.4133 14.104C68.1253 14.44 67.8973 14.836 67.7293 15.292C67.5853 15.724 67.4773 16.168 67.4053 16.624L74.4973 16.624ZM95.2328 13.816C94.7528 13.696 94.1888 13.576 93.5408 13.456C92.8928 13.312 92.1968 13.24 91.4528 13.24C91.1168 13.24 90.7088 13.276 90.2288 13.348C89.7728 13.396 89.4248 13.456 89.1848 13.528V28H83.8208V10.072C84.7808 9.736 85.9088 9.424 87.2048 9.136C88.5248 8.824 89.9888 8.668 91.5968 8.668C91.8848 8.668 92.2328 8.692 92.6408 8.74C93.0488 8.764 93.4568 8.812 93.8648 8.884C94.2728 8.932 94.6808 9.004 95.0888 9.1C95.4968 9.172 95.8448 9.268 96.1328 9.388L95.2328 13.816ZM104.372 28L99.0083 28V9.064H104.372V28ZM104.876 3.592C104.876 4.576 104.552 5.356 103.904 5.932C103.28 6.484 102.536 6.76 101.672 6.76C100.808 6.76 100.052 6.484 99.4043 5.932C98.7803 5.356 98.4683 4.576 98.4683 3.592C98.4683 2.608 98.7803 1.84 99.4043 1.288C100.052 0.711998 100.808 0.423998 101.672 0.423998C102.536 0.423998 103.28 0.711998 103.904 1.288C104.552 1.84 104.876 2.608 104.876 3.592ZM109.415 9.712C110.327 9.448 111.503 9.208 112.943 8.992C114.383 8.752 115.895 8.632 117.479 8.632C119.087 8.632 120.419 8.848 121.475 9.28C122.555 9.688 123.407 10.276 124.031 11.044C124.655 11.812 125.099 12.724 125.363 13.78C125.627 14.836 125.759 16.012 125.759 17.308V28H120.395V17.956C120.395 16.228 120.167 15.004 119.711 14.284C119.255 13.564 118.403 13.204 117.155 13.204C116.771 13.204 116.363 13.228 115.931 13.276C115.499 13.3 115.115 13.336 114.779 13.384V28H109.415V9.712ZM148.326 18.496C148.326 19.984 148.11 21.352 147.678 22.6C147.246 23.824 146.622 24.88 145.806 25.768C144.99 26.632 144.006 27.304 142.854 27.784C141.726 28.264 140.454 28.504 139.038 28.504C137.646 28.504 136.374 28.264 135.222 27.784C134.094 27.304 133.122 26.632 132.306 25.768C131.49 24.88 130.854 23.824 130.398 22.6C129.942 21.352 129.714 19.984 129.714 18.496C129.714 17.008 129.942 15.652 130.398 14.428C130.878 13.204 131.526 12.16 132.342 11.296C133.182 10.432 134.166 9.76 135.294 9.28C136.446 8.8 137.694 8.56 139.038 8.56C140.406 8.56 141.654 8.8 142.782 9.28C143.934 9.76 144.918 10.432 145.734 11.296C146.55 12.16 147.186 13.204 147.642 14.428C148.098 15.652 148.326 17.008 148.326 18.496ZM142.854 18.496C142.854 16.84 142.518 15.544 141.846 14.608C141.198 13.648 140.262 13.168 139.038 13.168C137.814 13.168 136.866 13.648 136.194 14.608C135.522 15.544 135.186 16.84 135.186 18.496C135.186 20.152 135.522 21.472 136.194 22.456C136.866 23.416 137.814 23.896 139.038 23.896C140.262 23.896 141.198 23.416 141.846 22.456C142.518 21.472 142.854 20.152 142.854 18.496Z" fill="#3700B3"/>
</svg>
