<svg width="377" height="261" viewBox="0 0 377 261" fill="none" xmlns="http://www.w3.org/2000/svg">
<g clip-path="url(#clip0)">
<path opacity="0.1" d="M213.242 35.4357C189.077 35.468 165.817 28.6173 143.569 21.0068C121.321 13.3964 99.2438 4.8742 75.528 1.26295C60.2756 -1.05834 42.9316 -0.844962 31.009 7.58345C19.5326 15.6918 16.2093 29.1119 14.6058 41.5105C13.3999 50.8376 12.8439 60.6271 17.3601 69.159C20.496 75.0818 25.8624 79.9637 29.6448 85.6085C42.8476 105.246 34.9078 130.33 22.0768 150.423C16.0605 159.851 9.01303 168.887 4.46447 178.854C-0.0840823 188.822 -1.94941 200.124 2.68966 209.962C7.28671 219.713 17.6705 226.79 28.814 231.623C51.4436 241.458 77.791 243.566 103.43 244.377C160.185 246.178 217.05 242.506 273.764 238.833C294.751 237.475 315.832 236.107 336.386 232.173C347.798 229.991 359.549 226.751 367.641 219.652C377.912 210.638 380.013 195.921 372.539 185.343C360.005 167.6 326.956 164.254 317.969 145.057C313.013 134.488 317.287 122.368 323.581 112.18C337.081 90.3222 360.319 70.7432 360.71 46.2953C360.978 29.5064 348.894 13.128 330.845 5.83117C311.927 -1.81163 286.132 0.154033 272.878 14.3986C259.248 29.0731 234.579 35.413 213.242 35.4357Z" fill="#7D3CFF"/>
<path d="M320.866 208.644C320.866 208.644 316.893 206.022 312.955 207.888C312.955 207.888 314.167 210.222 319.152 210.002L320.866 208.644Z" fill="#7D3CFF"/>
<path d="M321.369 208.783C321.369 208.783 322.579 213.387 319.546 216.52C319.546 216.52 317.723 214.622 319.546 209.973L321.369 208.783Z" fill="#7D3CFF"/>
<path d="M326.309 204.364C326.309 204.364 326.015 200.449 317.173 201.748C317.173 201.748 317.131 204.273 320.235 205.47C323.338 206.666 324.761 205.657 326.309 204.364Z" fill="#7D3CFF"/>
<path d="M326.865 204.338C326.865 204.338 330.602 205.537 327.269 213.83C327.269 213.83 324.803 213.28 324.36 209.98C323.917 206.679 325.229 205.541 326.865 204.338Z" fill="#7D3CFF"/>
<path d="M331.857 198.784C331.857 198.784 332.365 192.34 323.329 193C323.329 193 322.683 198.819 330.264 200.332L331.857 198.784Z" fill="#7D3CFF"/>
<path d="M337.828 191.509C337.828 191.509 336.59 184.206 327.558 186.382C327.558 186.382 327.525 192.696 336.354 193.249L337.828 191.509Z" fill="#7D3CFF"/>
<path d="M342.192 183.99C342.192 183.99 340.117 176.877 331.168 179.004C331.168 179.004 333.299 185.402 341.597 185.302L342.192 183.99Z" fill="#7D3CFF"/>
<path d="M346.337 176.644C346.337 176.644 344.31 169.263 335.668 171.471C335.668 171.471 338.552 178.484 345.765 177.892L346.337 176.644Z" fill="#7D3CFF"/>
<path d="M349.007 169.667C349.007 169.667 347.449 160.641 339.393 162.639C339.393 162.639 341.733 170.851 348.415 170.983L349.007 169.667Z" fill="#7D3CFF"/>
<path d="M351.512 161.239C351.512 161.239 349.641 152.141 341.491 154.773C341.491 154.773 344.685 163.373 350.934 162.484L351.512 161.239Z" fill="#7D3CFF"/>
<path d="M353.051 153.396C353.051 153.396 350.08 144.295 343.779 144.541C343.779 144.541 346.815 154.152 352.524 155.209L353.051 153.396Z" fill="#7D3CFF"/>
<path d="M354.048 145.74C354.048 145.74 350.815 134.787 345.688 135.63C345.688 135.63 347.925 144.004 353.867 147.447L354.048 145.74Z" fill="#7D3CFF"/>
<path d="M354.609 136.607C354.609 136.607 351.577 127.48 346.527 127.115C346.527 127.115 348.59 136.096 354.509 138.98L354.609 136.607Z" fill="#7D3CFF"/>
<path d="M355.221 128.085C355.221 128.085 351.441 118.948 348.108 118.741C348.108 118.741 349.751 127.739 354.897 129.585L355.221 128.085Z" fill="#7D3CFF"/>
<path d="M355.638 120.157C355.638 120.157 353.313 110.235 349.974 109.411C349.974 109.411 350.429 117.529 355.301 120.901L355.638 120.157Z" fill="#7D3CFF"/>
<path d="M356.898 109.773C356.898 109.773 354.454 101.862 351.749 100.656C351.749 100.656 352.282 109.983 356.275 111.706L356.898 109.773Z" fill="#7D3CFF"/>
<path d="M357.942 102.984L358.434 89.0366C358.434 89.0366 353.375 99.5503 357.577 105.431L357.942 102.984Z" fill="#7D3CFF"/>
<path d="M361.848 89.111C361.848 89.111 365.491 78.927 366.374 78.358C366.374 78.358 359.229 84.9663 359.927 93.4658L361.848 89.111Z" fill="#7D3CFF"/>
<path d="M332.103 198.735C332.103 198.735 338.51 197.898 338.319 206.953C338.319 206.953 332.529 207.898 330.638 200.407L332.103 198.735Z" fill="#7D3CFF"/>
<path d="M338.132 191.264C338.132 191.264 345.535 191.241 344.921 200.51C344.921 200.51 338.704 201.622 336.655 193.016L338.132 191.264Z" fill="#7D3CFF"/>
<path d="M342.263 184.588C342.263 184.588 348.984 181.436 353.284 189.573C353.284 189.573 347.077 192.198 341.668 185.903L342.263 184.588Z" fill="#7D3CFF"/>
<path d="M346.486 176.712C346.486 176.712 353.369 173.359 357.41 181.306C357.41 181.306 350.239 183.776 345.917 177.97L346.486 176.712Z" fill="#7D3CFF"/>
<path d="M348.92 169.865C348.92 169.865 355.544 163.538 360.83 169.936C360.83 169.936 354.063 175.144 348.616 171.274L348.92 169.865Z" fill="#7D3CFF"/>
<path d="M351.138 161.022C351.138 161.022 357.8 154.556 363.044 161.32C363.044 161.32 355.567 166.632 350.898 162.38L351.138 161.022Z" fill="#7D3CFF"/>
<path d="M352.382 153.137C352.382 153.137 357.516 145.055 363.561 146.859C363.561 146.859 358.234 155.416 352.44 155.035L352.382 153.137Z" fill="#7D3CFF"/>
<path d="M353.895 145.688C353.895 145.688 359.067 135.511 363.962 137.283C363.962 137.283 360.231 145.106 353.762 147.405L353.895 145.688Z" fill="#7D3CFF"/>
<path d="M354.254 136.077C354.254 136.077 359.572 128.065 364.553 129.045C364.553 129.045 360.205 137.169 353.736 138.395L354.254 136.077Z" fill="#7D3CFF"/>
<path d="M354.668 127.907C354.668 127.907 358.79 118.916 362.139 118.854C362.139 118.854 360.161 127.781 354.946 129.433L354.668 127.907Z" fill="#7D3CFF"/>
<path d="M355.476 119.963C355.476 119.963 360.057 110.859 363.5 110.84C363.5 110.84 361.156 118.625 355.628 120.762L355.476 119.963Z" fill="#7D3CFF"/>
<path d="M356.165 110.342C356.165 110.342 359.591 102.809 362.43 101.956C362.43 101.956 360.716 111.137 356.543 112.34L356.165 110.342Z" fill="#7D3CFF"/>
<path d="M358.35 102.709L366.009 91.0411C366.009 91.0411 364.046 102.551 357.231 104.943L358.35 102.709Z" fill="#7D3CFF"/>
<path d="M363.606 90.0517C363.606 90.0517 372.506 83.9091 372.829 82.9165C372.829 82.9165 368.303 91.5195 359.898 93.039L363.606 90.0517Z" fill="#7D3CFF"/>
<path d="M364.14 87.2875C364.14 87.2875 374.359 77.4625 376.967 77.4722C376.967 77.4722 368.54 77.8569 363.894 86.7638L364.14 87.2875Z" fill="#7D3CFF"/>
<path d="M356.265 111.8L356.636 111.849C358.557 96.8184 361.356 87.9245 364.518 86.8349L364.395 86.4793C361.043 87.6432 358.224 96.4014 356.265 111.8Z" fill="#444053"/>
<path d="M353.439 147.744L354.002 147.79C354.122 146.387 354.212 144.951 354.274 143.519C354.81 131.078 355.641 119.653 356.734 111.089L356.41 110.685C355.315 119.268 354.248 131.036 353.711 143.496C353.65 144.919 353.559 146.348 353.439 147.744Z" fill="#444053"/>
<path d="M310.379 215.815C310.476 215.773 320.378 211.35 330.655 200.804C336.676 194.628 341.679 187.535 345.477 179.79C350.229 170.114 353.126 158.223 354.096 146.671L353.511 146.946C351.329 172.875 339.526 190.591 330.141 200.242C319.964 210.694 310.172 215.072 310.075 215.114L310.379 215.815Z" fill="#444053"/>
<path d="M336.018 27.5548H25.3837C24.6498 27.5548 23.9459 27.8464 23.427 28.3654C22.908 28.8844 22.6165 29.5883 22.6165 30.3222V38.3853H338.785V30.3222C338.785 29.5883 338.493 28.8844 337.974 28.3654C337.455 27.8464 336.751 27.5548 336.018 27.5548Z" fill="#3F3D56"/>
<path d="M22.6165 38.3853V219.834C22.6165 221.314 23.2043 222.733 24.2507 223.779C25.2972 224.826 26.7164 225.414 28.1963 225.414H333.205C334.685 225.414 336.104 224.826 337.151 223.779C338.197 222.733 338.785 221.314 338.785 219.834V38.3853H22.6165Z" fill="white"/>
<path opacity="0.8" d="M27.6242 34.1824C28.3383 34.1824 28.9173 33.6034 28.9173 32.8892C28.9173 32.175 28.3383 31.596 27.6242 31.596C26.91 31.596 26.3311 32.175 26.3311 32.8892C26.3311 33.6034 26.91 34.1824 27.6242 34.1824Z" fill="#FA5959"/>
<path opacity="0.8" d="M31.1806 34.1824C31.8947 34.1824 32.4737 33.6034 32.4737 32.8892C32.4737 32.175 31.8947 31.596 31.1806 31.596C30.4664 31.596 29.8875 32.175 29.8875 32.8892C29.8875 33.6034 30.4664 34.1824 31.1806 34.1824Z" fill="#FED253"/>
<path opacity="0.8" d="M34.7362 34.1824C35.4504 34.1824 36.0294 33.6034 36.0294 32.8892C36.0294 32.175 35.4504 31.596 34.7362 31.596C34.0221 31.596 33.4431 32.175 33.4431 32.8892C33.4431 33.6034 34.0221 34.1824 34.7362 34.1824Z" fill="#8CCF4D"/>
<path opacity="0.05" d="M306.104 68.6396H52.0061V180.378H306.104V68.6396Z" fill="black"/>
<path d="M304.165 69.4867H53.9456V178.762H304.165V69.4867Z" fill="#3F3D56"/>
<path d="M122.158 97.6105C117.235 97.6105 112.422 99.0705 108.328 101.806C104.235 104.541 101.044 108.429 99.1602 112.978C97.2762 117.527 96.7832 122.532 97.7437 127.361C98.7042 132.19 101.075 136.626 104.556 140.107C108.038 143.589 112.473 145.96 117.302 146.92C122.13 147.881 127.135 147.388 131.684 145.504C136.233 143.619 140.12 140.429 142.855 136.335C145.591 132.241 147.051 127.428 147.051 122.504C147.051 119.235 146.407 115.998 145.156 112.978C143.905 109.958 142.071 107.213 139.76 104.902C137.448 102.59 134.704 100.756 131.684 99.5054C128.664 98.2544 125.427 97.6105 122.158 97.6105ZM126.622 123.103V134.89H117.823V123.103C116.605 122.181 115.708 120.9 115.257 119.44C114.807 117.981 114.826 116.417 115.312 114.969C115.798 113.521 116.727 112.262 117.967 111.371C119.207 110.479 120.695 109.999 122.223 109.999C123.75 109.999 125.239 110.479 126.479 111.371C127.719 112.262 128.647 113.521 129.133 114.969C129.62 116.417 129.639 117.981 129.188 119.44C128.738 120.9 127.84 122.181 126.622 123.103Z" fill="#7D3CFF"/>
<path opacity="0.05" d="M122.158 97.6105C117.235 97.6105 112.422 99.0705 108.328 101.806C104.235 104.541 101.044 108.429 99.1602 112.978C97.2762 117.527 96.7832 122.532 97.7437 127.361C98.7042 132.19 101.075 136.626 104.556 140.107C108.038 143.589 112.473 145.96 117.302 146.92C122.13 147.881 127.135 147.388 131.684 145.504C136.233 143.619 140.12 140.429 142.855 136.335C145.591 132.241 147.051 127.428 147.051 122.504C147.051 119.235 146.407 115.998 145.156 112.978C143.905 109.958 142.071 107.213 139.76 104.902C137.448 102.59 134.704 100.756 131.684 99.5054C128.664 98.2544 125.427 97.6105 122.158 97.6105ZM126.622 123.103V134.89H117.823V123.103C116.605 122.181 115.708 120.9 115.257 119.44C114.807 117.981 114.826 116.417 115.312 114.969C115.798 113.521 116.727 112.262 117.967 111.371C119.207 110.479 120.695 109.999 122.223 109.999C123.75 109.999 125.239 110.479 126.479 111.371C127.719 112.262 128.647 113.521 129.133 114.969C129.62 116.417 129.639 117.981 129.188 119.44C128.738 120.9 127.84 122.181 126.622 123.103Z" fill="black"/>
<path d="M122.158 90.4979C115.828 90.4979 109.64 92.3751 104.377 95.892C99.114 99.4089 95.0119 104.408 92.5896 110.256C90.1672 116.105 89.5334 122.54 90.7683 128.749C92.0032 134.957 95.0514 140.66 99.5273 145.137C104.003 149.613 109.706 152.661 115.914 153.896C122.123 155.131 128.558 154.497 134.406 152.075C140.254 149.652 145.252 145.55 148.769 140.286C152.286 135.023 154.163 128.835 154.163 122.505C154.163 114.016 150.791 105.875 144.789 99.8724C138.787 93.87 130.646 90.4979 122.158 90.4979ZM127.896 123.274V138.427H116.582V123.274C115.015 122.089 113.861 120.441 113.281 118.564C112.702 116.687 112.726 114.676 113.351 112.814C113.976 110.952 115.171 109.333 116.765 108.186C118.36 107.039 120.275 106.422 122.239 106.422C124.203 106.422 126.118 107.039 127.712 108.186C129.307 109.333 130.501 110.952 131.127 112.814C131.752 114.676 131.776 116.687 131.197 118.564C130.617 120.441 129.463 122.089 127.896 123.274Z" fill="#7D3CFF"/>
<path d="M270.867 118.305H167.417V129.297H270.867V118.305Z" fill="white"/>
<path d="M270.867 138.349H248.561V149.342H270.867V138.349Z" fill="#7D3CFF"/>
<path d="M177.601 123.636H175.729L177.394 121.974C177.424 121.944 177.44 121.902 177.44 121.86C177.44 121.817 177.424 121.776 177.394 121.745C177.379 121.73 177.361 121.718 177.341 121.709C177.321 121.701 177.3 121.697 177.279 121.697C177.258 121.697 177.237 121.701 177.217 121.709C177.197 121.718 177.179 121.73 177.164 121.745L175.499 123.41V121.535C175.499 121.492 175.482 121.451 175.452 121.42C175.422 121.39 175.381 121.373 175.338 121.373C175.295 121.374 175.254 121.391 175.224 121.421C175.194 121.451 175.177 121.492 175.176 121.535V123.41L173.514 121.735C173.499 121.72 173.481 121.708 173.462 121.7C173.442 121.692 173.421 121.687 173.4 121.687C173.378 121.687 173.357 121.692 173.337 121.7C173.318 121.708 173.3 121.72 173.285 121.735C173.255 121.766 173.238 121.807 173.238 121.85C173.238 121.893 173.255 121.934 173.285 121.965L174.95 123.626H173.075C173.032 123.627 172.991 123.645 172.961 123.675C172.931 123.705 172.914 123.745 172.913 123.788C172.913 123.831 172.93 123.872 172.96 123.902C172.991 123.933 173.032 123.95 173.075 123.95H174.95L173.285 125.615C173.255 125.645 173.238 125.687 173.238 125.729C173.238 125.772 173.255 125.813 173.285 125.844C173.316 125.873 173.357 125.89 173.4 125.89C173.442 125.89 173.483 125.873 173.514 125.844L175.176 124.179V126.051C175.176 126.094 175.193 126.135 175.223 126.165C175.254 126.196 175.295 126.213 175.338 126.213C175.381 126.213 175.422 126.196 175.452 126.165C175.482 126.135 175.499 126.094 175.499 126.051V124.179L177.164 125.844C177.195 125.873 177.236 125.89 177.279 125.89C177.322 125.89 177.363 125.873 177.394 125.844C177.424 125.813 177.44 125.772 177.44 125.729C177.44 125.687 177.424 125.645 177.394 125.615L175.729 123.95H177.601C177.644 123.95 177.685 123.933 177.715 123.902C177.745 123.872 177.762 123.831 177.762 123.788C177.76 123.747 177.742 123.708 177.712 123.68C177.682 123.652 177.642 123.636 177.601 123.636Z" fill="#7D3CFF"/>
<path d="M184.39 123.636H182.518L184.183 121.974C184.213 121.944 184.229 121.902 184.229 121.86C184.229 121.817 184.213 121.776 184.183 121.745C184.168 121.73 184.15 121.718 184.13 121.709C184.111 121.701 184.089 121.697 184.068 121.697C184.047 121.697 184.026 121.701 184.006 121.709C183.986 121.718 183.968 121.73 183.953 121.745L182.288 123.41V121.535C182.288 121.492 182.271 121.451 182.241 121.42C182.211 121.39 182.17 121.373 182.127 121.373C182.084 121.374 182.043 121.391 182.013 121.421C181.983 121.451 181.966 121.492 181.965 121.535V123.41L180.303 121.735C180.288 121.72 180.271 121.708 180.251 121.7C180.231 121.692 180.21 121.687 180.189 121.687C180.167 121.687 180.146 121.692 180.127 121.7C180.107 121.708 180.089 121.72 180.074 121.735C180.044 121.766 180.027 121.807 180.027 121.85C180.027 121.893 180.044 121.934 180.074 121.965L181.739 123.626H179.864C179.821 123.627 179.781 123.645 179.75 123.675C179.72 123.705 179.703 123.745 179.702 123.788C179.702 123.831 179.719 123.872 179.749 123.902C179.78 123.933 179.821 123.95 179.864 123.95H181.739L180.074 125.615C180.044 125.645 180.027 125.687 180.027 125.729C180.027 125.772 180.044 125.813 180.074 125.844C180.105 125.873 180.146 125.89 180.189 125.89C180.231 125.89 180.272 125.873 180.303 125.844L181.965 124.179V126.051C181.965 126.094 181.982 126.135 182.012 126.165C182.043 126.196 182.084 126.213 182.127 126.213C182.17 126.213 182.211 126.196 182.241 126.165C182.271 126.135 182.288 126.094 182.288 126.051V124.179L183.953 125.844C183.984 125.873 184.025 125.89 184.068 125.89C184.111 125.89 184.152 125.873 184.183 125.844C184.213 125.813 184.229 125.772 184.229 125.729C184.229 125.687 184.213 125.645 184.183 125.615L182.518 123.95H184.39C184.433 123.95 184.474 123.933 184.504 123.902C184.534 123.872 184.551 123.831 184.551 123.788C184.549 123.747 184.531 123.708 184.501 123.68C184.471 123.652 184.431 123.636 184.39 123.636Z" fill="#7D3CFF"/>
<path d="M191.178 123.636H189.306L190.971 121.974C191.001 121.944 191.018 121.902 191.018 121.86C191.018 121.817 191.001 121.776 190.971 121.745C190.956 121.73 190.938 121.718 190.919 121.709C190.899 121.701 190.878 121.697 190.857 121.697C190.835 121.697 190.814 121.701 190.794 121.709C190.775 121.718 190.757 121.73 190.742 121.745L189.077 123.41V121.535C189.077 121.492 189.06 121.451 189.03 121.42C188.999 121.39 188.958 121.373 188.915 121.373C188.873 121.374 188.832 121.391 188.802 121.421C188.772 121.451 188.755 121.492 188.754 121.535V123.41L187.092 121.735C187.077 121.72 187.059 121.708 187.039 121.7C187.02 121.692 186.999 121.687 186.977 121.687C186.956 121.687 186.935 121.692 186.915 121.7C186.895 121.708 186.878 121.72 186.862 121.735C186.833 121.766 186.816 121.807 186.816 121.85C186.816 121.893 186.833 121.934 186.862 121.965L188.527 123.626H186.652C186.61 123.627 186.569 123.645 186.539 123.675C186.509 123.705 186.492 123.745 186.491 123.788C186.491 123.831 186.508 123.872 186.538 123.902C186.568 123.933 186.609 123.95 186.652 123.95H188.527L186.862 125.615C186.833 125.645 186.816 125.687 186.816 125.729C186.816 125.772 186.833 125.813 186.862 125.844C186.894 125.873 186.935 125.89 186.977 125.89C187.02 125.89 187.061 125.873 187.092 125.844L188.754 124.179V126.051C188.754 126.094 188.771 126.135 188.801 126.165C188.831 126.196 188.872 126.213 188.915 126.213C188.958 126.213 188.999 126.196 189.03 126.165C189.06 126.135 189.077 126.094 189.077 126.051V124.179L190.742 125.844C190.773 125.873 190.814 125.89 190.857 125.89C190.899 125.89 190.94 125.873 190.971 125.844C191.001 125.813 191.018 125.772 191.018 125.729C191.018 125.687 191.001 125.645 190.971 125.615L189.306 123.95H191.178C191.221 123.95 191.262 123.933 191.293 123.902C191.323 123.872 191.34 123.831 191.34 123.788C191.337 123.747 191.319 123.708 191.289 123.68C191.259 123.652 191.22 123.636 191.178 123.636Z" fill="#7D3CFF"/>
<path d="M197.967 123.636H196.096L197.76 121.974C197.79 121.944 197.807 121.902 197.807 121.86C197.807 121.817 197.79 121.776 197.76 121.745C197.745 121.73 197.728 121.718 197.708 121.709C197.688 121.701 197.667 121.697 197.646 121.697C197.624 121.697 197.603 121.701 197.583 121.709C197.564 121.718 197.546 121.73 197.531 121.745L195.866 123.41V121.535C195.866 121.492 195.849 121.451 195.819 121.42C195.788 121.39 195.747 121.373 195.704 121.373C195.662 121.374 195.621 121.391 195.591 121.421C195.561 121.451 195.544 121.492 195.543 121.535V123.41L193.881 121.735C193.866 121.72 193.848 121.708 193.828 121.7C193.809 121.692 193.788 121.687 193.766 121.687C193.745 121.687 193.724 121.692 193.704 121.7C193.684 121.708 193.667 121.72 193.652 121.735C193.622 121.766 193.605 121.807 193.605 121.85C193.605 121.893 193.622 121.934 193.652 121.965L195.316 123.626H193.441C193.399 123.627 193.358 123.645 193.328 123.675C193.298 123.705 193.281 123.745 193.28 123.788C193.28 123.831 193.297 123.872 193.327 123.902C193.357 123.933 193.399 123.95 193.441 123.95H195.316L193.652 125.615C193.622 125.645 193.605 125.687 193.605 125.729C193.605 125.772 193.622 125.813 193.652 125.844C193.683 125.873 193.724 125.89 193.766 125.89C193.809 125.89 193.85 125.873 193.881 125.844L195.543 124.179V126.051C195.543 126.094 195.56 126.135 195.59 126.165C195.62 126.196 195.661 126.213 195.704 126.213C195.747 126.213 195.788 126.196 195.819 126.165C195.849 126.135 195.866 126.094 195.866 126.051V124.179L197.531 125.844C197.562 125.873 197.603 125.89 197.646 125.89C197.688 125.89 197.729 125.873 197.76 125.844C197.79 125.813 197.807 125.772 197.807 125.729C197.807 125.687 197.79 125.645 197.76 125.615L196.096 123.95H197.967C198.01 123.95 198.051 123.933 198.082 123.902C198.112 123.872 198.129 123.831 198.129 123.788C198.126 123.747 198.108 123.708 198.078 123.68C198.048 123.652 198.009 123.636 197.967 123.636Z" fill="#7D3CFF"/>
<path d="M204.756 123.636H202.884L204.549 121.974C204.579 121.944 204.595 121.902 204.595 121.86C204.595 121.817 204.579 121.776 204.549 121.745C204.534 121.73 204.516 121.718 204.496 121.709C204.477 121.701 204.456 121.697 204.434 121.697C204.413 121.697 204.392 121.701 204.372 121.709C204.352 121.718 204.334 121.73 204.319 121.745L202.655 123.41V121.535C202.655 121.492 202.638 121.451 202.607 121.42C202.577 121.39 202.536 121.373 202.493 121.373C202.45 121.374 202.41 121.391 202.38 121.421C202.349 121.451 202.332 121.492 202.331 121.535V123.41L200.67 121.735C200.655 121.72 200.637 121.708 200.617 121.7C200.597 121.692 200.576 121.687 200.555 121.687C200.534 121.687 200.512 121.692 200.493 121.7C200.473 121.708 200.455 121.72 200.44 121.735C200.41 121.766 200.394 121.807 200.394 121.85C200.394 121.893 200.41 121.934 200.44 121.965L202.105 123.626H200.23C200.187 123.627 200.147 123.645 200.117 123.675C200.086 123.705 200.069 123.745 200.068 123.788C200.068 123.831 200.085 123.872 200.116 123.902C200.146 123.933 200.187 123.95 200.23 123.95H202.105L200.44 125.615C200.41 125.645 200.394 125.687 200.394 125.729C200.394 125.772 200.41 125.813 200.44 125.844C200.471 125.873 200.512 125.89 200.555 125.89C200.597 125.89 200.639 125.873 200.67 125.844L202.331 124.179V126.051C202.331 126.094 202.348 126.135 202.379 126.165C202.409 126.196 202.45 126.213 202.493 126.213C202.536 126.213 202.577 126.196 202.607 126.165C202.638 126.135 202.655 126.094 202.655 126.051V124.179L204.319 125.844C204.351 125.873 204.392 125.89 204.434 125.89C204.477 125.89 204.518 125.873 204.549 125.844C204.579 125.813 204.595 125.772 204.595 125.729C204.595 125.687 204.579 125.645 204.549 125.615L202.884 123.95H204.756C204.799 123.95 204.84 123.933 204.87 123.902C204.9 123.872 204.918 123.831 204.918 123.788C204.915 123.747 204.897 123.708 204.867 123.68C204.837 123.652 204.797 123.636 204.756 123.636Z" fill="#7D3CFF"/>
<path d="M211.545 123.636H209.673L211.338 121.974C211.368 121.944 211.385 121.902 211.385 121.86C211.385 121.817 211.368 121.776 211.338 121.745C211.323 121.73 211.305 121.718 211.285 121.709C211.266 121.701 211.245 121.697 211.223 121.697C211.202 121.697 211.181 121.701 211.161 121.709C211.141 121.718 211.124 121.73 211.109 121.745L209.444 123.41V121.535C209.444 121.492 209.427 121.451 209.396 121.42C209.366 121.39 209.325 121.373 209.282 121.373C209.239 121.374 209.199 121.391 209.169 121.421C209.138 121.451 209.121 121.492 209.12 121.535V123.41L207.459 121.735C207.444 121.72 207.426 121.708 207.406 121.7C207.386 121.692 207.365 121.687 207.344 121.687C207.323 121.687 207.301 121.692 207.282 121.7C207.262 121.708 207.244 121.72 207.229 121.735C207.199 121.766 207.183 121.807 207.183 121.85C207.183 121.893 207.199 121.934 207.229 121.965L208.894 123.626H207.019C206.976 123.627 206.936 123.645 206.906 123.675C206.876 123.705 206.858 123.745 206.857 123.788C206.857 123.831 206.874 123.872 206.905 123.902C206.935 123.933 206.976 123.95 207.019 123.95H208.894L207.229 125.615C207.199 125.645 207.183 125.687 207.183 125.729C207.183 125.772 207.199 125.813 207.229 125.844C207.26 125.873 207.301 125.89 207.344 125.89C207.387 125.89 207.428 125.873 207.459 125.844L209.12 124.179V126.051C209.12 126.094 209.137 126.135 209.168 126.165C209.198 126.196 209.239 126.213 209.282 126.213C209.325 126.213 209.366 126.196 209.396 126.165C209.427 126.135 209.444 126.094 209.444 126.051V124.179L211.109 125.844C211.14 125.873 211.181 125.89 211.223 125.89C211.266 125.89 211.307 125.873 211.338 125.844C211.368 125.813 211.385 125.772 211.385 125.729C211.385 125.687 211.368 125.645 211.338 125.615L209.673 123.95H211.545C211.588 123.95 211.629 123.933 211.659 123.902C211.69 123.872 211.707 123.831 211.707 123.788C211.704 123.747 211.686 123.708 211.656 123.68C211.626 123.652 211.586 123.636 211.545 123.636Z" fill="#7D3CFF"/>
<path d="M218.334 123.636H216.462L218.127 121.974C218.157 121.944 218.174 121.902 218.174 121.86C218.174 121.817 218.157 121.776 218.127 121.745C218.112 121.73 218.094 121.718 218.074 121.709C218.055 121.701 218.034 121.697 218.012 121.697C217.991 121.697 217.97 121.701 217.95 121.709C217.93 121.718 217.913 121.73 217.898 121.745L216.233 123.41V121.535C216.233 121.492 216.216 121.451 216.185 121.42C216.155 121.39 216.114 121.373 216.071 121.373C216.028 121.374 215.988 121.391 215.958 121.421C215.928 121.451 215.91 121.492 215.909 121.535V123.41L214.248 121.735C214.233 121.72 214.215 121.708 214.195 121.7C214.175 121.692 214.154 121.687 214.133 121.687C214.112 121.687 214.091 121.692 214.071 121.7C214.051 121.708 214.033 121.72 214.018 121.735C213.988 121.766 213.972 121.807 213.972 121.85C213.972 121.893 213.988 121.934 214.018 121.965L215.683 123.626H213.808C213.766 123.627 213.725 123.645 213.695 123.675C213.665 123.705 213.647 123.745 213.646 123.788C213.646 123.831 213.664 123.872 213.694 123.902C213.724 123.933 213.765 123.95 213.808 123.95H215.683L214.018 125.615C213.988 125.645 213.972 125.687 213.972 125.729C213.972 125.772 213.988 125.813 214.018 125.844C214.049 125.873 214.09 125.89 214.133 125.89C214.176 125.89 214.217 125.873 214.248 125.844L215.909 124.179V126.051C215.909 126.094 215.926 126.135 215.957 126.165C215.987 126.196 216.028 126.213 216.071 126.213C216.114 126.213 216.155 126.196 216.185 126.165C216.216 126.135 216.233 126.094 216.233 126.051V124.179L217.898 125.844C217.929 125.873 217.97 125.89 218.012 125.89C218.055 125.89 218.096 125.873 218.127 125.844C218.157 125.813 218.174 125.772 218.174 125.729C218.174 125.687 218.157 125.645 218.127 125.615L216.462 123.95H218.334C218.377 123.95 218.418 123.933 218.448 123.902C218.479 123.872 218.496 123.831 218.496 123.788C218.493 123.747 218.475 123.708 218.445 123.68C218.415 123.652 218.375 123.636 218.334 123.636Z" fill="#7D3CFF"/>
<path d="M225.123 123.636H223.251L224.916 121.974C224.946 121.944 224.962 121.902 224.962 121.86C224.962 121.817 224.946 121.776 224.916 121.745C224.901 121.73 224.883 121.718 224.863 121.709C224.843 121.701 224.822 121.697 224.801 121.697C224.78 121.697 224.758 121.701 224.739 121.709C224.719 121.718 224.701 121.73 224.686 121.745L223.021 123.41V121.535C223.021 121.492 223.004 121.451 222.974 121.42C222.944 121.39 222.903 121.373 222.86 121.373C222.817 121.374 222.776 121.391 222.746 121.421C222.716 121.451 222.699 121.492 222.698 121.535V123.41L221.036 121.735C221.021 121.72 221.003 121.708 220.984 121.7C220.964 121.692 220.943 121.687 220.922 121.687C220.9 121.687 220.879 121.692 220.859 121.7C220.84 121.708 220.822 121.72 220.807 121.735C220.777 121.766 220.76 121.807 220.76 121.85C220.76 121.893 220.777 121.934 220.807 121.965L222.472 123.626H220.597C220.554 123.627 220.513 123.645 220.483 123.675C220.453 123.705 220.436 123.745 220.435 123.788C220.435 123.831 220.452 123.872 220.482 123.902C220.513 123.933 220.554 123.95 220.597 123.95H222.472L220.807 125.615C220.777 125.645 220.76 125.687 220.76 125.729C220.76 125.772 220.777 125.813 220.807 125.844C220.838 125.873 220.879 125.89 220.922 125.89C220.964 125.89 221.005 125.873 221.036 125.844L222.698 124.179V126.051C222.698 126.094 222.715 126.135 222.745 126.165C222.776 126.196 222.817 126.213 222.86 126.213C222.903 126.213 222.944 126.196 222.974 126.165C223.004 126.135 223.021 126.094 223.021 126.051V124.179L224.686 125.844C224.717 125.873 224.758 125.89 224.801 125.89C224.844 125.89 224.885 125.873 224.916 125.844C224.946 125.813 224.962 125.772 224.962 125.729C224.962 125.687 224.946 125.645 224.916 125.615L223.251 123.95H225.123C225.165 123.95 225.207 123.933 225.237 123.902C225.267 123.872 225.284 123.831 225.284 123.788C225.282 123.747 225.264 123.708 225.234 123.68C225.204 123.652 225.164 123.636 225.123 123.636Z" fill="#7D3CFF"/>
<path d="M231.912 123.636H230.04L231.705 121.974C231.735 121.944 231.751 121.902 231.751 121.86C231.751 121.817 231.735 121.776 231.705 121.745C231.69 121.73 231.672 121.718 231.652 121.709C231.632 121.701 231.611 121.697 231.59 121.697C231.569 121.697 231.548 121.701 231.528 121.709C231.508 121.718 231.49 121.73 231.475 121.745L229.81 123.41V121.535C229.81 121.492 229.793 121.451 229.763 121.42C229.733 121.39 229.692 121.373 229.649 121.373C229.606 121.374 229.565 121.391 229.535 121.421C229.505 121.451 229.488 121.492 229.487 121.535V123.41L227.825 121.735C227.81 121.72 227.793 121.708 227.773 121.7C227.753 121.692 227.732 121.687 227.711 121.687C227.689 121.687 227.668 121.692 227.648 121.7C227.629 121.708 227.611 121.72 227.596 121.735C227.566 121.766 227.549 121.807 227.549 121.85C227.549 121.893 227.566 121.934 227.596 121.965L229.261 123.626H227.386C227.343 123.627 227.303 123.645 227.272 123.675C227.242 123.705 227.225 123.745 227.224 123.788C227.224 123.831 227.241 123.872 227.271 123.902C227.302 123.933 227.343 123.95 227.386 123.95H229.261L227.596 125.615C227.566 125.645 227.549 125.687 227.549 125.729C227.549 125.772 227.566 125.813 227.596 125.844C227.627 125.873 227.668 125.89 227.711 125.89C227.753 125.89 227.794 125.873 227.825 125.844L229.487 124.179V126.051C229.487 126.094 229.504 126.135 229.534 126.165C229.565 126.196 229.606 126.213 229.649 126.213C229.692 126.213 229.733 126.196 229.763 126.165C229.793 126.135 229.81 126.094 229.81 126.051V124.179L231.475 125.844C231.506 125.873 231.547 125.89 231.59 125.89C231.633 125.89 231.674 125.873 231.705 125.844C231.735 125.813 231.751 125.772 231.751 125.729C231.751 125.687 231.735 125.645 231.705 125.615L230.04 123.95H231.912C231.955 123.95 231.996 123.933 232.026 123.902C232.056 123.872 232.073 123.831 232.073 123.788C232.071 123.747 232.053 123.708 232.023 123.68C231.993 123.652 231.953 123.636 231.912 123.636Z" fill="#7D3CFF"/>
<path d="M238.7 123.636H236.828L238.493 121.974C238.523 121.944 238.54 121.902 238.54 121.86C238.54 121.817 238.523 121.776 238.493 121.745C238.478 121.73 238.46 121.718 238.441 121.709C238.421 121.701 238.4 121.697 238.379 121.697C238.357 121.697 238.336 121.701 238.316 121.709C238.297 121.718 238.279 121.73 238.264 121.745L236.599 123.41V121.535C236.599 121.492 236.582 121.451 236.552 121.42C236.521 121.39 236.48 121.373 236.437 121.373C236.395 121.374 236.354 121.391 236.324 121.421C236.294 121.451 236.276 121.492 236.276 121.535V123.41L234.614 121.735C234.599 121.72 234.581 121.708 234.561 121.7C234.542 121.692 234.521 121.687 234.499 121.687C234.478 121.687 234.457 121.692 234.437 121.7C234.417 121.708 234.399 121.72 234.384 121.735C234.355 121.766 234.338 121.807 234.338 121.85C234.338 121.893 234.355 121.934 234.384 121.965L236.049 123.626H234.174C234.132 123.627 234.091 123.645 234.061 123.675C234.031 123.705 234.014 123.745 234.013 123.788C234.013 123.831 234.03 123.872 234.06 123.902C234.09 123.933 234.131 123.95 234.174 123.95H236.049L234.384 125.615C234.355 125.645 234.338 125.687 234.338 125.729C234.338 125.772 234.355 125.813 234.384 125.844C234.416 125.873 234.457 125.89 234.499 125.89C234.542 125.89 234.583 125.873 234.614 125.844L236.276 124.179V126.051C236.276 126.094 236.293 126.135 236.323 126.165C236.353 126.196 236.394 126.213 236.437 126.213C236.48 126.213 236.521 126.196 236.552 126.165C236.582 126.135 236.599 126.094 236.599 126.051V124.179L238.264 125.844C238.295 125.873 238.336 125.89 238.379 125.89C238.421 125.89 238.462 125.873 238.493 125.844C238.523 125.813 238.54 125.772 238.54 125.729C238.54 125.687 238.523 125.645 238.493 125.615L236.828 123.95H238.7C238.743 123.95 238.784 123.933 238.815 123.902C238.845 123.872 238.862 123.831 238.862 123.788C238.859 123.747 238.841 123.708 238.811 123.68C238.781 123.652 238.741 123.636 238.7 123.636Z" fill="#7D3CFF"/>
<path d="M245.489 123.636H243.617L245.282 121.974C245.312 121.944 245.329 121.902 245.329 121.86C245.329 121.817 245.312 121.776 245.282 121.745C245.267 121.73 245.249 121.718 245.23 121.709C245.21 121.701 245.189 121.697 245.168 121.697C245.146 121.697 245.125 121.701 245.105 121.709C245.086 121.718 245.068 121.73 245.053 121.745L243.388 123.41V121.535C243.388 121.492 243.371 121.451 243.341 121.42C243.31 121.39 243.269 121.373 243.226 121.373C243.184 121.374 243.143 121.391 243.113 121.421C243.083 121.451 243.066 121.492 243.065 121.535V123.41L241.403 121.735C241.388 121.72 241.37 121.708 241.35 121.7C241.331 121.692 241.31 121.687 241.288 121.687C241.267 121.687 241.246 121.692 241.226 121.7C241.206 121.708 241.189 121.72 241.174 121.735C241.144 121.766 241.127 121.807 241.127 121.85C241.127 121.893 241.144 121.934 241.174 121.965L242.838 123.626H240.963C240.921 123.627 240.88 123.645 240.85 123.675C240.82 123.705 240.803 123.745 240.802 123.788C240.802 123.831 240.819 123.872 240.849 123.902C240.879 123.933 240.921 123.95 240.963 123.95H242.838L241.174 125.615C241.144 125.645 241.127 125.687 241.127 125.729C241.127 125.772 241.144 125.813 241.174 125.844C241.205 125.873 241.246 125.89 241.288 125.89C241.331 125.89 241.372 125.873 241.403 125.844L243.065 124.179V126.051C243.065 126.094 243.082 126.135 243.112 126.165C243.142 126.196 243.183 126.213 243.226 126.213C243.269 126.213 243.31 126.196 243.341 126.165C243.371 126.135 243.388 126.094 243.388 126.051V124.179L245.053 125.844C245.084 125.873 245.125 125.89 245.168 125.89C245.21 125.89 245.251 125.873 245.282 125.844C245.312 125.813 245.329 125.772 245.329 125.729C245.329 125.687 245.312 125.645 245.282 125.615L243.617 123.95H245.489C245.532 123.95 245.573 123.933 245.604 123.902C245.634 123.872 245.651 123.831 245.651 123.788C245.648 123.747 245.63 123.708 245.6 123.68C245.57 123.652 245.53 123.636 245.489 123.636Z" fill="#7D3CFF"/>
<path d="M297.535 162.965C297.526 162.575 297.477 162.186 297.389 161.805C297.098 160.712 296.442 159.39 295.362 159.06C294.247 158.719 293.171 158.264 292.149 157.702C291.955 154.236 292.75 150.69 291.884 147.331C291.56 146.102 291.027 144.925 290.885 143.668C290.707 142.103 291.134 140.435 290.51 138.993C290.018 137.855 288.939 137.053 287.778 136.633C286.618 136.212 285.366 136.099 284.135 135.986C282.583 135.86 277.559 135.265 275.807 136.652C275.686 136.746 275.578 136.855 275.484 136.975C275.445 137.029 275.41 137.085 275.38 137.143L275.364 137.169C275.329 137.237 275.3 137.307 275.277 137.38C275.252 137.459 275.234 137.54 275.222 137.622C275.222 137.648 275.222 137.674 275.222 137.7C275.222 137.725 275.222 137.813 275.222 137.871V137.958C275.222 138.016 275.222 138.075 275.222 138.136C275.222 138.197 275.222 138.181 275.222 138.204C275.244 138.495 275.287 138.786 275.287 139.074C275.29 139.217 275.277 139.36 275.248 139.5C275.14 139.882 274.958 140.238 274.711 140.548L274.653 140.632C274.617 140.684 274.582 140.732 274.549 140.784C274.517 140.836 274.491 140.874 274.465 140.92C274.44 140.965 274.414 140.994 274.391 141.036C274.36 141.089 274.332 141.144 274.307 141.201C274.307 141.233 274.271 141.262 274.258 141.295C274.218 141.382 274.186 141.473 274.161 141.566C274.086 141.847 274.079 142.142 274.142 142.426C274.229 142.789 274.379 143.134 274.585 143.445C274.666 143.577 274.753 143.706 274.844 143.836L275.07 144.143C275.028 144.443 275.005 144.745 275.002 145.048C275.002 146.061 275.232 147.06 275.675 147.97C276.117 148.881 276.76 149.679 277.556 150.305C277.684 151.67 277.67 153.045 277.514 154.408C277.485 154.692 277.449 154.98 277.41 155.264C277.372 155.549 277.343 155.736 277.304 155.972C276.831 156.04 276.349 156.004 275.891 155.866C275.68 155.772 275.464 155.689 275.244 155.617C274.304 155.381 273.344 156.318 272.413 156.034C272.413 156.079 272.387 156.121 272.371 156.163C272.176 156.042 271.953 155.976 271.724 155.972C271.171 155.947 270.722 155.546 270.321 155.167L269.089 154.007C269.009 153.936 268.937 153.855 268.876 153.768C268.81 153.642 268.76 153.508 268.727 153.37C268.52 152.701 268.019 152.167 267.534 151.66C267.442 151.544 267.32 151.456 267.182 151.404C267.128 151.396 267.074 151.396 267.02 151.404C266.987 151.359 266.952 151.316 266.914 151.275C266.83 151.179 266.74 151.088 266.645 151.003C266.057 150.46 265.999 149.995 265.488 149.387C265.042 148.807 264.638 148.197 264.279 147.56C264.237 147.221 264.179 146.872 264.107 146.519C263.944 145.712 263.707 144.922 263.399 144.159L262.753 142.727L262.679 142.801C262.21 142.103 261.709 141.721 261.259 141.812C260.506 141.967 260.134 143.428 260.254 145.339L260.513 147.279C260.513 147.327 260.535 147.376 260.548 147.424C260.502 147.654 260.478 147.888 260.477 148.123C260.477 148.394 260.729 148.595 260.862 148.837C261.074 149.166 261.186 149.549 261.185 149.94C261.169 150.079 261.127 150.211 261.12 150.347C261.138 150.651 261.244 150.943 261.424 151.188L263.041 153.903L263.364 154.472L263.383 154.498C263.485 154.697 263.634 154.868 263.816 154.996C263.88 155.676 264.06 156.34 264.35 156.959C264.405 157.081 264.466 157.198 264.531 157.314C264.966 158.029 265.477 158.693 266.057 159.296L266.826 160.159C267.586 161.006 268.346 161.856 269.17 162.639C269.465 162.953 269.822 163.203 270.217 163.373C270.411 163.45 270.622 163.475 270.829 163.445C271.035 163.415 271.23 163.331 271.394 163.201C271.394 163.602 271.394 164.003 271.394 164.404C271.514 164.411 271.63 164.451 271.73 164.518C271.83 164.585 271.91 164.678 271.962 164.786C272.014 164.894 272.036 165.015 272.026 165.135C272.016 165.254 271.974 165.369 271.905 165.468C271.226 167.21 270.541 168.969 269.513 170.531C270.238 170.96 270.911 171.473 271.517 172.06C271.91 172.496 272.26 172.969 272.561 173.473C272.59 173.712 272.613 173.948 272.626 174.184C272.865 178.038 271.375 181.862 270.04 185.535C269.655 186.576 269.235 187.665 269.267 188.749C269.014 188.905 268.772 189.079 268.543 189.269C268.808 189.961 268.705 190.578 268.675 191.319C268.666 191.763 268.575 192.201 268.407 192.612C268.267 192.897 268.111 193.174 267.942 193.443C267.104 194.92 266.92 196.676 266.752 198.363C266.652 199.382 267.046 200.627 266.584 201.538C265.785 203.103 265.077 204.771 264.967 206.511C264.964 206.902 264.914 207.292 264.819 207.671C264.718 207.995 264.541 208.269 264.45 208.586C264.357 209.011 264.335 209.448 264.385 209.879C264.447 211.429 264.217 212.976 263.707 214.441C263.302 215.595 262.856 216.83 263.173 218.017C262.393 218.836 261.912 219.894 261.806 221.02C261.797 221.308 261.763 221.595 261.702 221.877C261.603 222.165 261.473 222.442 261.314 222.701C260.664 223.887 260.359 225.231 260.435 226.581C259.465 227.897 258.98 229.52 258.693 231.133C258.405 232.746 258.279 234.389 257.91 235.983C257.419 238.09 256.53 240.221 256.355 242.381C255.308 243.05 254.855 244.346 254.655 245.572C254.454 246.797 254.422 248.084 253.908 249.215C253.643 249.804 253.261 250.331 253.009 250.932C252.832 251.411 252.702 251.905 252.621 252.409C252.466 253.198 252.33 254.078 252.521 254.834C252.247 255.125 251.927 255.368 251.574 255.555C251.626 255.355 251.668 255.154 251.703 254.951C250.869 255.707 249.356 255.442 248.69 256.35C248.49 256.643 248.412 257.002 248.473 257.352C248.533 257.701 248.727 258.013 249.013 258.222C249.222 258.349 249.447 258.446 249.683 258.51C251.299 259.027 252.961 259.548 254.622 259.273C254.819 259.252 255.009 259.191 255.182 259.095C255.398 258.936 255.576 258.731 255.702 258.494C255.951 258.099 256.2 257.705 256.446 257.311C257.041 257.488 257.647 257.63 258.259 257.734C258.321 258.251 258.366 258.769 258.389 259.286C258.712 259.351 259.145 259.37 259.297 259.069C259.343 258.956 259.362 258.833 259.352 258.71C259.352 258.481 259.384 258.177 259.404 257.867H259.468C260.455 257.906 261.436 257.708 262.329 257.288C261.984 254.424 263.125 251.624 264.114 248.915C265.158 246.063 266.054 243.16 266.956 240.257C267.602 238.213 268.317 236.235 268.95 234.188C269.748 231.602 270.548 229.015 271.352 226.429C271.701 225.291 272.054 224.166 272.455 223.034C273.298 220.745 274.3 218.516 275.451 216.365C275.775 215.754 276.098 215.149 276.363 214.515C276.686 213.743 276.916 212.935 277.174 212.136C277.738 210.497 278.416 208.901 279.205 207.358C279.227 207.316 279.243 207.277 279.266 207.238C279.528 208.308 279.79 209.394 279.964 210.471C280.201 211.791 280.219 213.141 280.019 214.467C279.864 215.369 279.57 216.261 279.606 217.176C279.654 218.44 280.33 219.588 280.663 220.807C280.877 221.719 280.999 222.651 281.025 223.587C281.115 225.042 281.904 226.675 281.348 228.023C279.618 232.294 280.456 237.117 279.47 241.601C278.962 243.903 277.407 246.066 277.53 248.42C277.616 250.09 277.763 251.756 277.97 253.418C278.02 253.942 278.156 254.455 278.374 254.934C278.503 255.187 278.651 255.429 278.817 255.659C278.675 255.713 278.555 255.859 278.451 256.166C278.186 256.974 278.451 257.977 279.169 258.429C279.462 258.586 279.777 258.695 280.103 258.753C280.543 258.877 280.998 258.941 281.455 258.94C281.597 258.932 281.738 258.915 281.878 258.888C282.378 259.098 282.888 259.282 283.407 259.438C283.407 259.57 283.433 259.703 283.449 259.836C283.45 259.905 283.466 259.973 283.495 260.036C283.524 260.099 283.565 260.155 283.617 260.201C283.698 260.239 283.787 260.254 283.876 260.246H285.632C285.632 260.101 285.632 259.952 285.632 259.806C285.832 259.827 286.035 259.806 286.228 259.744C286.42 259.681 286.597 259.579 286.747 259.444C286.902 259.246 287.013 259.017 287.07 258.772C287.549 257.149 288.024 255.525 288.496 253.9C289.062 252.103 289.297 250.219 289.191 248.339C288.567 242.381 289.938 236.403 289.492 230.428C289.223 226.837 289.408 223.227 290.041 219.682C290.187 218.88 290.364 218.065 290.429 217.267C290.571 215.76 290.397 214.237 290.503 212.741C290.539 212.217 290.61 211.696 290.675 211.176C291.118 207.945 291.35 204.689 291.37 201.428C291.36 200.348 291.293 199.269 291.169 198.195C291.506 198.109 291.812 197.93 292.052 197.678C292.34 197.303 292.265 196.776 292.262 196.298C292.262 195.153 292.744 194.073 293.132 192.993C293.63 191.504 294.038 189.986 294.354 188.448C294.688 187.208 294.87 185.933 294.897 184.649C294.897 184.52 294.89 184.39 294.877 184.261C294.999 184.177 295.101 184.066 295.175 183.938C295.259 183.748 295.312 183.546 295.33 183.34C295.446 182.515 295.566 181.688 295.682 180.86C295.769 180.267 295.854 179.676 295.938 179.085L296.966 171.911C297.053 171.287 297.144 170.666 297.231 170.046L297.499 168.19C297.528 167.97 297.561 167.75 297.583 167.543C298.372 166.224 297.619 164.466 297.535 162.965ZM288.958 189.825C288.577 188.92 288.221 187.992 288.312 187.016H288.276C288.361 186.715 288.346 186.395 288.234 186.104C288.134 185.868 287.959 185.667 287.852 185.431C287.738 185.143 287.679 184.836 287.678 184.526C287.598 182.56 287.753 180.591 288.14 178.662C288.182 178.435 288.227 178.206 288.269 177.979C288.405 177.901 288.529 177.804 288.638 177.692C288.808 177.498 288.949 177.28 289.055 177.045C289.42 176.311 289.753 175.564 290.06 174.805C290.161 174.559 290.306 174.274 290.555 174.213C290.503 176.104 290.697 178.034 289.928 179.741C289.782 180.017 289.673 180.31 289.605 180.614C289.534 181.096 289.734 181.584 289.663 182.063C289.627 182.312 289.521 182.541 289.479 182.787C289.447 182.908 289.447 183.034 289.48 183.155C289.513 183.275 289.577 183.385 289.666 183.472C289.709 183.502 289.756 183.526 289.805 183.543C289.786 183.673 289.77 183.805 289.757 183.931C289.731 184.196 289.718 184.445 289.702 184.601C289.627 185.391 289.598 186.186 289.614 186.98C289.614 187.837 289.647 188.694 289.634 189.566C289.646 189.817 289.604 190.067 289.511 190.3C289.447 190.421 289.364 190.53 289.265 190.624C289.171 190.333 289.068 190.077 288.958 189.825Z" fill="url(#paint0_linear)"/>
<path d="M263.438 152.313C264.425 152.11 264.761 149.682 264.188 146.889C263.616 144.095 262.352 141.994 261.366 142.197C260.379 142.399 260.044 144.827 260.616 147.621C261.188 150.414 262.452 152.515 263.438 152.313Z" fill="#FBBEBE"/>
<path d="M278.503 256.228C278.238 257.029 278.503 258.032 279.221 258.468C279.511 258.623 279.824 258.732 280.148 258.791C280.587 258.915 281.041 258.977 281.497 258.976C282.056 258.95 282.593 258.73 283.152 258.652C283.216 258.636 283.285 258.645 283.343 258.678C283.371 258.708 283.391 258.744 283.404 258.783C283.416 258.822 283.419 258.864 283.414 258.904C283.42 259.222 283.443 259.54 283.485 259.855C283.485 259.924 283.5 259.993 283.529 260.056C283.558 260.119 283.601 260.175 283.653 260.22C283.734 260.258 283.823 260.274 283.912 260.266H285.664C285.703 258.726 285.535 257.188 285.163 255.694C285.138 255.58 285.095 255.47 285.033 255.371C284.885 255.208 284.689 255.095 284.474 255.048C284.046 254.869 283.583 254.789 283.119 254.812C282.554 254.886 282.082 255.251 281.6 255.555C281.118 255.859 280.462 256.127 279.877 255.972C279.292 255.817 278.804 255.329 278.503 256.228Z" fill="#3F3D56"/>
<path d="M252.776 254.808C252.284 255.336 251.679 255.747 251.008 256.011L250.71 256.153C250.669 256.169 250.634 256.197 250.61 256.234C250.605 256.259 250.605 256.285 250.61 256.31C250.616 256.335 250.627 256.359 250.643 256.379C250.89 256.762 251.256 257.054 251.684 257.209C252.112 257.365 252.58 257.377 253.015 257.243C253.208 257.194 253.386 257.101 253.536 256.971C253.782 256.679 253.924 256.312 253.937 255.93C254.035 255.536 254.018 255.122 253.888 254.737C253.439 253.725 253.274 254.184 252.776 254.808Z" fill="#FBBEBE"/>
<path d="M259.494 258.791C259.504 258.914 259.485 259.036 259.439 259.15C259.287 259.448 258.864 259.431 258.534 259.367C258.484 258.27 258.351 257.178 258.136 256.101C257.509 256.072 257.056 256.667 256.72 257.201L255.854 258.575C255.729 258.811 255.552 259.017 255.337 259.176C255.163 259.271 254.973 259.331 254.777 259.354C253.122 259.629 251.451 259.108 249.854 258.591C249.619 258.528 249.393 258.432 249.185 258.306C248.9 258.097 248.707 257.786 248.646 257.437C248.586 257.089 248.663 256.731 248.861 256.438C249.531 255.532 251.034 255.791 251.868 255.041C251.781 255.569 251.638 256.086 251.441 256.583C252.556 256.415 253.306 255.393 254.205 254.711C254.431 254.52 254.703 254.39 254.994 254.336C255.212 254.318 255.431 254.341 255.641 254.404C256.677 254.665 257.646 255.142 258.485 255.804C258.825 256.072 259.355 256.451 259.504 256.864C259.662 257.359 259.494 258.264 259.494 258.791Z" fill="#3F3D56"/>
<path d="M281.733 152.122C285.421 152.122 288.412 149.132 288.412 145.443C288.412 141.754 285.421 138.763 281.733 138.763C278.044 138.763 275.054 141.754 275.054 145.443C275.054 149.132 278.044 152.122 281.733 152.122Z" fill="#FBBEBE"/>
<path d="M294.89 184.879C294.863 186.156 294.682 187.425 294.35 188.658C294.034 190.19 293.626 191.701 293.128 193.184C292.743 194.261 292.262 195.341 292.265 196.482C292.265 196.957 292.342 197.484 292.051 197.859C291.792 198.122 291.466 198.309 291.108 198.399C290.929 198.446 290.764 198.535 290.625 198.658C290.487 198.781 290.38 198.935 290.312 199.107C290.009 198.653 289.782 198.153 289.64 197.626C289.06 195.85 288.521 194.065 288.023 192.269C287.978 192.166 287.958 192.053 287.966 191.94C287.974 191.828 288.009 191.719 288.069 191.623C288.151 191.551 288.246 191.497 288.35 191.464C288.681 191.329 288.985 191.134 289.245 190.889C289.368 190.78 289.469 190.65 289.543 190.504C289.637 190.272 289.68 190.023 289.669 189.773C289.669 188.917 289.669 188.063 289.646 187.206C289.633 186.415 289.663 185.624 289.737 184.837C289.737 184.681 289.766 184.432 289.792 184.167C289.84 183.66 289.937 183.071 290.212 182.874C290.623 182.599 291.851 182.968 292.317 183.033C293.118 183.142 293.933 183.272 294.715 183.424C294.829 183.9 294.888 184.389 294.89 184.879Z" fill="#3F3D56"/>
<path d="M267.922 152.921C267.663 153.438 267.042 153.687 266.564 154.013L264.925 155.138C264.815 155.237 264.687 155.313 264.547 155.36C264.408 155.408 264.26 155.427 264.113 155.416C263.98 155.367 263.858 155.292 263.754 155.195C263.65 155.097 263.567 154.98 263.509 154.851C263.51 154.842 263.51 154.833 263.509 154.825L263.169 154.256L261.553 151.546C261.373 151.304 261.269 151.014 261.252 150.712C261.252 150.573 261.301 150.444 261.314 150.305C261.318 149.915 261.206 149.532 260.99 149.206C260.861 148.963 260.603 148.763 260.609 148.491C260.597 148.134 260.658 147.779 260.79 147.447C260.96 147.14 261.203 146.88 261.498 146.691C261.65 146.581 261.805 146.477 261.967 146.367C262.053 146.309 262.148 146.265 262.248 146.238C262.516 146.183 262.781 146.406 263.053 146.416C264.22 147.198 264.669 148.679 265.587 149.746C266.105 150.354 266.156 150.819 266.742 151.362C266.835 151.446 266.926 151.537 267.013 151.631C267.129 151.757 267.227 151.898 267.304 152.051C267.411 152.329 268.054 152.655 267.922 152.921Z" fill="#3F3D56"/>
<path d="M279.385 152.125C279.867 153.144 280.242 154.262 280.103 155.381C280.075 155.684 279.978 155.977 279.822 156.238C279.356 156.952 278.38 157.081 277.53 157.123C277.351 157.108 277.17 157.129 276.999 157.185C276.828 157.24 276.67 157.329 276.534 157.447C276.42 157.612 276.365 157.81 276.376 158.01C276.387 158.21 276.464 158.401 276.595 158.552C276.869 158.844 277.208 159.066 277.585 159.199C278.929 159.791 280.381 160.279 281.842 160.143C282.521 160.078 283.181 159.881 283.856 159.781C284.593 159.701 285.333 159.66 286.074 159.658C286.953 159.626 287.829 159.538 288.705 159.451L291.027 159.222C291.153 159.223 291.277 159.179 291.373 159.096C291.544 158.895 291.324 158.601 291.111 158.449C289.879 157.537 288.311 156.91 287.61 155.539C287.286 154.893 287.186 154.123 286.947 153.425C286.708 152.727 286.326 152.096 286.177 151.385C286.098 150.761 286.062 150.132 286.071 149.503C286.079 148.869 285.848 148.255 285.424 147.783C284.962 147.353 284.293 147.243 283.666 147.218C282.12 147.15 280.475 147.518 279.379 148.608C279.085 148.902 278.832 149.254 278.529 149.519C278.225 149.785 277.811 149.862 278.011 150.211C278.212 150.56 278.606 150.777 278.82 151.084C279.036 151.416 279.225 151.764 279.385 152.125Z" fill="#FBBEBE"/>
<path d="M292.552 161.53C292.145 164.019 291.482 166.46 290.574 168.814C290.117 169.877 289.729 170.967 289.41 172.079C289.161 173.081 289.209 174.155 288.98 175.16C288.695 176.411 288.411 177.666 288.181 178.927C287.796 180.852 287.642 182.816 287.722 184.778C287.723 185.087 287.782 185.393 287.897 185.68C288.004 185.913 288.175 186.114 288.275 186.353C288.35 186.563 288.381 186.786 288.365 187.009C288.35 187.231 288.288 187.448 288.185 187.646C288.019 188.016 287.794 188.357 287.519 188.655C284.506 189.553 281.283 189.259 278.144 189.45C275.25 189.625 272.325 190.219 269.473 189.725C269.15 188.432 269.69 187.077 270.152 185.816C271.494 182.153 272.978 178.338 272.738 174.501C272.713 174.053 272.663 173.607 272.586 173.165C272.118 170.447 272.628 167.631 273.446 164.996C273.954 163.353 273.931 161.604 273.815 159.894C273.757 159.339 273.75 158.779 273.792 158.223C273.839 157.654 274.05 157.112 274.4 156.661C274.4 156.638 274.429 156.616 274.445 156.593C274.461 156.571 274.587 156.574 274.688 156.593C274.713 156.604 274.741 156.61 274.769 156.61C274.796 156.61 274.824 156.604 274.849 156.593L274.885 156.571C274.899 156.561 274.915 156.556 274.932 156.556C274.949 156.556 274.965 156.561 274.979 156.571C275.053 156.616 275.095 156.771 275.257 156.8C275.496 156.836 275.736 156.859 275.978 156.868C276.268 156.877 276.556 156.918 276.838 156.991H276.876C277.297 157.062 277.728 157.025 278.131 156.884C278.398 156.817 278.657 156.717 278.9 156.587C278.971 156.509 279.417 156.438 279.508 156.383C279.802 156.205 279.737 155.371 279.799 155.028C279.833 154.685 279.914 154.347 280.041 154.026C280.188 153.789 280.392 153.592 280.633 153.451C280.874 153.311 281.146 153.232 281.425 153.221C281.982 153.208 282.538 153.258 283.083 153.37C284.289 153.541 285.524 153.512 286.707 153.79C287.302 153.929 287.952 154.139 288.498 153.868C288.647 153.903 288.67 154.033 288.67 154.191C288.656 154.342 288.625 154.49 288.579 154.634C288.372 155.526 289.074 156.347 289.72 156.994C289.993 157.299 290.316 157.556 290.674 157.754C290.997 157.903 291.321 157.964 291.644 158.126C291.906 158.265 292.128 158.469 292.29 158.717C292.477 159.002 292.602 159.322 292.659 159.658C292.728 160.284 292.692 160.916 292.552 161.53Z" fill="#3F3D56"/>
<path opacity="0.1" d="M292.552 161.53C292.145 164.019 291.482 166.46 290.574 168.814C290.118 169.877 289.729 170.967 289.41 172.079C289.161 173.081 289.21 174.155 288.98 175.16C288.696 176.411 288.411 177.666 288.182 178.927C288.114 178.966 288.043 179.001 287.972 179.033C287.569 179.225 287.143 179.363 286.704 179.441C285.916 179.536 285.118 179.51 284.338 179.363L279.725 178.746C277.882 178.497 275.92 178.196 274.552 176.948C273.792 176.263 273.295 175.357 272.748 174.485C272.723 174.037 272.672 173.591 272.596 173.149C272.128 170.43 272.638 167.614 273.456 164.98C273.964 163.337 273.941 161.588 273.825 159.878C273.767 159.323 273.76 158.763 273.802 158.206C273.849 157.638 274.06 157.095 274.41 156.645C274.504 156.617 274.6 156.596 274.698 156.58C274.763 156.567 274.829 156.558 274.895 156.554H274.989C275.097 156.555 275.206 156.568 275.312 156.593C275.532 156.663 275.748 156.746 275.958 156.842H275.997C276.274 156.933 276.566 156.975 276.857 156.965C277.284 156.965 277.724 156.897 278.15 156.868C278.677 156.786 279.217 156.882 279.683 157.143C279.983 157.384 280.268 157.645 280.536 157.922C280.86 158.176 281.223 158.374 281.613 158.507C284.395 159.569 287.483 159.504 290.218 158.326C290.481 158.177 290.779 158.101 291.082 158.106C291.305 158.15 291.516 158.24 291.702 158.371C291.896 158.484 292.087 158.594 292.284 158.695C292.47 158.979 292.596 159.3 292.653 159.635C292.727 160.268 292.693 160.909 292.552 161.53Z" fill="black"/>
<path d="M295.368 159.39C294.081 158.996 292.844 158.454 291.683 157.773C291.496 157.643 291.285 157.553 291.062 157.508C290.759 157.505 290.46 157.58 290.196 157.728C287.461 158.906 284.375 158.971 281.593 157.909C281.205 157.774 280.841 157.577 280.517 157.324C280.248 157.047 279.963 156.787 279.663 156.545C278.6 155.856 277.129 156.664 275.939 156.221C275.728 156.127 275.512 156.044 275.293 155.972C274.352 155.736 273.395 156.674 272.47 156.389C272.126 157.325 271.872 158.29 271.711 159.273C271.579 160.402 271.509 161.538 271.501 162.674C271.501 163.357 271.468 164.039 271.501 164.721C271.614 164.74 271.723 164.782 271.82 164.845C271.917 164.907 272 164.99 272.063 165.086C272.105 165.199 272.123 165.319 272.114 165.439C272.105 165.56 272.07 165.676 272.011 165.781C271.336 167.517 270.65 169.273 269.625 170.828C270.348 171.258 271.018 171.77 271.623 172.354C272.755 173.55 273.311 175.228 274.533 176.334C275.91 177.579 277.872 177.882 279.705 178.128L284.319 178.746C285.1 178.892 285.899 178.919 286.688 178.826C287.126 178.747 287.551 178.608 287.952 178.416C288.214 178.306 288.453 178.148 288.657 177.95C288.827 177.757 288.968 177.539 289.074 177.304C289.439 176.573 289.772 175.826 290.079 175.07C290.186 174.801 290.348 174.488 290.639 174.465C292.352 172.92 293.969 171.336 295.682 169.79C296.37 169.22 296.988 168.568 297.521 167.85C298.372 166.593 297.599 164.811 297.521 163.292C297.512 162.903 297.463 162.517 297.376 162.138C297.098 161.035 296.445 159.716 295.368 159.39Z" fill="#7D3CFF"/>
<path opacity="0.1" d="M267.922 152.921C267.663 153.438 267.043 153.687 266.564 154.013L264.925 155.138C264.816 155.237 264.687 155.313 264.548 155.36C264.409 155.408 264.261 155.427 264.114 155.416C263.98 155.367 263.858 155.292 263.754 155.195C263.651 155.097 263.567 154.98 263.509 154.851C263.509 154.776 263.509 154.695 263.509 154.618C263.497 154.356 263.532 154.094 263.613 153.845C263.773 153.48 264.022 153.16 264.337 152.914C264.946 152.338 265.669 151.897 266.461 151.621C266.584 151.573 266.718 151.559 266.849 151.582C266.899 151.595 266.947 151.616 266.991 151.643C267.107 151.77 267.205 151.911 267.282 152.064C267.411 152.329 268.055 152.655 267.922 152.921Z" fill="black"/>
<path d="M271.782 156.328C271.232 156.302 270.783 155.905 270.382 155.526L269.157 154.388C269.075 154.319 269.003 154.238 268.943 154.149C268.877 154.023 268.827 153.89 268.795 153.751C268.535 153.098 268.128 152.514 267.605 152.044C267.514 151.929 267.392 151.841 267.253 151.792C267.121 151.768 266.985 151.781 266.861 151.831C266.07 152.107 265.346 152.547 264.737 153.124C264.423 153.37 264.174 153.69 264.013 154.055C263.932 154.304 263.897 154.566 263.91 154.828C263.917 155.682 264.109 156.525 264.472 157.298C264.527 157.418 264.589 157.537 264.653 157.654C265.085 158.367 265.594 159.029 266.173 159.629L266.942 160.489C267.699 161.336 268.455 162.183 269.276 162.962C269.571 163.276 269.927 163.525 270.324 163.693C270.523 163.774 270.74 163.799 270.952 163.765C271.164 163.73 271.363 163.638 271.526 163.499C271.681 163.32 271.798 163.111 271.869 162.885C272.367 161.591 272.839 160.246 272.868 158.853C272.875 158.295 272.851 157.737 272.797 157.182C272.748 156.593 272.331 156.364 271.782 156.328Z" fill="#7D3CFF"/>
<path d="M291.373 201.59C291.354 204.842 291.123 208.09 290.681 211.312C290.616 211.832 290.545 212.353 290.51 212.873C290.403 214.383 290.578 215.899 290.435 217.399C290.361 218.211 290.193 219.016 290.051 219.808C289.419 223.343 289.234 226.944 289.501 230.525C289.947 236.484 288.58 242.445 289.2 248.388C289.276 249.543 289.212 250.703 289.01 251.844C288.894 252.551 288.726 253.249 288.509 253.932C288.037 255.551 287.562 257.167 287.086 258.782C287.03 259.027 286.92 259.257 286.763 259.454C286.598 259.597 286.404 259.702 286.195 259.764C285.986 259.826 285.766 259.843 285.551 259.813C283.685 259.755 281.93 258.95 280.236 258.164C280.041 258.087 279.861 257.978 279.702 257.841C279.35 257.475 279.379 256.9 279.224 256.418C279.069 255.937 278.648 255.484 278.409 254.989C278.213 254.521 278.094 254.025 278.057 253.518C277.841 251.863 277.695 250.201 277.617 248.533C277.494 246.186 279.046 244.026 279.557 241.744C280.527 237.256 279.706 232.446 281.429 228.188C281.972 226.843 281.183 225.213 281.105 223.765C281.077 222.831 280.956 221.901 280.743 220.991C280.42 219.776 279.738 218.631 279.689 217.37C279.654 216.458 279.948 215.569 280.1 214.671C280.302 213.348 280.283 212.001 280.045 210.684C279.874 209.598 279.612 208.512 279.35 207.451L279.292 207.571C278.504 209.111 277.827 210.704 277.265 212.34C277.006 213.132 276.78 213.94 276.457 214.709C276.192 215.356 275.865 215.948 275.545 216.555C274.397 218.699 273.398 220.919 272.555 223.199C272.154 224.318 271.801 225.462 271.452 226.584L269.057 234.343C268.41 236.383 267.702 238.356 267.068 240.392C266.173 243.302 265.278 246.186 264.237 249.031C263.267 251.73 262.113 254.527 262.458 257.379C261.567 257.797 260.588 257.996 259.604 257.957C257.938 257.81 256.303 257.413 254.755 256.78C254.137 256.551 253.497 256.292 253.08 255.785C252.362 254.909 252.54 253.625 252.757 252.51C252.838 252.007 252.968 251.513 253.145 251.035C253.39 250.441 253.791 249.914 254.043 249.325C254.551 248.197 254.583 246.92 254.784 245.694C254.984 244.469 255.43 243.176 256.478 242.51C256.656 240.357 257.541 238.233 258.03 236.128C258.398 234.534 258.521 232.895 258.812 231.279C259.103 229.662 259.572 228.046 260.548 226.736C260.471 225.386 260.776 224.042 261.427 222.857C261.585 222.596 261.714 222.32 261.812 222.032C261.872 221.751 261.907 221.466 261.915 221.179C262.022 220.055 262.503 219 263.28 218.182C262.956 217.002 263.406 215.77 263.81 214.625C264.319 213.165 264.549 211.622 264.489 210.077C264.439 209.645 264.459 209.208 264.55 208.783C264.641 208.46 264.818 208.185 264.922 207.875C265.014 207.495 265.063 207.105 265.067 206.714C265.193 204.965 265.901 203.316 266.684 201.755C267.149 200.843 266.755 199.605 266.852 198.59C267.02 196.902 267.204 195.156 268.042 193.685C268.197 193.407 268.365 193.142 268.504 192.854C268.672 192.444 268.763 192.005 268.772 191.561C268.801 190.821 268.905 190.207 268.64 189.518C270.369 188.079 272.729 187.675 274.979 187.578C277.229 187.481 279.505 187.685 281.707 187.206C282.353 187.061 283 186.86 283.682 186.763C285.23 186.537 286.802 186.89 288.331 187.239C288.224 188.209 288.58 189.14 288.977 190.042C290.53 193.695 291.344 197.62 291.373 201.59Z" fill="#33313F"/>
<path opacity="0.1" d="M283.759 202.33L280.045 210.684C279.873 209.598 279.612 208.512 279.35 207.451L279.292 207.571V207.396L281.315 202.945L283.759 202.33Z" fill="black"/>
<path opacity="0.1" d="M294.89 184.879C294.675 185.039 294.42 185.134 294.153 185.153C293.743 185.168 293.334 185.112 292.944 184.989L290.034 184.261C289.943 184.239 289.854 184.207 289.769 184.167C289.818 183.66 289.915 183.071 290.189 182.874C290.6 182.599 291.828 182.968 292.294 183.033C293.096 183.142 293.91 183.272 294.693 183.424C294.814 183.9 294.88 184.388 294.89 184.879Z" fill="black"/>
<path d="M297.35 165.642C297.412 165.911 297.499 166.176 297.551 166.447C297.638 167.114 297.615 167.79 297.483 168.449L297.218 170.298L296.953 172.157L295.928 179.311L295.676 181.083L295.32 183.556C295.303 183.762 295.251 183.963 295.165 184.151C295.059 184.327 294.911 184.474 294.735 184.578C294.558 184.682 294.358 184.741 294.153 184.749C293.744 184.762 293.335 184.707 292.944 184.584L290.035 183.854C289.907 183.831 289.786 183.781 289.679 183.708C289.59 183.621 289.526 183.512 289.493 183.393C289.46 183.273 289.459 183.146 289.491 183.026C289.533 182.78 289.64 182.551 289.676 182.305C289.747 181.827 289.546 181.335 289.617 180.86C289.687 180.557 289.796 180.265 289.941 179.99C290.911 177.847 290.348 175.345 290.678 173.017C290.975 171.185 291.748 169.463 292.921 168.025C293.645 167.117 294.477 166.301 295.398 165.594C295.76 165.313 296.335 164.734 296.791 164.624C297.376 164.501 297.253 165.235 297.35 165.642Z" fill="#7D3CFF"/>
<path d="M275.332 137.793C275.118 138.472 275.451 139.219 275.299 139.911C275.134 140.674 274.417 141.204 274.213 141.97C273.89 143.137 274.879 144.201 275.603 145.171C278.286 148.773 277.934 153.758 277.016 158.151C276.277 161.676 275.256 165.136 273.961 168.497C273.557 169.541 273.111 170.602 272.315 171.384C273.803 170.957 275.383 170.527 276.874 170.941C278.762 171.465 280.391 173.298 282.305 172.881C283.456 172.626 284.264 171.604 285.298 171.038C287.238 169.994 289.575 170.65 291.738 170.986C292.204 171.096 292.692 171.072 293.144 170.915C293.49 170.729 293.784 170.459 293.998 170.13C294.963 168.891 295.541 167.395 295.659 165.83C295.711 165.05 295.596 164.269 295.322 163.537C295.048 162.805 294.622 162.14 294.072 161.585C293.613 161.152 293.064 160.803 292.711 160.292C292.368 159.695 292.185 159.021 292.178 158.333C291.922 154.776 292.789 151.146 291.897 147.706C291.573 146.48 291.046 145.307 290.904 144.052C290.726 142.491 291.15 140.819 290.529 139.39C290.041 138.256 288.964 137.451 287.804 137.037C286.643 136.623 285.402 136.507 284.17 136.39C282.399 136.241 276.072 135.482 275.332 137.793Z" fill="#33313F"/>
<g opacity="0.1">
<path opacity="0.1" d="M277.016 158.151C276.281 161.662 275.265 165.108 273.977 168.455C274.2 168.012 274.388 167.547 274.565 167.084C275.861 163.724 276.883 160.264 277.62 156.739C278.542 152.342 278.894 147.363 276.211 143.758C275.564 142.898 274.734 141.967 274.763 140.958C274.524 141.264 274.338 141.607 274.213 141.974C273.89 143.141 274.879 144.204 275.603 145.174C278.286 148.773 277.934 153.758 277.016 158.151Z" fill="black"/>
<path opacity="0.1" d="M275.338 139.584C275.598 139.262 275.791 138.892 275.907 138.495C275.957 138.015 275.944 137.53 275.869 137.053C275.62 137.24 275.433 137.498 275.332 137.793C275.141 138.366 275.361 138.986 275.338 139.584Z" fill="black"/>
<path opacity="0.1" d="M294.606 168.707C294.392 169.036 294.098 169.305 293.752 169.49C293.3 169.649 292.812 169.674 292.346 169.561C290.183 169.237 287.82 168.571 285.906 169.616C284.868 170.178 284.063 171.2 282.909 171.458C280.999 171.885 279.369 170.052 277.481 169.519C276.143 169.147 274.734 169.454 273.385 169.842C273.118 170.413 272.756 170.936 272.315 171.387C273.803 170.961 275.383 170.531 276.874 170.944C278.762 171.468 280.391 173.301 282.305 172.884C283.456 172.629 284.264 171.607 285.298 171.041C287.238 169.997 289.575 170.653 291.738 170.99C292.204 171.1 292.692 171.075 293.144 170.919C293.49 170.733 293.784 170.462 293.998 170.133C294.584 169.36 295.036 168.495 295.336 167.572C295.12 167.968 294.876 168.347 294.606 168.707Z" fill="black"/>
</g>
</g>
<defs>
<linearGradient id="paint0_linear" x1="248.474" y1="197.995" x2="297.936" y2="197.995" gradientUnits="userSpaceOnUse">
<stop stop-color="#808080" stop-opacity="0.25"/>
<stop offset="0.54" stop-color="#808080" stop-opacity="0.12"/>
<stop offset="1" stop-color="#808080" stop-opacity="0.1"/>
</linearGradient>
<clipPath id="clip0">
<rect width="377" height="260.285" fill="white"/>
</clipPath>
</defs>
</svg>
