<svg width="377" height="225" viewBox="0 0 377 225" fill="none" xmlns="http://www.w3.org/2000/svg">
<g clip-path="url(#clip0)">
<path d="M288.64 222.456C283.813 218.384 280.882 211.953 281.65 205.692C282.419 199.431 287.181 193.675 293.358 192.345C299.535 191.016 306.577 194.696 308.453 200.72C309.486 189.106 310.675 177.007 316.861 167.117C322.461 158.162 332.161 151.755 342.674 150.608C353.186 149.462 364.255 153.792 370.811 162.075C377.368 170.358 378.973 182.399 374.381 191.909C370.998 198.914 364.766 204.128 358.236 208.369C337.137 221.96 311.83 227.486 286.973 223.932L288.64 222.456Z" fill="#F2F2F2"/>
<path d="M360.415 154.031C351.741 161.084 343.783 168.973 336.657 177.582C325.505 191.009 316.48 206.064 309.898 222.221C309.416 223.4 311.334 223.913 311.81 222.748C322.58 196.489 339.773 173.344 361.817 155.431C362.807 154.626 361.397 153.233 360.415 154.031Z" fill="white"/>
<path d="M121.362 221.349C127.992 215.757 132.018 206.924 130.962 198.324C129.906 189.725 123.366 181.819 114.882 179.993C106.397 178.166 96.7261 183.222 94.1492 191.495C92.731 175.544 91.0967 158.925 82.6015 145.342C74.9093 133.042 61.5863 124.242 47.1472 122.667C32.708 121.093 17.5055 127.039 8.50029 138.416C-0.504875 149.793 -2.70975 166.332 3.59723 179.394C8.24337 189.016 16.8032 196.176 25.7717 202.002C54.3845 220.588 89.8787 228.339 123.652 223.378" fill="#F2F2F2"/>
<path d="M22.7789 127.369C34.6929 137.056 45.6229 147.891 55.4105 159.715C65.1997 171.528 73.8181 184.261 81.1445 197.735C85.2396 205.293 88.9184 213.069 92.1643 221.028C92.8261 222.647 90.1927 223.351 89.5382 221.75C83.7888 207.719 76.6757 194.285 68.3009 181.639C59.9669 169.039 50.4281 157.276 39.8185 146.514C33.8177 140.431 27.4864 134.681 20.8531 129.291C19.4935 128.186 21.4305 126.273 22.7789 127.369L22.7789 127.369Z" fill="white"/>
<path d="M270.617 224.507H112.45V62.5074C112.45 28.0406 140.54 1.52588e-05 175.067 1.52588e-05H208C242.527 1.52588e-05 270.617 28.0406 270.617 62.5074V224.507Z" fill="#F2F2F2"/>
<path d="M237.683 224.507H112.45V62.5074C112.415 49.3005 116.605 36.4274 124.408 25.7624C124.696 25.371 124.983 24.9847 125.279 24.6026C129.053 19.6609 133.545 15.3088 138.605 11.6899C138.891 11.4823 139.178 11.2783 139.469 11.0742C143.704 8.1489 148.285 5.75749 153.107 3.95445C153.394 3.84609 153.685 3.73753 153.977 3.63339C158.339 2.07961 162.86 1.01527 167.457 0.46004C167.742 0.421173 168.035 0.390759 168.328 0.360344C172.808 -0.117856 177.326 -0.117856 181.807 0.360344C182.098 0.390759 182.391 0.421169 182.679 0.460456C187.276 1.01573 191.796 2.07993 196.156 3.63341C196.448 3.73755 196.739 3.84611 197.027 3.95468C201.79 5.73497 206.317 8.09069 210.506 10.9693C210.797 11.1689 211.089 11.3729 211.376 11.5769C214.212 13.5983 216.877 15.8501 219.342 18.3096C221.319 20.2823 223.161 22.3851 224.856 24.6039C225.151 24.9847 225.437 25.371 225.725 25.7618C233.528 36.4269 237.718 49.3003 237.683 62.5074V224.507Z" fill="#CCCCCC"/>
<path d="M227.5 152.051C231.329 152.051 234.433 148.952 234.433 145.13C234.433 141.307 231.329 138.208 227.5 138.208C223.671 138.208 220.566 141.307 220.566 145.13C220.566 148.952 223.671 152.051 227.5 152.051Z" fill="#7D3CFF"/>
<path d="M257.66 219.655H252.347L249.82 199.2L257.661 199.2L257.66 219.655Z" fill="#FFB8B8"/>
<path d="M248.552 218.14H258.797V224.58H242.101C242.101 223.734 242.268 222.897 242.592 222.115C242.916 221.334 243.391 220.624 243.99 220.026C244.589 219.428 245.3 218.954 246.083 218.63C246.866 218.306 247.705 218.14 248.552 218.14Z" fill="#2F2E41"/>
<path d="M284.093 219.655H278.781L276.253 199.2L284.094 199.2L284.093 219.655Z" fill="#FFB8B8"/>
<path d="M274.985 218.14H285.231V224.58H268.534C268.534 223.734 268.701 222.897 269.025 222.115C269.349 221.334 269.825 220.624 270.424 220.026C271.023 219.428 271.734 218.954 272.516 218.63C273.299 218.306 274.138 218.14 274.985 218.14Z" fill="#2F2E41"/>
<path d="M231.009 146.501C230.627 145.939 230.373 145.3 230.265 144.629C230.157 143.958 230.197 143.272 230.383 142.619C230.57 141.965 230.897 141.36 231.343 140.847C231.789 140.334 232.342 139.924 232.964 139.647L251.023 89.9587L259.91 94.7998L239.289 142.284C239.686 143.357 239.675 144.538 239.258 145.603C238.84 146.669 238.046 147.544 237.025 148.064C236.005 148.584 234.828 148.712 233.72 148.424C232.611 148.135 231.646 147.451 231.009 146.501Z" fill="#FFB8B8"/>
<path d="M281.379 155.837C280.789 155.5 280.28 155.037 279.888 154.481C279.496 153.925 279.231 153.291 279.112 152.622C278.992 151.953 279.021 151.267 279.196 150.61C279.371 149.954 279.688 149.343 280.125 148.823L274.531 96.2604L284.644 96.7216L286.969 148.423C287.797 149.214 288.305 150.281 288.398 151.421C288.491 152.561 288.162 153.695 287.473 154.609C286.784 155.523 285.783 156.153 284.66 156.379C283.537 156.605 282.369 156.413 281.379 155.837Z" fill="#FFB8B8"/>
<path d="M265.246 80.755C271.124 80.755 275.889 75.9983 275.889 70.1305C275.889 64.2627 271.124 59.506 265.246 59.506C259.368 59.506 254.603 64.2627 254.603 70.1305C254.603 75.9983 259.368 80.755 265.246 80.755Z" fill="#FFB8B8"/>
<path d="M281.311 143.883H249.224L249.263 143.634C249.32 143.261 254.981 106.242 250.806 94.1316C250.387 92.9414 250.424 91.6386 250.91 90.474C251.395 89.3093 252.295 88.3651 253.436 87.8231H253.436C259.404 85.0177 270.86 81.5632 280.528 89.9467C281.951 91.2007 283.062 92.7679 283.774 94.5244C284.485 96.2809 284.777 98.1785 284.627 100.067L281.311 143.883Z" fill="#7D3CFF"/>
<path d="M255.387 111.713L240.941 108.788L247.712 92.7694C248.118 91.218 249.123 89.8903 250.507 89.0776C251.892 88.2649 253.543 88.0336 255.098 88.4344C256.653 88.8352 257.985 89.8353 258.803 91.2154C259.62 92.5956 259.856 94.243 259.458 95.7964L255.387 111.713Z" fill="#7D3CFF"/>
<path d="M273.889 117.145L273.02 97.2722C272.362 93.5364 274.504 90.0048 277.799 89.4275C281.094 88.8524 284.312 91.4434 284.974 95.2067L288.238 113.776L273.889 117.145Z" fill="#7D3CFF"/>
<path d="M280.244 141.504C285.407 161.133 285.97 186.089 284.577 213.312L277.644 212.447L265.077 160.537L258.144 213.312L250.344 212.879C248.013 184.316 245.744 159.795 249.477 143.667L280.244 141.504Z" fill="#2F2E41"/>
<path d="M272.259 78.3415C270.273 80.4528 266.586 79.3194 266.327 76.435C266.307 76.2111 266.308 75.9857 266.331 75.7621C266.465 74.4844 267.204 73.3245 267.027 71.9755C266.987 71.6397 266.862 71.3198 266.663 71.0459C265.081 68.9309 261.367 71.9919 259.874 70.0772C258.958 68.9032 260.034 67.0548 259.332 65.7426C258.404 64.0107 255.658 64.8651 253.935 63.9166C252.019 62.8613 252.133 59.926 253.395 58.1406C254.933 55.9631 257.631 54.8013 260.295 54.6338C262.959 54.4664 265.604 55.1852 268.092 56.1528C270.917 57.2521 273.72 58.7714 275.458 61.2518C277.573 64.2682 277.777 68.3235 276.719 71.8507C276.076 73.9963 273.88 76.6173 272.259 78.3415Z" fill="#2F2E41"/>
<path d="M363.992 224.786H44.0648C43.9282 224.785 43.7973 224.731 43.7009 224.634C43.6045 224.538 43.5503 224.407 43.5503 224.271C43.5503 224.134 43.6045 224.004 43.7009 223.907C43.7973 223.811 43.9282 223.756 44.0648 223.756H363.992C364.129 223.756 364.26 223.811 364.356 223.907C364.452 224.004 364.507 224.134 364.507 224.271C364.507 224.407 364.452 224.538 364.356 224.634C364.26 224.731 364.129 224.785 363.992 224.786Z" fill="#3F3D56"/>
<path d="M203.234 177.573H146.9C146.158 177.577 145.445 177.287 144.917 176.767C144.389 176.246 144.089 175.538 144.083 174.798V49.2771C144.089 48.5366 144.389 47.8285 144.917 47.3082C145.445 46.788 146.158 46.498 146.9 46.502H203.234C203.975 46.498 204.689 46.788 205.217 47.3082C205.745 47.8285 206.044 48.5366 206.05 49.2771V174.798C206.044 175.538 205.745 176.246 205.217 176.767C204.689 177.287 203.975 177.577 203.234 177.573Z" fill="white"/>
<path d="M206.05 87.1165H144.083V87.9817H206.05V87.1165Z" fill="#CCCCCC"/>
<path d="M206.267 136.478H144.3V137.343H206.267V136.478Z" fill="#CCCCCC"/>
<path d="M164.45 46.502H163.583V178.005H164.45V46.502Z" fill="#CCCCCC"/>
<path d="M186.116 46.502H185.25V178.005H186.116V46.502Z" fill="#CCCCCC"/>
</g>
<defs>
<clipPath id="clip0">
<rect width="377" height="225" fill="white"/>
</clipPath>
</defs>
</svg>
