<svg width="335" height="327" viewBox="0 0 335 327" fill="none" xmlns="http://www.w3.org/2000/svg">
<g clip-path="url(#clip0)" filter="url(#filter0_d)">
<path d="M331 250.09H4V250.253H331V250.09Z" fill="#EBEBEB"/>
<path d="M298.234 260.612H276.574V260.776H298.234V260.612Z" fill="#EBEBEB"/>
<path d="M220.618 262.391H214.935V262.555H220.618V262.391Z" fill="#EBEBEB"/>
<path d="M275.92 254.543H263.37V254.707H275.92V254.543Z" fill="#EBEBEB"/>
<path d="M66.5551 255.642H38.3088V255.806H66.5551V255.642Z" fill="#EBEBEB"/>
<path d="M76.5221 255.642H72.3823V255.806H76.5221V255.642Z" fill="#EBEBEB"/>
<path d="M151.248 258.402H89.9814V258.565H151.248V258.402Z" fill="#EBEBEB"/>
<path d="M158.998 220.921H32.7172C31.7279 220.919 30.7797 220.525 30.0808 219.825C29.3819 219.125 28.9894 218.176 28.9894 217.187V39.6716C28.998 38.688 29.3943 37.7476 30.0923 37.0545C30.7903 36.3614 31.7335 35.9717 32.7172 35.97H158.998C159.988 35.97 160.938 36.3634 161.639 37.0638C162.339 37.7641 162.732 38.7139 162.732 39.7043V217.187C162.732 218.177 162.339 219.127 161.639 219.827C160.938 220.528 159.988 220.921 158.998 220.921ZM32.7172 36.1008C31.7713 36.1025 30.8647 36.4795 30.1964 37.149C29.5282 37.8185 29.1529 38.7257 29.1529 39.6716V217.187C29.1529 218.133 29.5282 219.04 30.1964 219.71C30.8647 220.379 31.7713 220.756 32.7172 220.758H158.998C159.945 220.756 160.852 220.379 161.521 219.71C162.19 219.041 162.567 218.133 162.569 217.187V39.6716C162.567 38.7251 162.19 37.8179 161.521 37.1486C160.852 36.4793 159.945 36.1025 158.998 36.1008H32.7172Z" fill="#EBEBEB"/>
<path d="M300.465 220.921H174.177C173.187 220.919 172.239 220.525 171.539 219.826C170.839 219.126 170.445 218.177 170.443 217.187V39.6716C170.453 38.6874 170.851 37.747 171.55 37.0541C172.249 36.3612 173.193 35.9717 174.177 35.97H300.465C301.447 35.9734 302.389 36.3639 303.085 37.0568C303.782 37.7497 304.177 38.6892 304.186 39.6716V217.187C304.186 218.175 303.794 219.123 303.097 219.823C302.399 220.523 301.453 220.918 300.465 220.921ZM174.177 36.1008C173.231 36.1025 172.324 36.4793 171.654 37.1486C170.985 37.8179 170.608 38.7251 170.606 39.6716V217.187C170.608 218.133 170.985 219.041 171.654 219.71C172.324 220.379 173.231 220.756 174.177 220.758H300.465C301.411 220.756 302.318 220.379 302.988 219.71C303.657 219.041 304.034 218.133 304.036 217.187V39.6716C304.034 38.7251 303.657 37.8179 302.988 37.1486C302.318 36.4793 301.411 36.1025 300.465 36.1008H174.177Z" fill="#EBEBEB"/>
<path d="M147.291 250.09H159.469V166.463H147.291V250.09Z" fill="#E6E6E6"/>
<path d="M151.582 250.09H147.291V234.197H156.075L151.582 250.09Z" fill="#F0F0F0"/>
<path d="M276.084 250.09H288.261V166.463H276.084V250.09Z" fill="#E6E6E6"/>
<path d="M147.298 245.747L279.824 245.747V166.456H147.298V245.747Z" fill="#F0F0F0"/>
<path d="M275.534 250.09H279.824V234.197H271.041L275.534 250.09Z" fill="#F0F0F0"/>
<path d="M236.131 173.022V238.612H275.417V173.022H236.131Z" fill="#E6E6E6"/>
<path d="M251.866 175.331H259.635C262.929 175.378 266.121 174.191 268.582 172.002H242.958C245.411 174.18 248.586 175.367 251.866 175.331Z" fill="#F0F0F0"/>
<path d="M193.915 173.022V238.612H233.201V173.022H193.915Z" fill="#E6E6E6"/>
<path d="M209.271 175.331H217.047C220.333 175.372 223.517 174.185 225.974 172.002H200.35C202.805 174.185 205.986 175.372 209.271 175.331Z" fill="#F0F0F0"/>
<path d="M151.699 173.029V238.618H190.985V173.029H151.699Z" fill="#E6E6E6"/>
<path d="M167.062 175.331H174.831C178.118 175.372 181.301 174.185 183.758 172.002H158.135C160.591 174.186 163.775 175.373 167.062 175.331Z" fill="#F0F0F0"/>
<path d="M52.7885 250.09H135.886L135.886 63.2941H52.7885L52.7885 250.09Z" fill="#F0F0F0"/>
<path d="M52.7884 250.09H134.133L134.133 63.2941H52.7884L52.7884 250.09Z" fill="#F5F5F5"/>
<path d="M129.176 245.852V67.532H57.7458L57.7458 245.852H129.176Z" fill="#F0F0F0"/>
<path d="M122.158 100.716C122.159 98.1587 121.656 95.6262 120.678 93.2633C119.7 90.9004 118.266 88.7533 116.458 86.9447C114.65 85.1361 112.503 83.7014 110.141 82.7225C107.778 81.7437 105.246 81.2399 102.689 81.2399H84.2458C79.0804 81.2399 74.1266 83.2918 70.4741 86.9443C66.8216 90.5968 64.7697 95.5506 64.7697 100.716H122.158Z" fill="#FAFAFA"/>
<path d="M122.165 234.766V192.165H64.7762V234.766H122.165Z" fill="#F5F5F5"/>
<path d="M122.165 112.704H96.8483V186.665H122.165V112.704Z" fill="#F5F5F5"/>
<path d="M90.086 112.704H64.7697V186.665H90.086V112.704Z" fill="#F5F5F5"/>
<path d="M73.978 149.354H63.5794C63.1527 149.354 62.7435 149.184 62.4418 148.883C62.1401 148.581 61.9706 148.172 61.9706 147.745C61.9723 147.319 62.1424 146.911 62.4437 146.609C62.745 146.308 63.1533 146.138 63.5794 146.136H73.978C74.4042 146.138 74.8124 146.308 75.1137 146.609C75.4151 146.911 75.5851 147.319 75.5869 147.745C75.5869 148.172 75.4174 148.581 75.1156 148.883C74.8139 149.184 74.4047 149.354 73.978 149.354Z" fill="#E0E0E0"/>
<path d="M59.0341 245.852L59.0341 67.532H57.7457L57.7457 245.852H59.0341Z" fill="#F0F0F0"/>
<path d="M188.454 145.96H276.574V53.8438L188.454 53.8438V145.96Z" fill="#E6E6E6"/>
<path d="M186.231 145.96H274.351V53.8438L186.231 53.8438V145.96Z" fill="#F5F5F5"/>
<path d="M181.083 150.747H276.574V145.96H181.083V150.747Z" fill="#E6E6E6"/>
<path d="M178.579 150.747H269.151V145.96H178.579V150.747Z" fill="#F5F5F5"/>
<path d="M270.368 141.663V58.1471L190.22 58.1471V141.663H270.368Z" fill="white"/>
<path d="M232.514 141.663V58.1471H228.074V141.663H232.514Z" fill="#F5F5F5"/>
<path d="M191.894 141.663V58.1471H190.213V141.663H191.894Z" fill="#E6E6E6"/>
<path d="M234.195 141.663V58.1471H232.514V141.663H234.195Z" fill="#E6E6E6"/>
<path d="M200.298 148.151C198.676 131.356 197.545 104.11 198.421 94.9935C198.439 94.8382 198.489 94.6882 198.568 94.5531C198.647 94.4181 198.753 94.3008 198.879 94.2087C199.048 94.0849 199.248 94.011 199.457 93.9955C199.666 93.98 199.875 94.0234 200.06 94.1209C200.246 94.2184 200.4 94.3659 200.506 94.5468C200.611 94.7277 200.664 94.9346 200.658 95.1439C200.507 99.6631 200.331 110.951 201.312 130.421C201.789 140.113 202.476 146.771 202.005 148.151H200.298Z" fill="#E6E6E6"/>
<path d="M194.255 109.447C189.638 104.32 180.214 100.677 170.613 100.696C166.839 100.696 182.084 106.654 188.421 113.227C193.346 118.328 198.885 126.915 200.789 131.683C199.546 121.644 198.892 114.568 194.255 109.447Z" fill="#E6E6E6"/>
<path d="M203.405 111.01C207.237 105.673 216.079 101.566 225.641 101.102C229.394 100.919 215.098 107.642 209.761 114.483C205.622 119.813 201.371 128.648 200.2 133.488C199.932 123.436 199.546 116.347 203.405 111.01Z" fill="#E6E6E6"/>
<path d="M194.052 90.736C190.128 86.3934 182.163 83.3065 174.027 83.3262C170.835 83.3262 183.739 88.375 189.108 93.934C193.281 98.257 197.983 105.529 199.572 109.565C198.545 101.076 197.957 95.072 194.052 90.736Z" fill="#E6E6E6"/>
<path d="M201.796 97.1517C205.066 92.6326 212.528 89.1533 220.638 88.7609C223.816 88.6105 211.71 94.2806 207.191 100.095C203.686 104.607 200.082 112.089 199.095 116.19C198.892 107.675 198.552 101.671 201.796 97.1517Z" fill="#E6E6E6"/>
<path d="M200.946 166.463C198.51 166.463 196.167 165.532 194.396 163.86C192.626 162.188 191.562 159.902 191.423 157.47L190.58 142.873H211.318L210.474 157.47C210.336 159.903 209.271 162.19 207.499 163.862C205.727 165.534 203.382 166.465 200.946 166.463Z" fill="#E6E6E6"/>
<path d="M212.659 146.189H189.239L188.565 140.113H213.326L212.659 146.189Z" fill="#E6E6E6"/>
<path d="M167.5 279.624C237.532 279.624 294.304 276.31 294.304 272.221C294.304 268.132 237.532 264.818 167.5 264.818C97.468 264.818 40.6959 268.132 40.6959 272.221C40.6959 276.31 97.468 279.624 167.5 279.624Z" fill="#F5F5F5"/>
<path d="M38.2041 74.2486C38.2076 73.1604 38.6414 72.1177 39.4109 71.3483C40.1803 70.5788 41.223 70.1449 42.3112 70.1415H225.575C226.663 70.1449 227.706 70.5788 228.475 71.3483C229.245 72.1177 229.679 73.1604 229.682 74.2486V87.466H38.2041V74.2486Z" fill="#263238"/>
<path d="M71.4076 82.2667C70.7221 82.2667 70.0519 82.0634 69.4819 81.6825C68.9119 81.3016 68.4676 80.7603 68.2053 80.1269C67.9429 79.4935 67.8743 78.7966 68.008 78.1242C68.1418 77.4519 68.4719 76.8342 68.9566 76.3495C69.4414 75.8647 70.059 75.5346 70.7314 75.4009C71.4038 75.2671 72.1007 75.3358 72.7341 75.5981C73.3674 75.8604 73.9088 76.3047 74.2896 76.8747C74.6705 77.4448 74.8738 78.1149 74.8738 78.8005C74.8738 79.7197 74.5086 80.6014 73.8586 81.2514C73.2085 81.9015 72.3269 82.2667 71.4076 82.2667ZM71.4076 76.0602C70.8656 76.0602 70.3358 76.2209 69.8852 76.522C69.4346 76.8231 69.0833 77.2511 68.8759 77.7518C68.6685 78.2525 68.6143 78.8035 68.72 79.3351C68.8257 79.8666 69.0867 80.3549 69.47 80.7381C69.8532 81.1213 70.3414 81.3823 70.873 81.4881C71.4046 81.5938 71.9555 81.5395 72.4563 81.3321C72.957 81.1247 73.3849 80.7735 73.686 80.3229C73.9872 79.8722 74.1479 79.3424 74.1479 78.8005C74.1461 78.0742 73.8569 77.3782 73.3434 76.8647C72.8298 76.3512 72.1338 76.0619 71.4076 76.0602Z" fill="#F0F0F0"/>
<path d="M60.4008 82.2667C59.7156 82.2654 59.046 82.061 58.4769 81.6793C57.9077 81.2977 57.4645 80.7559 57.2031 80.1224C56.9418 79.4889 56.8741 78.7922 57.0086 78.1202C57.143 77.4483 57.4737 76.8313 57.9587 76.3472C58.4437 75.8631 59.0613 75.5336 59.7335 75.4004C60.4057 75.2672 61.1023 75.3362 61.7353 75.5987C62.3683 75.8613 62.9093 76.3055 63.2899 76.8754C63.6704 77.4453 63.8736 78.1152 63.8736 78.8005C63.8736 79.2562 63.7837 79.7075 63.6091 80.1284C63.4345 80.5494 63.1786 80.9318 62.856 81.2537C62.5335 81.5757 62.1506 81.8309 61.7293 82.0047C61.308 82.1785 60.8566 82.2675 60.4008 82.2667ZM60.4008 76.0602C59.8591 76.0615 59.33 76.2233 58.8802 76.5252C58.4304 76.8271 58.0802 77.2555 57.8738 77.7563C57.6674 78.2572 57.6141 78.8079 57.7206 79.3391C57.827 79.8702 58.0885 80.3578 58.472 80.7404C58.8555 81.123 59.3438 81.3833 59.8752 81.4885C60.4065 81.5937 60.9572 81.5391 61.4575 81.3315C61.9579 81.1239 62.3854 80.7727 62.6863 80.3222C62.9871 79.8717 63.1476 79.3422 63.1476 78.8005C63.1459 78.0731 62.8557 77.3761 62.3408 76.8624C61.8259 76.3487 61.1282 76.0602 60.4008 76.0602Z" fill="#F0F0F0"/>
<path d="M49.4007 82.2667C48.7154 82.2654 48.0459 82.061 47.4768 81.6793C46.9076 81.2977 46.4644 80.7559 46.203 80.1224C45.9417 79.4889 45.874 78.7922 46.0084 78.1202C46.1429 77.4483 46.4736 76.8313 46.9586 76.3472C47.4436 75.8631 48.0612 75.5336 48.7334 75.4004C49.4056 75.2672 50.1022 75.3362 50.7352 75.5987C51.3682 75.8613 51.9091 76.3055 52.2897 76.8754C52.6703 77.4453 52.8734 78.1152 52.8734 78.8005C52.8734 79.2562 52.7836 79.7075 52.609 80.1284C52.4344 80.5494 52.1785 80.9318 51.8559 81.2537C51.5333 81.5757 51.1505 81.8309 50.7292 82.0047C50.3079 82.1785 49.8564 82.2675 49.4007 82.2667ZM49.4007 76.0602C48.8587 76.0602 48.3289 76.2209 47.8783 76.522C47.4277 76.8231 47.0764 77.2511 46.869 77.7518C46.6616 78.2525 46.6074 78.8035 46.7131 79.3351C46.8188 79.8666 47.0798 80.3549 47.463 80.7381C47.8463 81.1213 48.3345 81.3823 48.8661 81.4881C49.3977 81.5938 49.9486 81.5395 50.4493 81.3321C50.9501 81.1247 51.378 80.7735 51.6791 80.3229C51.9802 79.8722 52.141 79.3424 52.141 78.8005C52.1392 78.0742 51.85 77.3782 51.3364 76.8647C50.8229 76.3512 50.1269 76.0619 49.4007 76.0602Z" fill="#F0F0F0"/>
<path d="M225.575 213.577H42.3112C41.223 213.573 40.1803 213.139 39.4109 212.37C38.6414 211.6 38.2076 210.558 38.2041 209.47V87.466H229.682V209.47C229.679 210.558 229.245 211.6 228.475 212.37C227.706 213.139 226.663 213.573 225.575 213.577Z" fill="#7D3CFF"/>
<path d="M228.518 90.9779H39.3683V199.104H228.518V90.9779Z" fill="white"/>
<path d="M123.178 100.245H51.1272C49.7511 100.245 48.6355 101.361 48.6355 102.737V112.357C48.6355 113.733 49.7511 114.849 51.1272 114.849H123.178C124.555 114.849 125.67 113.733 125.67 112.357V102.737C125.67 101.361 124.555 100.245 123.178 100.245Z" fill="#7D3CFF"/>
<path d="M216.759 100.899C217.247 100.899 217.714 101.093 218.059 101.437C218.403 101.782 218.597 102.249 218.597 102.737V112.357C218.597 112.845 218.403 113.312 218.059 113.657C217.714 114.001 217.247 114.195 216.759 114.195H144.708C144.221 114.195 143.753 114.001 143.409 113.657C143.064 113.312 142.87 112.845 142.87 112.357V102.737C142.87 102.249 143.064 101.782 143.409 101.437C143.753 101.093 144.221 100.899 144.708 100.899H216.759ZM216.759 100.245H144.708C144.048 100.247 143.415 100.51 142.948 100.977C142.481 101.444 142.218 102.077 142.216 102.737V112.357C142.216 113.018 142.479 113.652 142.946 114.119C143.413 114.586 144.047 114.849 144.708 114.849H216.759C217.42 114.849 218.054 114.586 218.521 114.119C218.988 113.652 219.251 113.018 219.251 112.357V102.737C219.249 102.077 218.986 101.444 218.519 100.977C218.052 100.51 217.42 100.247 216.759 100.245Z" fill="#7D3CFF"/>
<path d="M61.4407 121.389C63.844 121.389 66.1933 122.102 68.1916 123.437C70.1899 124.772 71.7474 126.67 72.6671 128.89C73.5868 131.111 73.8274 133.554 73.3585 135.911C72.8897 138.268 71.7324 140.433 70.033 142.133C68.3336 143.832 66.1684 144.989 63.8113 145.458C61.4542 145.927 59.011 145.686 56.7906 144.767C54.5702 143.847 52.6725 142.289 51.3372 140.291C50.002 138.293 49.2894 135.944 49.2894 133.54C49.2928 130.319 50.5742 127.23 52.8522 124.952C55.1303 122.674 58.219 121.392 61.4407 121.389ZM61.4407 120.735C58.9081 120.735 56.4323 121.486 54.3264 122.893C52.2206 124.3 50.5793 126.3 49.6101 128.64C48.6409 130.98 48.3873 133.554 48.8814 136.038C49.3755 138.522 50.5951 140.804 52.386 142.595C54.1768 144.386 56.4585 145.605 58.9425 146.1C61.4265 146.594 64.0012 146.34 66.3411 145.371C68.681 144.402 70.6809 142.76 72.0879 140.655C73.495 138.549 74.246 136.073 74.246 133.54C74.246 130.144 72.8969 126.887 70.4954 124.486C68.094 122.084 64.8369 120.735 61.4407 120.735Z" fill="#7D3CFF"/>
<path opacity="0.4" d="M70.7078 138.576C69.8006 140.249 68.4585 141.645 66.8234 142.619C65.1882 143.592 63.3206 144.106 61.4178 144.106C59.5149 144.106 57.6473 143.592 56.0121 142.619C54.377 141.645 53.0349 140.249 52.1277 138.576C54.8773 136.738 58.1104 135.757 61.4178 135.757C64.7252 135.757 67.9582 136.738 70.7078 138.576Z" fill="#7D3CFF"/>
<path opacity="0.4" d="M61.4407 134.632C64.0413 134.632 66.1495 132.524 66.1495 129.924C66.1495 127.323 64.0413 125.215 61.4407 125.215C58.8401 125.215 56.7319 127.323 56.7319 129.924C56.7319 132.524 58.8401 134.632 61.4407 134.632Z" fill="#7D3CFF"/>
<path opacity="0.4" d="M212.665 140.126H88.0258C86.2792 140.126 84.6041 139.432 83.369 138.197C82.1339 136.962 81.4401 135.287 81.4401 133.54C81.4401 132.676 81.6105 131.82 81.9415 131.021C82.2725 130.222 82.7578 129.497 83.3694 128.886C83.981 128.275 84.7071 127.79 85.5061 127.46C86.3051 127.13 87.1613 126.96 88.0258 126.961H212.665C213.53 126.96 214.386 127.13 215.185 127.46C215.984 127.79 216.71 128.275 217.322 128.886C217.933 129.497 218.418 130.222 218.749 131.021C219.081 131.82 219.251 132.676 219.251 133.54C219.251 135.287 218.557 136.962 217.322 138.197C216.087 139.432 214.412 140.126 212.665 140.126Z" fill="#7D3CFF"/>
<path d="M61.4407 156.306C63.844 156.306 66.1933 157.019 68.1916 158.354C70.1899 159.689 71.7474 161.587 72.6671 163.807C73.5868 166.028 73.8274 168.471 73.3585 170.828C72.8897 173.185 71.7324 175.35 70.033 177.05C68.3336 178.749 66.1684 179.906 63.8113 180.375C61.4542 180.844 59.011 180.603 56.7906 179.684C54.5702 178.764 52.6725 177.207 51.3372 175.208C50.002 173.21 49.2894 170.861 49.2894 168.457C49.2911 165.235 50.5719 162.145 52.8503 159.867C55.1288 157.589 58.2185 156.308 61.4407 156.306ZM61.4407 155.652C58.9081 155.652 56.4323 156.403 54.3264 157.81C52.2206 159.217 50.5793 161.217 49.6101 163.557C48.6409 165.897 48.3873 168.472 48.8814 170.956C49.3755 173.44 50.5951 175.721 52.386 177.512C54.1768 179.303 56.4585 180.523 58.9425 181.017C61.4265 181.511 64.0012 181.257 66.3411 180.288C68.681 179.319 70.6809 177.677 72.0879 175.572C73.495 173.466 74.246 170.99 74.246 168.457C74.246 165.061 72.8969 161.804 70.4954 159.403C68.094 157.001 64.8369 155.652 61.4407 155.652Z" fill="#7D3CFF"/>
<path opacity="0.4" d="M70.7078 173.454C69.8006 175.127 68.4585 176.523 66.8234 177.497C65.1882 178.47 63.3206 178.984 61.4178 178.984C59.5149 178.984 57.6473 178.47 56.0121 177.497C54.377 176.523 53.0349 175.127 52.1277 173.454C54.8789 171.62 58.1113 170.641 61.4178 170.641C64.7242 170.641 67.9566 171.62 70.7078 173.454Z" fill="#7D3CFF"/>
<path opacity="0.4" d="M61.4407 169.517C64.0413 169.517 66.1495 167.409 66.1495 164.808C66.1495 162.207 64.0413 160.099 61.4407 160.099C58.8401 160.099 56.7319 162.207 56.7319 164.808C56.7319 167.409 58.8401 169.517 61.4407 169.517Z" fill="#7D3CFF"/>
<path opacity="0.4" d="M88.0258 161.839H212.665C214.412 161.839 216.087 162.533 217.322 163.768C218.557 165.003 219.251 166.678 219.251 168.425C219.251 170.171 218.557 171.846 217.322 173.081C216.087 174.317 214.412 175.01 212.665 175.01H88.0258C86.2792 175.01 84.6041 174.317 83.369 173.081C82.1339 171.846 81.4401 170.171 81.4401 168.425C81.4401 166.68 82.1332 165.006 83.3671 163.772C84.6009 162.539 86.2744 161.845 88.0193 161.845L88.0258 161.839Z" fill="#7D3CFF"/>
<path opacity="0.1" d="M181.966 174.814C181.966 178.815 182.358 182.806 183.137 186.73C179.48 188.902 176.449 191.987 174.34 195.681C172.232 199.376 171.119 203.555 171.11 207.808C171.097 209.75 171.316 211.687 171.764 213.577H225.575C226.663 213.573 227.706 213.139 228.475 212.37C229.245 211.6 229.679 210.558 229.682 209.47V115.294C216.151 118.32 204.053 125.863 195.38 136.681C186.708 147.5 181.977 160.949 181.966 174.814Z" fill="black"/>
<path d="M281.383 215.857C302.63 194.61 302.63 160.162 281.383 138.915C260.136 117.668 225.688 117.668 204.441 138.915C183.194 160.162 183.194 194.61 204.441 215.857C225.688 237.104 260.136 237.104 281.383 215.857Z" fill="#7D3CFF"/>
<path d="M278.238 212.39C297.607 193.021 297.607 161.616 278.238 142.246C258.868 122.877 227.463 122.877 208.094 142.246C188.724 161.616 188.724 193.021 208.094 212.39C227.463 231.76 258.868 231.76 278.238 212.39Z" fill="white"/>
<path d="M226.432 144.044L223.266 148.098C223.266 148.098 220.487 150.204 219.434 152.022C218.204 153.239 217.08 154.488 215.968 155.802C214.693 157.306 213.506 158.88 212.41 160.518C211.21 162.269 210.218 164.155 209.454 166.136C208.97 167.389 208.702 168.716 208.663 170.06C208.645 171.01 208.814 171.954 209.16 172.839C209.593 173.923 210.309 174.872 211.233 175.586L211.926 176.109L212.966 176.305C215.019 176.695 217.102 176.901 219.192 176.92L220.016 176.848L219.166 168.555C218.466 168.555 216.962 168.693 216.275 168.68C216.275 168.549 216.327 168.418 216.36 168.287C216.775 166.709 217.344 165.175 218.061 163.709C218.793 162.12 219.637 160.531 220.513 158.948C221.285 157.549 222.115 156.143 222.92 154.769L226.844 152.297L229.139 148.223L226.432 144.044ZM216.223 169.877C216.217 169.813 216.217 169.75 216.223 169.687C216.251 169.733 216.27 169.784 216.282 169.837C216.301 169.994 216.256 170.001 216.223 169.877Z" fill="#7F3E3B"/>
<path d="M248.72 152.807C248.818 152.304 245.378 150.577 243.011 151.983C240.964 153.2 240.702 154.861 241.448 156.842C241.448 156.98 241.5 157.117 241.52 157.254C241.565 157.575 241.605 157.908 241.624 158.209C241.775 160.295 241.225 162.238 238.877 163.343C238.877 163.474 238.557 163.611 238.452 163.703C237.583 164.468 237.028 165.528 236.896 166.678C236.896 167.529 237.7 168.202 238.635 169.013L239.943 169.896L241.735 169.726C247.236 168.111 249.806 163.088 249.688 162.715C248.275 160.387 248.295 156.306 248.72 152.807Z" fill="#7F3E3B"/>
<path d="M260.61 164.723L259.616 164.553C258.308 164.344 252.474 163.023 249.655 162.774C249.001 164.167 246.856 167.568 241.356 169.183L239.996 169.504L238.688 168.85C238.284 168.558 237.947 168.183 237.701 167.75C237.455 167.316 237.305 166.835 237.262 166.338C237.307 165.828 237.456 165.332 237.702 164.881C237.947 164.431 238.283 164.037 238.688 163.722C238.735 163.681 238.773 163.63 238.799 163.572C238.799 163.415 238.799 163.31 238.799 163.297C238.387 163.35 233.168 164.141 232.73 164.213C227.81 165.122 222.98 166.463 218.296 168.222L218.348 168.693L219.297 176.927L219.65 180.046C219.65 180.046 222.266 179.752 225.699 179.15C224.764 187.482 224.581 199.555 227.439 215.074L238.603 214.865L258 214.505C258.079 213.197 257.935 210.49 257.798 206.788L257.621 201.072C257.516 196.023 257.536 189.954 257.987 183.467C258.059 182.44 258.144 181.407 258.236 180.36C262.199 184.644 266.169 188.738 266.169 188.738L268.046 186.933C270.446 185.775 272.336 183.702 273.984 181.21L276.188 179.085C276.188 179.085 265.973 165.626 260.61 164.723Z" fill="#7D3CFF"/>
<path opacity="0.3" d="M255.241 176.999C255.39 178.36 255.825 179.675 256.516 180.857L258.02 183.434C258.092 182.407 258.177 181.374 258.269 180.327C257.235 179.196 256.202 178.078 255.241 176.999Z" fill="black"/>
<path opacity="0.3" d="M258.275 180.334C258.184 181.38 258.099 182.414 258.027 183.44C258.092 182.414 258.184 181.374 258.275 180.334Z" fill="black"/>
<path d="M241.448 156.842C241.448 156.98 241.493 157.117 241.52 157.254C241.52 157.117 241.474 156.98 241.448 156.842Z" fill="#7F3E3B"/>
<path opacity="0.2" d="M241.624 158.209C241.624 157.895 241.565 157.555 241.52 157.254C241.565 157.575 241.605 157.895 241.624 158.209Z" fill="black"/>
<path d="M245.692 155.292C245.561 155.384 245.437 155.482 245.3 155.574C244.156 156.34 242.823 156.779 241.448 156.842C241.448 156.98 241.493 157.117 241.52 157.254C241.565 157.575 241.605 157.908 241.624 158.209C241.624 158.209 241.624 158.248 241.624 158.268C243.321 157.854 244.784 156.784 245.692 155.292Z" fill="#7F3E3B"/>
<path d="M253.037 163.768C252.979 163.499 252.846 163.252 252.654 163.056C252.462 162.859 252.218 162.721 251.951 162.656L250.591 162.329C250.421 162.289 250.242 162.305 250.082 162.375C249.922 162.444 249.788 162.564 249.701 162.715L249.655 162.774C249.001 164.167 246.856 167.568 241.356 169.183L240.931 169.281L239.996 169.504L238.688 168.85C238.284 168.558 237.947 168.183 237.701 167.75C237.455 167.316 237.305 166.835 237.262 166.338C237.307 165.828 237.456 165.332 237.702 164.881C237.947 164.431 238.283 164.037 238.688 163.722C238.76 163.649 238.823 163.568 238.878 163.48C238.936 163.33 238.923 163.258 238.819 163.193C237.373 162.153 234.143 163.755 234.012 164.03C233.874 164.167 233.737 164.311 233.6 164.475C233.196 164.949 232.895 165.502 232.715 166.099C232.535 166.695 232.48 167.322 232.553 167.941C232.69 168.981 233.059 169.978 233.633 170.856C234.207 171.735 234.971 172.473 235.869 173.016C235.899 173.025 235.931 173.025 235.961 173.016C235.995 173.026 236.031 173.026 236.065 173.016C236.094 172.996 236.117 172.969 236.133 172.939C236.149 172.908 236.157 172.874 236.157 172.839C236.16 172.066 236.391 171.311 236.821 170.669C237.252 170.026 237.863 169.525 238.577 169.229L239.721 169.844C234.803 190.026 238.138 214.218 238.23 214.872H238.609C238.609 214.623 235.143 190.222 240.1 169.929L241.297 169.641C242.69 171.342 242.03 173.866 242.023 173.892C242.014 173.927 242.015 173.964 242.025 173.998C242.035 174.033 242.055 174.064 242.082 174.088C242.119 174.118 242.165 174.135 242.213 174.134C242.236 174.141 242.261 174.141 242.285 174.134C242.546 174.016 248.733 171.309 250.898 168.725C251.92 167.491 252.641 166.036 253.004 164.475C253.076 164.246 253.087 164.002 253.037 163.768Z" fill="white"/>
<path opacity="0.2" d="M245.692 155.292C245.561 155.384 245.437 155.482 245.3 155.574C244.156 156.34 242.823 156.779 241.448 156.842C241.448 156.98 241.493 157.117 241.52 157.254C241.565 157.575 241.605 157.908 241.624 158.209C241.624 158.209 241.624 158.248 241.624 158.268C243.321 157.854 244.784 156.784 245.692 155.292Z" fill="black"/>
<path d="M237.615 140.852C240.172 137.582 238.551 135.62 237.465 135.803C236.438 136.287 235.464 137.654 234.96 140.715C234.839 141.437 234.822 142.172 234.908 142.899C235.961 142.847 237.615 140.852 237.615 140.852Z" fill="#263238"/>
<path d="M248.334 148.066C255.417 135.607 241.428 134.155 238.577 136.948C237.615 137.84 236.804 138.882 236.176 140.034L235.581 141.205C235.335 141.758 235.117 142.324 234.927 142.899C234.208 144.967 233.832 147.139 233.816 149.328C233.811 150.328 234.007 151.318 234.391 152.241C234.776 153.164 235.342 154 236.055 154.701C236.768 155.401 237.615 155.952 238.544 156.319C239.474 156.687 240.468 156.865 241.467 156.842C242.843 156.779 244.175 156.34 245.319 155.574C245.457 155.482 245.581 155.384 245.712 155.292C246.646 154.627 247.443 153.787 248.06 152.82C249.512 150.472 249.132 149.289 248.334 148.066Z" fill="#7F3E3B"/>
<path d="M235.222 140.819C235.179 140.876 235.159 140.947 235.168 141.018C235.176 141.089 235.212 141.154 235.268 141.199C235.316 141.236 235.376 141.257 235.438 141.257C235.49 141.256 235.54 141.238 235.581 141.205C235.607 141.194 235.63 141.176 235.647 141.153C235.856 140.877 236.126 140.653 236.435 140.497C236.745 140.342 237.086 140.26 237.432 140.257C237.504 140.26 237.574 140.236 237.628 140.188C237.682 140.14 237.715 140.074 237.72 140.002C237.723 139.967 237.718 139.931 237.707 139.898C237.696 139.864 237.679 139.833 237.656 139.806C237.632 139.78 237.604 139.758 237.573 139.742C237.541 139.726 237.507 139.717 237.471 139.714C237.016 139.711 236.566 139.821 236.163 140.034C235.799 140.228 235.478 140.496 235.222 140.819Z" fill="#263238"/>
<path d="M242.298 148.654C242.272 148.63 242.238 148.616 242.203 148.616C242.168 148.616 242.134 148.63 242.108 148.654C241.661 149.029 241.134 149.297 240.567 149.438C240 149.578 239.409 149.588 238.838 149.465C238.804 149.459 238.768 149.467 238.739 149.486C238.71 149.506 238.689 149.536 238.681 149.57C238.675 149.605 238.683 149.642 238.702 149.672C238.721 149.702 238.751 149.724 238.786 149.733C239.098 149.795 239.416 149.824 239.734 149.818C240.671 149.81 241.573 149.466 242.278 148.85C242.293 148.839 242.305 148.825 242.314 148.809C242.322 148.793 242.328 148.775 242.33 148.756C242.331 148.738 242.33 148.72 242.324 148.702C242.319 148.685 242.31 148.668 242.298 148.654Z" fill="#263238"/>
<path d="M238.786 143.985C237.92 145.252 236.889 146.398 235.719 147.392C236.373 148.295 237.785 148.229 237.785 148.229L238.786 143.985Z" fill="#630F0F"/>
<path d="M236.471 144.142C236.765 144.2 237.125 143.887 237.197 143.435C237.269 142.984 237.151 142.579 236.857 142.52C236.562 142.461 236.235 142.775 236.131 143.226C236.026 143.677 236.17 144.083 236.471 144.142Z" fill="#263238"/>
<path d="M241.585 145.188C241.879 145.247 242.2 144.933 242.311 144.482C242.422 144.03 242.259 143.625 241.964 143.566C241.67 143.507 241.343 143.821 241.238 144.272C241.134 144.724 241.284 145.103 241.585 145.188Z" fill="#263238"/>
<path d="M252.814 138.059C255.581 135.692 249.276 130.865 249.276 130.865C249.276 130.865 249.982 132.592 248.517 133.069C247.052 133.547 236.745 129.701 236.896 134.063C236.924 134.678 237.121 135.273 237.465 135.783C237.771 136.222 238.147 136.609 238.577 136.928C240.97 138.746 245.326 139.302 247.68 139.302C247.307 140.213 247.045 141.166 246.902 142.14C246.722 143.167 246.756 144.22 247.002 145.233C247.249 146.246 247.702 147.197 248.334 148.026C249.642 150.302 251.388 150.237 252.88 148.504C255.273 146.241 257.582 141.656 252.814 138.059Z" fill="#263238"/>
<path d="M251.611 147.196C250.525 146.751 249.302 147.274 248.341 148.066C247.813 148.485 247.356 148.986 246.987 149.55C246.065 150.996 246.392 152.676 248.047 152.82H248.334H248.727C250.029 152.688 251.247 152.11 252.173 151.185C252.517 150.854 252.764 150.436 252.89 149.975C253.015 149.515 253.014 149.029 252.886 148.569C252.793 148.258 252.629 147.972 252.408 147.734C252.187 147.496 251.914 147.312 251.611 147.196Z" fill="#7F3E3B"/>
<path d="M227.472 215.042C227.472 215.042 227.295 216.572 227.021 219.142C237.036 222.529 247.871 222.63 257.948 219.43C258.014 216.324 258.059 214.466 258.059 214.466L238.636 214.832H238.256L227.472 215.042Z" fill="#263238"/>
<path d="M278.026 188.705C277.97 188.148 277.843 187.601 277.647 187.077C277.553 186.816 277.441 186.563 277.313 186.318L277.123 185.965L277.019 185.782C276.084 184.173 275.057 182.649 274.01 181.204L268.072 186.926C268.857 187.907 269.622 188.888 270.328 189.895C270.197 190.23 270.028 190.548 269.825 190.844C268.874 192.164 267.777 193.373 266.555 194.447C263.994 196.754 261.311 198.922 258.517 200.941L257.608 201.059L253.959 201.556L250.368 203.983L252.729 208.783L255.698 207.266C256.408 207.168 257.106 207.004 257.785 206.775C258.834 206.502 259.748 205.855 260.355 204.957C262.092 204.269 263.792 203.492 265.45 202.629C267.231 201.71 268.956 200.685 270.616 199.562C271.458 198.986 272.29 198.356 273.114 197.671C273.99 196.953 274.799 196.159 275.534 195.297C276.475 194.234 277.199 192.996 277.666 191.655C277.996 190.708 278.118 189.703 278.026 188.705ZM270.381 189.738C270.381 189.706 270.381 189.667 270.381 189.64C270.381 189.483 270.44 189.425 270.44 189.516C270.436 189.592 270.421 189.667 270.394 189.738H270.381Z" fill="#7F3E3B"/>
<path d="M213.335 208.04C214.923 198.254 208.278 189.032 198.491 187.444C188.704 185.855 179.483 192.501 177.894 202.287C176.306 212.074 182.951 221.296 192.738 222.884C202.525 224.473 211.746 217.827 213.335 208.04Z" fill="#263238"/>
<path d="M205.471 203.472H197.283V195.284C197.283 194.839 197.106 194.411 196.791 194.096C196.476 193.781 196.048 193.604 195.602 193.604C195.156 193.604 194.729 193.781 194.414 194.096C194.099 194.411 193.921 194.839 193.921 195.284V203.472H185.733C185.288 203.472 184.86 203.65 184.545 203.965C184.23 204.28 184.053 204.707 184.053 205.153C184.053 205.599 184.23 206.027 184.545 206.342C184.86 206.657 185.288 206.834 185.733 206.834H193.921V215.022C193.921 215.243 193.965 215.461 194.049 215.665C194.134 215.869 194.258 216.055 194.414 216.211C194.57 216.367 194.755 216.49 194.959 216.575C195.163 216.659 195.382 216.703 195.602 216.703C195.823 216.703 196.042 216.659 196.245 216.575C196.449 216.49 196.635 216.367 196.791 216.211C196.947 216.055 197.071 215.869 197.155 215.665C197.24 215.461 197.283 215.243 197.283 215.022V206.834H205.471C205.917 206.834 206.344 206.657 206.66 206.342C206.975 206.027 207.152 205.599 207.152 205.153C207.152 204.707 206.975 204.28 206.66 203.965C206.344 203.65 205.917 203.472 205.471 203.472Z" fill="white"/>
<path d="M242.56 141.761C242.888 141.828 243.196 141.973 243.455 142.185C243.715 142.397 243.919 142.669 244.051 142.977C244.073 143.024 244.108 143.064 244.152 143.092C244.196 143.12 244.247 143.134 244.299 143.134C244.336 143.144 244.374 143.144 244.41 143.134C244.443 143.12 244.472 143.099 244.496 143.072C244.52 143.046 244.539 143.016 244.551 142.982C244.563 142.949 244.569 142.913 244.567 142.877C244.565 142.842 244.556 142.807 244.541 142.775C244.371 142.385 244.108 142.042 243.775 141.776C243.442 141.511 243.05 141.33 242.631 141.251C242.56 141.241 242.488 141.26 242.431 141.304C242.374 141.348 242.337 141.412 242.327 141.483C242.318 141.554 242.337 141.626 242.38 141.683C242.424 141.74 242.488 141.778 242.56 141.787V141.761Z" fill="#263238"/>
</g>
<defs>
<filter id="filter0_d" x="0" y="1.52588e-05" width="335" height="335" filterUnits="userSpaceOnUse" color-interpolation-filters="sRGB">
<feFlood flood-opacity="0" result="BackgroundImageFix"/>
<feColorMatrix in="SourceAlpha" type="matrix" values="0 0 0 0 0 0 0 0 0 0 0 0 0 0 0 0 0 0 127 0"/>
<feOffset dy="4"/>
<feGaussianBlur stdDeviation="2"/>
<feColorMatrix type="matrix" values="0 0 0 0 0 0 0 0 0 0 0 0 0 0 0 0 0 0 0.25 0"/>
<feBlend mode="normal" in2="BackgroundImageFix" result="effect1_dropShadow"/>
<feBlend mode="normal" in="SourceGraphic" in2="effect1_dropShadow" result="shape"/>
</filter>
<clipPath id="clip0">
<rect width="327" height="327" fill="white" transform="translate(4)"/>
</clipPath>
</defs>
</svg>
